<svg width="1440" height="917" viewBox="0 0 1440 917" fill="none" xmlns="http://www.w3.org/2000/svg">
<rect width="1440" height="917" fill="#EEEEEE"/>
<path d="M1091.83 400.931L1120.74 429.838L1145.67 396.891L1160.13 417.368C1160.13 417.368 1134.98 457.205 1129.64 460.776C1124.3 464.335 1118.06 467.678 1109.39 460.776C1100.71 453.874 1079.47 412.018 1079.47 412.018L1087.85 399.115L1091.83 400.931Z" fill="#FFBF9D"/>
<path d="M1097.16 392.214C1096.77 391.131 1096.89 389.388 1097.11 388.197C1097.33 387.007 1096.79 385.696 1096.24 384.939C1095.7 384.181 1096.03 383.195 1095.7 381.139C1095.38 379.083 1092.55 378.313 1092.55 378.313C1092.55 378.313 1092.12 377.339 1091.47 375.812C1090.82 374.297 1087.02 372.77 1084.09 372.013C1081.15 371.255 1080.07 372.987 1080.07 372.987L1080.18 373.636L1081.59 375.488L1075.72 377.772L1071.81 399.176L1069.85 403.384L1084.71 410.058L1088.1 404.611C1088.1 404.611 1095.92 397.119 1096.58 395.797C1097.22 394.462 1097.54 393.296 1097.16 392.214Z" fill="#AE7461"/>
<path d="M1080.99 373.732C1080.99 373.732 1078.57 371.027 1076.56 371.448C1074.55 371.868 1070.54 374.009 1070.47 376.366C1070.39 378.722 1073.1 378.65 1074.83 378.229L1075.73 377.808L1077.2 378.794L1083.07 376.51L1080.99 373.732Z" fill="#FFBF9D"/>
<path d="M1070.47 377.724C1070.47 377.724 1066.49 377.376 1065.04 378.301C1063.6 379.227 1061.93 382.077 1064.26 384.783L1070.95 383.4L1080.76 383.448C1080.76 383.448 1081.17 380.093 1080.76 379.516C1080.36 378.939 1074.77 377.568 1070.47 377.724Z" fill="#FFBF9D"/>
<path d="M1063.8 384.903C1063.8 384.903 1061.66 386.213 1061.95 388.69C1062.24 391.167 1064.57 392.045 1064.57 392.045L1071.62 388.979L1087.28 389.268C1087.28 389.268 1089.7 386.249 1086.59 384.891C1083.48 383.532 1075.73 383.412 1072.5 383.388C1069.26 383.4 1063.8 384.903 1063.8 384.903Z" fill="#FFBF9D"/>
<path d="M1064.59 392.057C1064.59 392.057 1062.84 393.945 1063.96 396.121C1065.08 398.298 1066.06 398.298 1066.06 398.298C1066.06 398.298 1066.06 401.039 1066.91 401.953C1067.75 402.867 1069.08 403.781 1069.08 403.781L1074.35 399.645C1074.35 399.645 1081.79 398.947 1082.77 397.925C1083.75 396.903 1084.38 395.22 1084.38 395.22C1084.38 395.22 1087.07 395.64 1088.18 394.45C1089.28 393.26 1089.37 389.989 1086.77 389.364L1071.63 389.015L1064.59 392.057Z" fill="#FFBF9D"/>
<path d="M1029.15 406.017L1046.56 424.751L1069.85 403.36L1088.96 403.769C1088.96 403.769 1059.5 453.429 1052.71 457.409C1045.91 461.389 1040.77 459.562 1033.14 454.92C1025.52 450.279 1000.15 418.114 1000.15 418.114L1029.15 406.017Z" fill="#AE7461"/>
<path d="M1084.14 395.592C1085.27 394.787 1081.17 394.438 1076.83 394.691C1072.37 394.991 1068.92 396.242 1068.86 396.061C1068.83 395.989 1069.65 395.58 1071.08 395.135C1072.5 394.691 1074.52 394.234 1076.79 394.077C1079.06 393.909 1081.13 394.077 1082.6 394.318C1082.97 394.39 1083.3 394.438 1083.58 394.51C1083.89 394.582 1084.17 394.715 1084.31 394.955C1084.43 395.184 1084.39 395.388 1084.32 395.496C1084.22 395.604 1084.14 395.604 1084.14 395.592Z" fill="#FF9A6C"/>
<path d="M1087.25 389.496C1087.25 389.58 1086.19 389.616 1084.48 389.568C1082.55 389.472 1080.32 389.364 1077.86 389.244C1075.29 389.147 1072.95 389.292 1071.29 389.556C1069.62 389.809 1068.61 390.073 1068.58 389.965C1068.55 389.893 1069.54 389.484 1071.21 389.111C1072.88 388.739 1075.26 388.51 1077.87 388.618C1080.48 388.702 1082.81 388.967 1084.51 389.123C1086.2 389.292 1087.25 389.412 1087.25 389.496Z" fill="#FF9A6C"/>
<path d="M1080.95 383.58C1080.94 383.772 1077.34 383.556 1072.93 383.809C1068.52 384.061 1064.98 384.746 1064.95 384.554C1064.94 384.47 1065.8 384.205 1067.23 383.905C1068.66 383.604 1070.67 383.304 1072.91 383.183C1075.14 383.051 1077.16 383.123 1078.62 383.231C1080.06 383.352 1080.95 383.496 1080.95 383.58Z" fill="#FF9A6C"/>
<path d="M1080.71 379.372C1080.64 379.528 1077.75 378.337 1073.93 378.217C1070.13 378.073 1067 378.301 1066.99 378.085C1066.99 378.001 1067.76 377.869 1069.01 377.736C1070.26 377.616 1072.02 377.496 1073.95 377.592C1075.89 377.688 1077.64 378.037 1078.85 378.458C1080.07 378.891 1080.75 379.311 1080.71 379.372Z" fill="#FF9A6C"/>
<path d="M1086.55 375.163C1086.6 375.331 1084.81 376.041 1082.61 376.919C1080.4 377.784 1078.61 378.482 1078.53 378.325C1078.46 378.169 1080.16 377.219 1082.38 376.341C1084.61 375.464 1086.49 375.007 1086.55 375.163Z" fill="#6F4439"/>
<path d="M1122.19 445.421C1121.99 445.409 1122.42 441.549 1121.66 436.884C1120.93 432.206 1119.32 428.683 1119.5 428.611C1119.57 428.575 1120.07 429.417 1120.65 430.872C1121.24 432.327 1121.89 434.419 1122.28 436.788C1122.65 439.156 1122.69 441.345 1122.58 442.908C1122.47 444.471 1122.27 445.433 1122.19 445.421Z" fill="#FF9A6C"/>
<path d="M1045.76 438.844C1045.57 438.796 1046.48 435.513 1046.72 431.365C1046.98 427.216 1046.48 423.849 1046.67 423.825C1046.81 423.789 1047.61 427.168 1047.34 431.401C1047.09 435.645 1045.89 438.904 1045.76 438.844Z" fill="#6F4439"/>
<path d="M1168.26 338.393C1168.37 332.044 1169.64 318.998 1170.94 307.19C1172.34 294.504 1183.24 285.005 1196 285.378L1197.26 285.414C1210.91 286.604 1217.52 298.869 1215.95 312.48L1214.71 366.157L1204.97 381.825L1182.06 376.654L1183.69 354C1183.7 353.988 1168.04 351.535 1168.26 338.393Z" fill="#FFBF9D"/>
<path d="M1181.1 353.952C1181.1 353.952 1189.39 354.866 1198.37 349.575C1198.37 349.575 1194.04 358.918 1180.97 357.355L1181.1 353.952Z" fill="#FF9A6C"/>
<path d="M1173.64 319.094C1173.57 320.08 1174.36 320.958 1175.39 321.042C1176.42 321.126 1177.31 320.392 1177.37 319.406C1177.43 318.42 1176.65 317.543 1175.62 317.458C1174.6 317.374 1173.71 318.108 1173.64 319.094Z" fill="#263238"/>
<path d="M1173.41 312.997C1173.63 313.25 1175.09 312.24 1177.1 312.3C1179.12 312.336 1180.57 313.418 1180.79 313.178C1180.9 313.07 1180.68 312.625 1180.04 312.132C1179.42 311.651 1178.35 311.158 1177.1 311.134C1175.84 311.11 1174.77 311.53 1174.15 311.987C1173.51 312.456 1173.3 312.889 1173.41 312.997Z" fill="#263238"/>
<path d="M1191.63 319.454C1191.57 320.44 1192.36 321.318 1193.39 321.402C1194.42 321.487 1195.31 320.753 1195.37 319.767C1195.43 318.781 1194.65 317.903 1193.62 317.819C1192.6 317.735 1191.71 318.468 1191.63 319.454Z" fill="#263238"/>
<path d="M1192.65 313.021C1192.84 313.298 1194.4 312.444 1196.4 312.733C1198.39 312.985 1199.73 314.224 1199.98 314.007C1200.1 313.911 1199.93 313.442 1199.36 312.889C1198.79 312.336 1197.78 311.735 1196.53 311.567C1195.28 311.398 1194.17 311.711 1193.5 312.096C1192.83 312.48 1192.55 312.889 1192.65 313.021Z" fill="#263238"/>
<path d="M1185.66 329.411C1185.67 329.29 1184.42 329.038 1182.4 328.725C1181.88 328.653 1181.4 328.545 1181.33 328.184C1181.22 327.811 1181.45 327.258 1181.71 326.669C1182.23 325.431 1182.79 324.144 1183.35 322.785C1185.63 317.254 1187.29 312.709 1187.08 312.613C1186.85 312.528 1184.83 316.929 1182.54 322.461C1181.99 323.819 1181.47 325.13 1180.97 326.368C1180.75 326.946 1180.4 327.607 1180.64 328.389C1180.78 328.773 1181.14 329.074 1181.47 329.17C1181.8 329.278 1182.09 329.29 1182.35 329.314C1184.37 329.483 1185.65 329.531 1185.66 329.411Z" fill="#263238"/>
<path d="M1193.52 304.304C1193.7 304.857 1195.74 304.653 1198.09 305.013C1200.46 305.326 1202.35 306.071 1202.67 305.59C1202.82 305.362 1202.5 304.833 1201.75 304.28C1201 303.727 1199.79 303.186 1198.37 302.993C1196.95 302.801 1195.64 302.981 1194.77 303.306C1193.88 303.618 1193.44 304.039 1193.52 304.304Z" fill="#263238"/>
<path d="M1173.96 305.206C1174.3 305.675 1175.7 305.242 1177.37 305.266C1179.05 305.23 1180.45 305.663 1180.79 305.194C1180.93 304.965 1180.73 304.496 1180.13 304.051C1179.53 303.606 1178.52 303.222 1177.37 303.222C1176.22 303.222 1175.21 303.606 1174.62 304.063C1174.02 304.508 1173.82 304.977 1173.96 305.206Z" fill="#263238"/>
<path d="M1214.6 322.184C1214.82 322.088 1223.7 319.779 1223.16 328.749C1222.6 337.719 1213.72 335.327 1213.72 335.062C1213.71 334.81 1214.6 322.184 1214.6 322.184Z" fill="#FFBF9D"/>
<path d="M1216.66 331.827C1216.7 331.803 1216.81 331.948 1217.07 332.08C1217.32 332.212 1217.76 332.32 1218.24 332.176C1219.21 331.888 1220.1 330.433 1220.25 328.809C1220.32 327.992 1220.2 327.21 1219.95 326.549C1219.72 325.875 1219.32 325.394 1218.84 325.274C1218.37 325.13 1218.01 325.394 1217.89 325.647C1217.76 325.887 1217.8 326.068 1217.76 326.08C1217.73 326.104 1217.58 325.911 1217.67 325.551C1217.72 325.37 1217.84 325.166 1218.06 325.01C1218.29 324.853 1218.61 324.781 1218.93 324.829C1219.62 324.913 1220.21 325.599 1220.49 326.32C1220.8 327.054 1220.96 327.944 1220.87 328.857C1220.7 330.661 1219.67 332.296 1218.36 332.597C1217.72 332.729 1217.2 332.501 1216.94 332.272C1216.66 332.044 1216.64 331.839 1216.66 331.827Z" fill="#FF9A6C"/>
<path d="M1169.93 291.823C1170.38 290.091 1171.71 288.468 1173.49 288.251C1173.41 287.975 1175.33 287.049 1176.83 286.003C1178.34 284.945 1178.66 282.444 1180.02 283.682C1179.98 280.941 1183.42 278.824 1185.85 280.099C1185.8 278.512 1188.14 277.983 1189.68 277.574C1191.21 277.177 1191.8 276.937 1192.54 278.355C1194.51 275.181 1199.78 274.916 1202.07 277.862C1205.69 276.684 1210.06 278.764 1211.43 282.323C1214.36 282.564 1217.02 284.776 1217.81 287.602C1219.69 287.807 1220.13 289.286 1220.89 291.017C1221.65 292.749 1222.69 294.672 1221.58 296.199C1223.81 297.366 1224.19 300.973 1222.23 302.56C1222.73 302.825 1223.16 303.21 1223.5 303.667C1225.39 304.857 1225.94 307.779 1224.55 309.534C1225.9 310.629 1226.46 312.625 1225.83 314.26C1225.22 315.895 1223.49 317.026 1221.74 316.941C1223.19 319.046 1221.31 321.871 1220.22 322.473C1220.22 322.473 1216.55 320.909 1215.92 323.615C1215.96 323.663 1215.95 323.639 1215.92 323.615C1216.13 324.769 1214.72 325.791 1213.65 325.31C1212.58 324.817 1211.99 323.687 1211.4 322.677C1210.72 321.511 1209.91 320.392 1209.62 319.07C1209.34 317.759 1209.74 316.16 1210.96 315.571C1209.42 315.018 1208.47 313.406 1208.22 311.783C1207.96 310.172 1208.3 308.524 1208.64 306.925C1209.13 304.568 1209.62 302.2 1210.12 299.843C1206.86 299.675 1203.79 297.522 1202.51 294.528C1200.12 296.26 1196.25 295.189 1195.1 292.484C1193.97 295.67 1190.02 297.534 1186.84 296.392C1187.14 298.256 1183.75 299.891 1181.91 300.336C1180.07 300.769 1177.81 299.422 1177.81 299.422C1177.81 299.422 1174.61 301.19 1172.9 300.456C1171.23 299.735 1169.02 297.498 1170.17 295.755C1170.18 295.731 1169.49 293.542 1169.93 291.823Z" fill="#263238"/>
<path d="M1187.03 279.87C1187.07 279.919 1187.33 279.522 1188.06 279.317C1188.42 279.221 1188.91 279.197 1189.37 279.426C1189.84 279.642 1190.3 280.123 1190.43 280.76L1190.54 281.277L1190.82 280.82C1191.32 280.015 1192.39 279.317 1193.63 279.341C1194.85 279.353 1196.17 280.291 1196.53 281.686L1196.69 282.287L1197.07 281.806C1197.78 280.929 1198.98 280.363 1200.22 280.4C1201.46 280.412 1202.67 281.145 1203.36 282.275C1203.64 282.732 1203.82 283.237 1203.89 283.742L1203.94 284.103L1204.3 284.019C1206.04 283.634 1207.92 284.668 1208.53 286.147C1209.18 287.638 1208.72 289.37 1207.77 290.332L1207.41 290.692L1207.9 290.789C1209.08 291.029 1210.02 291.775 1210.55 292.58C1211.1 293.398 1211.25 294.276 1211.24 294.985C1211.19 296.416 1210.62 297.113 1210.71 297.149C1210.73 297.161 1210.87 297.005 1211.07 296.656C1211.26 296.308 1211.49 295.755 1211.55 294.997C1211.61 294.252 1211.5 293.278 1210.92 292.34C1210.37 291.426 1209.36 290.56 1208.02 290.247L1208.16 290.704C1209.29 289.61 1209.84 287.662 1209.11 285.883C1208.39 284.115 1206.26 282.901 1204.15 283.345L1204.56 283.634C1204.48 283.021 1204.27 282.432 1203.95 281.903C1203.17 280.592 1201.71 279.714 1200.26 279.714C1198.81 279.69 1197.44 280.351 1196.6 281.386L1197.14 281.506C1196.67 279.822 1195.1 278.776 1193.64 278.788C1192.18 278.788 1191 279.63 1190.46 280.58L1190.84 280.64C1190.64 279.846 1190.07 279.329 1189.51 279.101C1188.93 278.86 1188.38 278.933 1187.99 279.077C1187.6 279.221 1187.35 279.426 1187.21 279.582C1187.07 279.75 1187.02 279.858 1187.03 279.87Z" fill="#455A64"/>
<path d="M1168.62 331.214C1169.99 330.204 1172.26 330.962 1172.77 332.585C1173.53 331.527 1174.92 330.95 1176.21 331.178C1177.49 331.407 1178.61 332.405 1178.97 333.667C1179.56 331.755 1182.57 331.25 1183.76 332.862C1184.25 332.056 1185.29 331.647 1186.2 331.888C1186.09 331.01 1186.57 330.096 1187.34 329.675C1188.11 329.254 1189.15 329.35 1189.82 329.916C1190.82 328.1 1193.63 327.631 1195.16 329.026C1195.41 328.196 1196.28 327.583 1197.14 327.619C1198.02 327.655 1198.83 328.316 1199.02 329.17C1199.87 328.064 1201.5 327.643 1202.77 328.196C1202.76 326.898 1204.22 325.803 1205.46 326.2C1205.15 325.094 1206.77 324.589 1207.62 323.795C1207.99 323.435 1208.23 322.954 1208.63 322.629C1209.02 322.304 1209.72 322.232 1209.98 322.677C1209.77 321.787 1210.32 320.789 1211.19 320.489C1212.05 320.188 1213.1 320.633 1213.48 321.463C1213.71 321.956 1213.71 322.509 1213.78 323.05C1214.04 324.769 1215 326.813 1213.75 328.028C1213.53 328.244 1213.24 328.413 1213.15 328.713C1212.99 329.206 1213.47 329.687 1213.51 330.216C1213.54 330.829 1212.99 331.286 1212.74 331.84C1212.37 332.669 1212.7 333.607 1212.77 334.509C1212.83 335.411 1212.33 336.553 1211.43 336.457C1212.1 337.767 1211.64 339.547 1210.43 340.377C1211.13 341.892 1210.22 343.936 1208.63 344.429C1209.23 344.91 1209.18 345.884 1208.75 346.509C1208.31 347.134 1207.59 347.507 1206.91 347.844C1207.53 348.169 1207.62 349.106 1207.22 349.684C1206.83 350.273 1206.14 350.573 1205.45 350.766C1205.16 350.85 1204.84 350.934 1204.67 351.175C1204.34 351.644 1204.78 352.281 1204.69 352.834C1204.56 353.688 1203.35 353.94 1202.99 354.722C1202.66 355.419 1203.08 356.405 1202.52 356.934C1202.16 357.283 1201.58 357.211 1201.1 357.379C1200.26 357.68 1199.88 358.618 1199.34 359.339C1198.33 360.686 1196.61 361.275 1194.99 361.684C1194.16 361.888 1193.32 362.081 1192.48 362.237C1190.79 362.55 1189.1 362.754 1187.4 362.958C1186.56 363.055 1185.53 363.079 1185.08 362.345C1183.9 363.788 1181.22 363.475 1180.42 361.792C1178.9 362.201 1177.33 361.564 1175.88 360.926C1175.39 360.71 1174.89 360.493 1174.39 360.277C1172.91 359.628 1171.25 358.798 1170.82 357.247C1168.87 356.97 1167.6 354.529 1168.48 352.774C1167.8 352.966 1167.14 352.281 1167.03 351.583C1166.93 350.886 1167.18 350.201 1167.3 349.503C1167.82 346.69 1166.32 343.816 1166.71 340.99C1166.99 339.006 1168.16 337.046 1167.6 335.122C1167.48 334.725 1167.29 334.341 1167.32 333.932C1167.35 333.523 1167.73 333.09 1168.13 333.21C1167.62 332.08 1168.75 330.589 1169.98 330.781" fill="#263238"/>
<path d="M1192.33 331.431C1192.01 331.407 1191.94 333.595 1190.01 335.098C1188.1 336.601 1185.77 336.288 1185.74 336.601C1185.71 336.733 1186.25 337.046 1187.23 337.094C1188.2 337.154 1189.63 336.89 1190.79 335.964C1191.96 335.038 1192.49 333.787 1192.6 332.886C1192.7 331.972 1192.48 331.431 1192.33 331.431Z" fill="white"/>
<path d="M1204.37 346.425C1204.26 346.389 1205.17 344.405 1205.21 341.784C1205.28 339.162 1204.45 337.142 1204.56 337.106C1204.6 337.094 1204.86 337.563 1205.11 338.405C1205.37 339.234 1205.59 340.449 1205.56 341.784C1205.52 343.13 1205.26 344.321 1204.97 345.15C1204.69 345.98 1204.4 346.437 1204.37 346.425Z" fill="#455A64"/>
<path d="M1206.44 343.251C1206.39 343.215 1206.71 342.902 1206.94 342.253C1207.17 341.615 1207.26 340.653 1207.16 339.607C1207 337.479 1206.41 335.832 1206.51 335.808C1206.59 335.771 1207.34 337.395 1207.51 339.583C1207.6 340.665 1207.48 341.687 1207.17 342.361C1206.86 343.022 1206.46 343.287 1206.44 343.251Z" fill="#455A64"/>
<path d="M1208.65 341.435C1208.54 341.387 1209.51 339.776 1209.6 337.527C1209.71 335.278 1208.88 333.583 1208.99 333.547C1209.02 333.523 1209.29 333.92 1209.54 334.629C1209.79 335.339 1210.01 336.385 1209.96 337.539C1209.91 338.693 1209.61 339.715 1209.3 340.401C1208.97 341.086 1208.69 341.459 1208.65 341.435Z" fill="#455A64"/>
<path d="M1172.08 354.866C1172.08 354.902 1171.48 354.746 1170.83 354.072C1170.17 353.399 1169.59 352.221 1169.27 350.862C1168.92 349.503 1168.9 348.217 1168.97 347.303C1169.05 346.389 1169.21 345.848 1169.26 345.848C1169.37 345.848 1168.93 348.108 1169.61 350.766C1169.93 352.088 1170.45 353.219 1171.01 353.892C1171.58 354.577 1172.11 354.806 1172.08 354.866Z" fill="#455A64"/>
<path d="M1174 354.385C1173.97 354.421 1173.55 354.205 1172.99 353.676C1172.42 353.159 1171.76 352.293 1171.33 351.187C1170.89 350.08 1170.8 348.998 1170.85 348.241C1170.91 347.471 1171.06 347.026 1171.1 347.038C1171.16 347.05 1171.09 347.507 1171.09 348.253C1171.1 348.998 1171.23 350.02 1171.64 351.066C1172.06 352.112 1172.65 352.954 1173.14 353.507C1173.66 354.048 1174.03 354.337 1174 354.385Z" fill="#455A64"/>
<path d="M1170.65 299.29C1170.65 299.29 1173.68 294.588 1179.53 292.857C1190.39 289.634 1205.64 288.408 1221.74 304.28L1224.09 305.338C1224.09 305.338 1224.57 299.927 1223.75 295.923C1223.2 293.253 1218.33 277.67 1200.92 276.035C1200.93 276.047 1174.32 271.706 1170.65 299.29Z" fill="#3F9E97"/>
<g opacity="0.3">
<g opacity="0.3">
<g opacity="0.3">
<g opacity="0.3">
<g opacity="0.3">
<g opacity="0.3">
<g opacity="0.3">
<g opacity="0.3">
<path opacity="0.3" d="M1170.65 299.29C1170.65 299.29 1173.68 294.588 1179.53 292.857C1190.39 289.634 1205.64 288.408 1221.74 304.28L1224.09 305.338C1224.09 305.338 1224.57 299.927 1223.75 295.923C1223.2 293.253 1218.33 277.67 1200.92 276.035C1200.93 276.047 1174.32 271.706 1170.65 299.29Z" fill="#3F9E97"/>
</g>
</g>
</g>
</g>
</g>
</g>
</g>
</g>
<path d="M1221.75 304.28C1215.13 297.041 1206.63 292.881 1197.68 289.562C1188.74 286.243 1174.63 284.043 1165.11 283.514C1162.25 283.357 1159.29 283.309 1156.63 284.355C1153.96 285.402 1151.64 287.794 1151.51 290.656C1151.36 294.239 1158.47 298.244 1161.74 299.723C1165 301.202 1171.68 303.799 1171.68 303.799C1171.68 303.799 1173.46 295.658 1179.89 293.362C1193.24 288.576 1222.24 304.556 1221.75 304.28Z" fill="#3F9E97"/>
<path d="M1169.84 294.023C1170.62 291.847 1173.08 290.428 1175.36 290.825C1174.81 290.187 1174.9 289.165 1175.4 288.492C1175.9 287.819 1176.71 287.434 1177.53 287.253C1180.41 286.604 1183.63 288.275 1184.75 291.005C1186.09 289.682 1188.05 288.913 1190.58 289.418C1193.08 289.911 1194.57 292.063 1194.57 293.59C1194.56 295.298 1193.7 296.296 1192.23 297.173C1190.75 298.039 1188.44 297.426 1186.93 296.596C1186.33 298.232 1184.9 299.542 1183.22 299.987C1181.54 300.432 1179.65 300.011 1178.31 298.893C1176.83 300.673 1174.04 301.166 1172.04 300.023C1170.04 298.857 1169.05 296.187 1169.84 294.023Z" fill="#263238"/>
<path d="M1160.65 728.978L1161.66 755.6C1161.66 755.6 1134.93 765.568 1134.64 770.498L1186.33 770.402L1186.46 728.858L1160.65 728.978Z" fill="#455A64"/>
<path d="M1177.63 753.327C1178.63 753.604 1179.33 754.722 1179.1 755.732C1178.87 756.742 1177.73 757.464 1176.73 757.199C1175.72 756.947 1174.85 755.624 1175.19 754.638C1175.53 753.664 1176.91 752.894 1177.82 753.375" fill="#E0E0E0"/>
<path d="M1186.33 770.414L1186.18 766.23L1136.68 767.889C1136.68 767.889 1134.38 768.899 1134.65 770.51L1186.33 770.414Z" fill="#263238"/>
<path d="M1160.82 755.335C1160.83 755.588 1162.09 755.696 1163.33 756.514C1164.59 757.295 1165.24 758.378 1165.47 758.281C1165.7 758.233 1165.33 756.718 1163.8 755.768C1162.28 754.806 1160.76 755.107 1160.82 755.335Z" fill="white"/>
<path d="M1155.4 757.596C1155.34 757.836 1156.43 758.269 1157.3 759.339C1158.19 760.386 1158.4 761.54 1158.66 761.528C1158.9 761.564 1159.06 760.085 1157.97 758.786C1156.89 757.452 1155.41 757.355 1155.4 757.596Z" fill="white"/>
<path d="M1152.33 764.089C1152.56 764.137 1152.91 762.875 1152.26 761.504C1151.62 760.121 1150.43 759.58 1150.32 759.784C1150.18 759.989 1150.95 760.734 1151.46 761.877C1152 762.995 1152.08 764.065 1152.33 764.089Z" fill="white"/>
<path d="M1161.26 749.251C1161.37 749.479 1162.52 749.131 1163.95 749.227C1165.39 749.287 1166.49 749.768 1166.62 749.551C1166.77 749.371 1165.69 748.433 1164 748.349C1162.32 748.241 1161.13 749.046 1161.26 749.251Z" fill="white"/>
<path d="M1222.67 730.625L1224.1 762.827L1217.89 788.631C1217.45 790.495 1218.66 792.334 1220.55 792.659C1221.61 792.839 1222.68 792.503 1223.44 791.745C1228.26 786.923 1245.41 768.851 1245.48 767.131C1245.6 764.402 1246.39 732.67 1246.39 732.67L1222.67 730.625Z" fill="#455A64"/>
<path d="M1220.55 792.659L1245.6 764.558L1245.62 765.929C1245.54 767.324 1245.26 768.262 1244.52 769.175C1242.52 771.628 1236.87 778.266 1223.53 791.745C1222.75 792.527 1221.63 792.863 1220.55 792.659Z" fill="#263238"/>
<g opacity="0.6">
<g opacity="0.6">
<g opacity="0.6">
<g opacity="0.6">
<g opacity="0.6">
<g opacity="0.6">
<g opacity="0.6">
<g opacity="0.6">
<g opacity="0.6">
<g opacity="0.6">
<g opacity="0.6">
<g opacity="0.6">
<path opacity="0.6" d="M1238.76 754.313C1237.96 754.89 1237.72 756.117 1238.26 756.934C1238.81 757.752 1240.06 758.005 1240.86 757.439C1241.67 756.874 1241.99 755.419 1241.37 754.662C1240.74 753.904 1239.26 753.688 1238.61 754.433" fill="white"/>
</g>
</g>
</g>
</g>
</g>
</g>
</g>
</g>
</g>
</g>
</g>
</g>
<path d="M1227.61 778.41C1227.43 778.506 1226.68 776.835 1224.73 775.969C1222.82 775.043 1221.05 775.536 1221 775.344C1220.98 775.26 1221.37 775.007 1222.13 774.887C1222.88 774.755 1223.97 774.839 1225.03 775.332C1226.09 775.825 1226.86 776.606 1227.24 777.268C1227.64 777.917 1227.7 778.386 1227.61 778.41Z" fill="white"/>
<path d="M1225.41 782.775C1225.27 782.919 1224.21 781.897 1222.52 781.452C1220.85 780.971 1219.42 781.32 1219.37 781.115C1219.28 780.947 1220.82 780.238 1222.72 780.767C1224.62 781.284 1225.58 782.691 1225.41 782.775Z" fill="white"/>
<path d="M1231.76 772.795C1231.62 772.951 1229.99 771.364 1227.44 770.45C1224.91 769.5 1222.65 769.656 1222.63 769.44C1222.57 769.271 1224.97 768.766 1227.69 769.789C1230.43 770.775 1231.92 772.698 1231.76 772.795Z" fill="white"/>
<path d="M1232.14 762.959C1232.06 763.152 1230.27 762.454 1227.95 762.418C1225.63 762.358 1223.8 762.983 1223.73 762.779C1223.63 762.622 1225.47 761.636 1227.96 761.709C1230.46 761.757 1232.24 762.815 1232.14 762.959Z" fill="white"/>
<path d="M1231.96 753.496C1231.87 753.688 1230.05 752.654 1227.61 752.811C1225.16 752.919 1223.47 754.157 1223.37 753.977C1223.31 753.917 1223.65 753.496 1224.39 753.051C1225.12 752.606 1226.26 752.173 1227.57 752.101C1228.9 752.029 1230.08 752.33 1230.85 752.69C1231.63 753.063 1232.01 753.424 1231.96 753.496Z" fill="white"/>
<path d="M1227.62 751.019C1227.59 751.019 1227.5 750.586 1227.55 749.804C1227.61 749.023 1227.8 747.868 1228.45 746.594C1228.79 745.993 1229.14 745.211 1230.03 744.766C1230.47 744.538 1231.13 744.61 1231.53 745.031C1231.92 745.439 1232.05 745.968 1232.07 746.474C1232.08 748.518 1230.37 750.538 1228.08 750.874C1225.77 751.175 1223.66 749.9 1222.71 748.157C1222.5 747.7 1222.35 747.147 1222.59 746.594C1222.81 746.041 1223.48 745.812 1223.93 745.872C1224.89 745.993 1225.51 746.534 1226.08 746.93C1227.21 747.796 1227.92 748.722 1228.33 749.383C1228.75 750.057 1228.89 750.466 1228.85 750.49C1228.74 750.574 1228 748.926 1225.78 747.339C1225.23 746.979 1224.58 746.51 1223.88 746.461C1223.55 746.437 1223.26 746.57 1223.15 746.846C1223.03 747.111 1223.11 747.508 1223.3 747.868C1224.1 749.299 1226.04 750.454 1227.98 750.165C1229.92 749.9 1231.42 748.121 1231.44 746.474C1231.44 746.077 1231.32 745.68 1231.1 745.451C1230.88 745.223 1230.57 745.163 1230.27 745.295C1229.64 745.56 1229.25 746.245 1228.91 746.822C1227.59 749.215 1227.77 751.043 1227.62 751.019Z" fill="white"/>
<path d="M1144.74 506.264C1144.74 506.264 1140.18 521.258 1140.82 539.788C1141.07 546.954 1156.8 745.716 1156.8 745.716L1189.36 747.099L1188.08 560.866L1190.73 561.564C1190.73 561.564 1205.15 641.586 1206.05 654.476C1206.87 666.067 1218.3 750.502 1218.3 750.502L1247.95 749.684L1243.25 640.852L1236.7 534.028L1233.85 502.897L1144.74 506.264Z" fill="#263238"/>
<path d="M1194.04 542.133C1194.06 542.181 1193.58 542.433 1192.65 542.842C1191.72 543.227 1190.38 543.828 1188.56 544.08C1187.66 544.201 1186.63 544.213 1185.56 543.972C1184.5 543.732 1183.37 543.239 1182.48 542.337C1181.59 541.435 1181.05 540.197 1180.72 538.934C1180.4 537.647 1180.23 536.325 1180.01 534.978C1179.21 529.567 1178.7 524.637 1178.45 521.066C1178.32 519.274 1178.24 517.831 1178.21 516.833C1178.17 515.835 1178.18 515.282 1178.23 515.27C1178.28 515.27 1178.36 515.811 1178.47 516.809C1178.59 517.952 1178.75 519.359 1178.93 521.018C1179.31 524.577 1179.88 529.471 1180.7 534.87C1181.11 537.539 1181.36 540.245 1182.93 541.892C1184.52 543.515 1186.81 543.768 1188.49 543.599C1190.23 543.419 1191.6 542.902 1192.54 542.589C1193.49 542.253 1194.02 542.084 1194.04 542.133Z" fill="#455A64"/>
<path d="M1185.3 516.509C1185.29 516.473 1185.51 516.352 1185.97 516.34C1186.43 516.328 1187.11 516.497 1187.76 517.002C1188.39 517.507 1189.05 518.397 1189.03 519.575C1189.03 520.765 1188.05 521.896 1186.82 522.28C1185.61 522.701 1184.14 522.365 1183.45 521.403C1182.74 520.465 1182.74 519.359 1182.94 518.577C1183.17 517.771 1183.63 517.242 1184 516.978C1184.37 516.713 1184.64 516.689 1184.65 516.713C1184.73 516.809 1183.71 517.218 1183.42 518.685C1183.29 519.371 1183.36 520.308 1183.94 520.994C1184.49 521.703 1185.6 521.956 1186.61 521.619C1187.62 521.294 1188.36 520.441 1188.39 519.539C1188.45 518.637 1187.96 517.843 1187.44 517.362C1186.36 516.364 1185.29 516.629 1185.3 516.509Z" fill="#455A64"/>
<path d="M1236.34 532.104C1236.34 532.152 1235.95 532.188 1235.22 532.225C1234.5 532.273 1233.46 532.249 1232.17 532.128C1229.6 531.9 1226.05 531.13 1222.47 529.435C1218.88 527.739 1216.02 525.491 1214.22 523.651C1213.3 522.725 1212.62 521.944 1212.2 521.355C1211.77 520.777 1211.55 520.441 1211.58 520.417C1211.68 520.345 1212.68 521.583 1214.55 523.302C1216.42 525.022 1219.26 527.162 1222.76 528.822C1226.27 530.469 1229.71 531.311 1232.23 531.647C1234.74 531.996 1236.34 531.972 1236.34 532.104Z" fill="#455A64"/>
<path d="M1157.72 515.932C1157.79 515.968 1157.18 517.266 1155.89 519.178C1154.6 521.09 1152.57 523.591 1149.95 525.948C1147.32 528.305 1144.6 530.036 1142.55 531.094C1140.51 532.164 1139.15 532.621 1139.12 532.549C1139.07 532.453 1140.35 531.828 1142.31 530.673C1144.27 529.519 1146.9 527.751 1149.49 525.443C1152.08 523.122 1154.13 520.729 1155.5 518.902C1156.86 517.086 1157.62 515.883 1157.72 515.932Z" fill="#455A64"/>
<path d="M995.218 300.504C998.224 300.781 1001.24 298.508 1001.82 295.55C1002.4 292.592 1000.44 289.358 997.551 288.492C999.366 286.544 999.763 283.406 998.489 281.061C997.214 278.716 994.352 277.357 991.731 277.826C991.563 275.193 989.939 272.704 987.595 271.502C985.25 270.299 982.28 270.419 980.043 271.814C977.085 269.385 972.396 269.397 969.438 271.838C966.877 271.429 964.111 272.848 962.969 275.181C961.826 277.514 962.38 280.568 964.267 282.347" fill="#263238"/>
<path d="M996.132 301.346C994.75 287.807 983.206 277.61 969.607 277.911L968.26 277.935C953.711 279.101 946.568 292.111 948.131 306.625L949.442 358.582L974.465 385.612L985.022 368.333L984.902 351.09C984.902 351.09 998.862 348.613 998.73 334.605C998.682 327.847 997.419 313.923 996.132 301.346Z" fill="#AE7461"/>
<path d="M985.034 351.078C985.034 351.078 976.1 351.812 966.564 346.1C966.564 346.1 970.881 356.357 984.829 354.794L985.034 351.078Z" fill="#6F4439"/>
<path d="M992.729 314.152C992.79 315.21 991.948 316.124 990.842 316.208C989.747 316.292 988.798 315.51 988.737 314.452C988.677 313.394 989.519 312.48 990.625 312.396C991.731 312.312 992.669 313.106 992.729 314.152Z" fill="#263238"/>
<path d="M993.27 308.26C993.029 308.524 991.49 307.442 989.338 307.49C987.186 307.514 985.634 308.657 985.394 308.392C985.274 308.272 985.514 307.803 986.2 307.286C986.861 306.769 988.015 306.264 989.35 306.24C990.685 306.216 991.827 306.685 992.488 307.178C993.15 307.671 993.39 308.14 993.27 308.26Z" fill="#263238"/>
<path d="M973.142 314.981C973.202 316.04 972.36 316.953 971.254 317.038C970.16 317.122 969.21 316.34 969.15 315.282C969.089 314.224 969.931 313.31 971.037 313.226C972.144 313.13 973.081 313.923 973.142 314.981Z" fill="#263238"/>
<path d="M972.132 309.114C971.892 309.378 970.353 308.296 968.2 308.344C966.048 308.368 964.497 309.51 964.256 309.246C964.136 309.138 964.376 308.657 965.062 308.14C965.723 307.623 966.878 307.118 968.212 307.094C969.547 307.069 970.689 307.538 971.351 308.031C972.012 308.524 972.24 308.993 972.132 309.114Z" fill="#263238"/>
<path d="M980.284 324.901C980.272 324.781 981.607 324.517 983.771 324.192C984.324 324.12 984.841 324 984.926 323.627C985.046 323.23 984.805 322.641 984.529 322.004C983.988 320.681 983.411 319.298 982.809 317.855C980.429 311.951 978.685 307.081 978.925 306.985C979.166 306.889 981.294 311.603 983.675 317.519C984.252 318.974 984.805 320.368 985.322 321.691C985.539 322.316 985.912 323.014 985.659 323.843C985.515 324.252 985.118 324.565 984.769 324.661C984.421 324.781 984.108 324.793 983.843 324.805C981.643 324.986 980.284 325.022 980.284 324.901Z" fill="#263238"/>
<path d="M972.625 301.779C972.348 302.332 970.496 301.779 968.224 301.755C965.951 301.683 964.051 302.152 963.823 301.586C963.727 301.322 964.123 300.817 964.929 300.36C965.735 299.903 966.961 299.542 968.32 299.566C969.679 299.602 970.869 300.011 971.627 300.504C972.396 300.997 972.745 301.514 972.625 301.779Z" fill="#263238"/>
<path d="M993.367 300.636C992.922 301.129 991.142 300.661 989.002 300.685C986.862 300.648 985.07 301.093 984.637 300.6C984.445 300.36 984.721 299.855 985.503 299.386C986.272 298.905 987.571 298.508 989.038 298.508C990.505 298.52 991.791 298.929 992.537 299.41C993.307 299.891 993.559 300.396 993.367 300.636Z" fill="#263238"/>
<path d="M950.68 320.2C950.548 318.036 948.648 316.376 946.496 316.629C943.887 316.929 941.013 318.481 941.301 323.867C941.818 333.439 951.318 330.95 951.318 330.673C951.318 330.493 950.921 324.204 950.68 320.2Z" fill="#AE7461"/>
<path d="M949.045 327.186C948.997 327.162 948.889 327.306 948.613 327.451C948.348 327.595 947.879 327.703 947.374 327.547C946.34 327.234 945.402 325.671 945.27 323.952C945.198 323.086 945.342 322.244 945.606 321.547C945.859 320.825 946.292 320.32 946.797 320.2C947.302 320.056 947.675 320.344 947.807 320.609C947.951 320.873 947.903 321.066 947.951 321.078C947.975 321.102 948.144 320.909 948.047 320.513C947.999 320.32 947.879 320.104 947.639 319.935C947.398 319.755 947.061 319.683 946.701 319.743C945.967 319.839 945.342 320.549 945.041 321.318C944.705 322.1 944.524 323.038 944.608 324.012C944.777 325.936 945.859 327.691 947.266 328.016C947.951 328.16 948.504 327.92 948.781 327.679C949.033 327.415 949.069 327.198 949.045 327.186Z" fill="#6F4439"/>
<path d="M987.75 281.602C987.654 281.361 987.546 281.133 987.402 280.929C986.344 279.341 984.468 278.404 982.58 278.319C981.426 277.754 980.271 277.309 979.189 276.985C977.794 274.748 975.365 273.149 972.72 272.932C969.726 272.68 966.684 274.207 965.012 276.696C964.616 276.756 964.231 276.84 963.834 276.913C961.838 275.53 959.229 275.025 956.872 275.614C954.227 276.275 951.954 278.295 950.98 280.856C948.635 280.291 946.002 281.253 944.571 283.189C943.14 285.125 942.984 287.927 944.21 290.007C942.515 291.029 941.072 292.773 941.084 294.757C941.096 296.62 942.84 298.412 944.631 298.159C944.391 302.753 945.004 308.152 945.341 312.901C945.581 316.256 949.898 318.156 950.235 320.416C951.978 331.996 955.633 325.503 956.571 301.418C956.812 301.226 957.052 301.021 957.293 300.793C957.786 300.324 957.894 299.747 958.315 299.23C958.82 298.604 959.794 298.773 960.6 298.845C963.389 299.085 966.203 297.053 966.852 294.324C967.586 295.37 969.245 295.286 970.303 294.576C971.361 293.855 972.035 292.712 972.852 291.726C973.67 290.74 974.836 289.863 976.099 290.007C976.808 290.091 977.482 290.5 978.191 290.416C979.442 290.272 980.031 288.793 980.187 287.542C980.319 286.484 980.44 285.293 981.089 284.524C981.846 284.151 982.64 283.863 983.506 283.778C983.987 283.826 984.468 283.911 984.937 283.971C985.153 283.995 985.382 284.007 985.61 283.995C985.899 284.079 986.187 284.187 986.488 284.331C990.756 286.291 994.64 294.973 994.64 294.973C994.821 289.382 991.706 284.824 987.75 281.602Z" fill="#263238"/>
<path d="M942.973 290.512C942.961 290.512 942.997 290.464 943.057 290.368C943.117 290.284 943.213 290.139 943.358 289.983C943.646 289.67 944.115 289.237 944.825 288.865C945.534 288.504 946.508 288.179 947.65 288.191C948.781 288.179 950.115 288.516 951.234 289.442L950.981 289.526C951.366 287.638 952.797 285.762 954.841 284.644C955.863 284.079 957.017 283.682 958.256 283.526C959.494 283.37 960.769 283.454 962.044 283.718C964.521 284.235 966.685 285.39 968.525 286.592L968.248 286.688C969.078 284.5 970.749 282.901 972.469 282.071C974.212 281.217 975.992 281.145 977.363 281.373C978.757 281.602 979.767 282.119 980.405 282.528C980.729 282.732 980.958 282.913 981.102 283.033C981.246 283.165 981.331 283.237 981.319 283.237C981.294 283.261 980.982 282.997 980.333 282.624C979.683 282.263 978.673 281.794 977.314 281.602C975.968 281.41 974.26 281.518 972.589 282.359C970.942 283.177 969.354 284.728 968.573 286.821L968.489 287.037L968.296 286.905C966.481 285.726 964.34 284.608 961.947 284.103C960.721 283.851 959.47 283.766 958.292 283.911C957.114 284.055 955.995 284.44 955.009 284.969C953.037 286.027 951.679 287.807 951.282 289.586L951.222 289.839L951.017 289.67C949.983 288.792 948.721 288.444 947.638 288.432C946.544 288.396 945.606 288.684 944.897 289.009C943.49 289.73 943.021 290.572 942.973 290.512Z" fill="#455A64"/>
<path d="M981.174 283.887C981.186 283.899 981.126 284.019 981.018 284.259C980.922 284.512 980.789 284.873 980.681 285.378C980.561 285.871 980.465 286.496 980.308 287.217C980.14 287.927 980.008 288.792 979.419 289.598C979.118 289.983 978.625 290.284 978.084 290.344C977.543 290.416 977.002 290.332 976.461 290.271C975.919 290.223 975.342 290.199 974.837 290.428C974.332 290.656 973.875 291.077 973.467 291.534C973.058 292.003 972.661 292.52 972.252 293.049C971.855 293.566 971.47 294.179 970.845 294.612C970.244 295.033 969.511 295.274 968.765 295.358C968.392 295.394 967.995 295.394 967.611 295.31C967.226 295.225 966.817 295.009 966.577 294.636L966.925 294.576C966.805 295.129 966.613 295.694 966.324 296.199C966.023 296.704 965.639 297.173 965.194 297.582C964.268 298.364 963.102 298.881 961.875 299.061C961.37 299.145 960.853 299.157 960.348 299.145C959.819 299.109 959.374 299.013 958.953 299.181C958.52 299.326 958.208 299.614 957.943 300.011C957.655 300.408 957.33 300.769 956.993 301.105C955.647 302.452 953.927 303.462 952.111 303.522C950.308 303.522 948.721 302.717 947.578 301.695C946.424 300.648 945.702 299.35 945.402 298.099L945.57 298.195C944.356 298.484 943.201 298.099 942.444 297.51C941.662 296.921 941.302 296.115 941.145 295.466C941.001 294.805 941.049 294.288 941.121 293.939C941.157 293.771 941.193 293.638 941.229 293.554C941.265 293.47 941.277 293.434 941.289 293.434C941.35 293.434 940.977 294.155 941.289 295.418C941.446 296.031 941.819 296.789 942.564 297.318C943.286 297.859 944.38 298.183 945.498 297.907L945.63 297.871L945.666 298.003C945.967 299.194 946.676 300.444 947.795 301.43C948.901 302.404 950.44 303.15 952.099 303.137C953.771 303.077 955.418 302.115 956.717 300.817C957.041 300.492 957.354 300.131 957.631 299.759C957.883 299.362 958.316 298.941 958.833 298.785C959.085 298.701 959.362 298.664 959.627 298.676L960.36 298.737C960.841 298.749 961.334 298.737 961.815 298.652C962.981 298.484 964.088 297.991 964.941 297.27C965.362 296.897 965.723 296.464 965.999 295.995C966.276 295.514 966.444 295.009 966.565 294.48L966.673 294.035L966.925 294.42C967.286 294.961 968.092 295.045 968.765 294.973C969.462 294.901 970.136 294.684 970.677 294.3C971.23 293.927 971.591 293.35 972.012 292.821C972.432 292.304 972.817 291.775 973.25 291.306C973.683 290.837 974.152 290.392 974.741 290.127C975.342 289.875 975.968 289.911 976.521 289.971C977.074 290.031 977.603 290.127 978.084 290.067C978.565 290.019 978.986 289.778 979.262 289.43C979.803 288.72 979.972 287.867 980.152 287.169C980.32 286.46 980.441 285.835 980.573 285.342C980.705 284.849 980.861 284.476 980.982 284.235C981.09 283.995 981.174 283.875 981.174 283.887Z" fill="#455A64"/>
<path d="M973.647 328.809C972.841 331.274 973.527 333.944 975.787 335.23C976.569 335.675 977.567 335.783 978.433 335.519C979.491 335.206 980.453 334.641 980.874 333.547C981.271 332.513 981.595 331.443 981.475 330.348C979.286 329.856 975.836 329.302 973.647 328.809Z" fill="#6F4439"/>
<path d="M980.549 334.196C980.561 334.208 980.404 334.449 979.984 334.773C979.563 335.074 978.865 335.459 977.927 335.531C976.99 335.627 975.811 335.363 974.825 334.557C973.839 333.775 973.118 332.465 973.034 331.022C972.973 330.288 973.07 329.567 973.25 328.906L973.298 328.737L973.466 328.773C975.715 329.206 977.687 329.615 979.082 329.916C980.489 330.216 981.318 330.421 981.306 330.469C981.294 330.517 980.44 330.397 979.034 330.168C977.615 329.928 975.643 329.579 973.394 329.158L973.611 329.026C973.442 329.651 973.358 330.324 973.418 331.01C973.502 332.357 974.152 333.559 975.054 334.292C975.943 335.05 977.026 335.327 977.903 335.266C978.793 335.218 979.467 334.906 979.899 334.653C980.32 334.377 980.513 334.172 980.549 334.196Z" fill="#263238"/>
<path d="M969.199 722.052L967.852 752.762C967.852 752.762 998.61 764.438 998.923 770.137L939.282 769.668L939.414 721.74L969.199 722.052Z" fill="#455A64"/>
<path d="M949.438 750.033C948.283 750.345 947.478 751.632 947.73 752.798C947.995 753.965 949.293 754.794 950.46 754.518C951.626 754.229 952.636 752.714 952.251 751.584C951.866 750.454 950.279 749.564 949.221 750.117" fill="#E0E0E0"/>
<g opacity="0.6">
<g opacity="0.6">
<g opacity="0.6">
<g opacity="0.6">
<g opacity="0.6">
<g opacity="0.6">
<g opacity="0.6">
<g opacity="0.6">
<g opacity="0.6">
<g opacity="0.6">
<g opacity="0.6">
<path opacity="0.6" d="M939.292 769.668L939.496 764.835L996.6 767.083C996.6 767.083 999.245 768.262 998.933 770.125L939.292 769.668Z" fill="white"/>
</g>
</g>
</g>
</g>
</g>
</g>
</g>
</g>
</g>
</g>
</g>
<path d="M968.826 752.462C968.814 752.75 967.359 752.87 965.917 753.796C964.45 754.686 963.704 755.937 963.44 755.816C963.175 755.756 963.62 754.025 965.387 752.931C967.131 751.836 968.899 752.197 968.826 752.462Z" fill="#263238"/>
<path d="M975.069 755.095C975.13 755.384 973.867 755.865 972.869 757.091C971.835 758.281 971.57 759.616 971.282 759.604C971.005 759.652 970.825 757.945 972.087 756.442C973.35 754.927 975.057 754.818 975.069 755.095Z" fill="#263238"/>
<path d="M978.549 762.61C978.285 762.67 977.888 761.215 978.645 759.628C979.391 758.029 980.774 757.415 980.894 757.656C981.062 757.896 980.16 758.75 979.559 760.061C978.934 761.359 978.838 762.586 978.549 762.61Z" fill="#263238"/>
<path d="M968.353 745.427C968.232 745.692 966.898 745.283 965.25 745.379C963.603 745.439 962.317 745.993 962.172 745.74C962.004 745.524 963.266 744.466 965.202 744.369C967.138 744.261 968.497 745.199 968.353 745.427Z" fill="#263238"/>
<path d="M969.111 745.079C969.255 745.079 969.28 747.928 969.195 752.474L968.955 752.113C972.442 753.436 977.071 755.215 981.989 757.536C987.376 760.061 992.126 762.682 995.204 765.147C996.743 766.362 997.885 767.516 998.475 768.478C999.1 769.44 999.016 770.161 998.919 770.137C998.871 770.125 998.835 769.536 998.162 768.706C997.513 767.865 996.346 766.831 994.783 765.724C991.669 763.464 986.919 760.963 981.568 758.45C976.686 756.141 972.093 754.277 968.678 752.822L968.426 752.714L968.438 752.462C968.726 747.904 968.967 745.079 969.111 745.079Z" fill="#263238"/>
<path d="M930.629 507.911V535.748L941.607 624.619C941.607 624.619 938.132 666.295 935.992 689.827C934.14 710.256 937.17 745.836 937.17 745.836H969.72L981.359 627.168L988.586 553.159L1001.69 509.318L930.629 507.911Z" fill="#263238"/>
<path d="M988.335 716.725L979.81 746.257C979.81 746.257 1006.96 764.835 1005.91 770.45L948.065 755.973L959.464 709.415L988.335 716.725Z" fill="#455A64"/>
<path d="M962.544 739.271C961.342 739.295 960.26 740.365 960.236 741.556C960.212 742.746 961.282 743.864 962.484 743.864C963.675 743.864 965.021 742.626 964.913 741.423C964.805 740.233 963.47 738.994 962.304 739.283" fill="#E0E0E0"/>
<g opacity="0.6">
<g opacity="0.6">
<g opacity="0.6">
<g opacity="0.6">
<g opacity="0.6">
<g opacity="0.6">
<g opacity="0.6">
<g opacity="0.6">
<g opacity="0.6">
<g opacity="0.6">
<g opacity="0.6">
<path opacity="0.6" d="M948.065 755.973L949.4 751.319L1004.38 766.939C1004.38 766.939 1006.67 768.707 1005.93 770.45L948.065 755.973Z" fill="white"/>
</g>
</g>
</g>
</g>
</g>
</g>
</g>
</g>
</g>
</g>
</g>
<path d="M980.833 746.197C980.749 746.474 979.306 746.257 977.695 746.81C976.059 747.327 975.037 748.373 974.809 748.193C974.556 748.073 975.41 746.486 977.382 745.848C979.33 745.187 980.953 745.945 980.833 746.197Z" fill="#263238"/>
<path d="M986.253 750.225C986.253 750.514 984.906 750.694 983.643 751.644C982.357 752.558 981.792 753.796 981.515 753.712C981.238 753.688 981.455 751.981 983.042 750.826C984.629 749.648 986.313 749.949 986.253 750.225Z" fill="#263238"/>
<path d="M987.899 758.342C987.623 758.342 987.587 756.827 988.705 755.468C989.811 754.097 991.29 753.82 991.35 754.085C991.446 754.362 990.388 754.975 989.486 756.105C988.561 757.223 988.188 758.39 987.899 758.342Z" fill="#263238"/>
<path d="M982.011 739.247C981.83 739.475 980.628 738.766 979.005 738.465C977.381 738.141 976.011 738.369 975.927 738.093C975.818 737.852 977.285 737.107 979.197 737.479C981.109 737.828 982.215 739.067 982.011 739.247Z" fill="#263238"/>
<path d="M1014.28 509.811L1015.77 524.95L1013.96 634.864L988.207 723.158L981.966 744.574L948.719 738.309L974.343 509.847L1014.28 509.811Z" fill="#263238"/>
<path d="M1013.28 637.161C1013.28 637.161 1013.24 637.341 1013.16 637.678C1013.06 638.038 1012.92 638.543 1012.74 639.205C1012.35 640.563 1011.79 642.547 1011.07 645.121C1009.57 650.303 1007.41 657.83 1004.68 667.318C999.174 686.328 991.382 713.178 982.256 744.646L982.183 744.898L981.919 744.85C971.41 742.878 960.239 740.774 948.672 738.61L948.371 738.55L948.431 738.249C950.127 729.291 951.906 719.924 953.71 710.377C959.085 682.107 964.147 655.438 968.572 632.134V632.231C963.065 597.661 958.676 570.101 956.151 554.277L956.163 554.313C953.746 549.912 951.882 546.521 950.608 544.213C949.994 543.07 949.513 542.205 949.189 541.603C948.876 541.014 948.732 540.702 948.732 540.702C948.732 540.702 948.912 540.99 949.249 541.567C949.586 542.169 950.079 543.022 950.728 544.153C952.026 546.449 953.926 549.828 956.391 554.193L956.403 554.217V554.241C958.989 570.053 963.486 597.601 969.113 632.146L969.125 632.195L969.113 632.243C964.712 655.546 959.662 682.216 954.323 710.497C952.507 720.044 950.74 729.399 949.032 738.357L948.792 737.996C960.359 740.185 971.53 742.289 982.039 744.273L981.702 744.478C990.913 713.046 998.777 686.208 1004.34 667.209C1007.15 657.734 1009.36 650.231 1010.89 645.061C1011.65 642.499 1012.24 640.527 1012.65 639.169C1012.86 638.519 1013.01 638.014 1013.12 637.654C1013.21 637.341 1013.28 637.161 1013.28 637.161Z" fill="#455A64"/>
<path d="M1008.3 518.829C1008.36 518.866 1007.77 519.96 1006.48 521.487C1005.21 523.014 1003.19 524.938 1000.58 526.525C997.97 528.112 995.337 529.038 993.389 529.459C991.441 529.892 990.203 529.916 990.203 529.844C990.143 529.639 995.133 529.146 1000.26 525.984C1005.43 522.894 1008.14 518.673 1008.3 518.829Z" fill="#455A64"/>
<path d="M913.994 431.545C913.994 431.545 910.123 456.435 912.72 466.283C915.317 476.131 936.396 501.021 936.396 501.021L965.158 482.997L946.208 435.934L913.994 431.545Z" fill="#AE7461"/>
<path d="M940.604 369.776C940.604 369.776 957.125 370.017 957.366 390.602C957.606 411.188 953.157 438.724 953.157 438.724L911 431.293C911 431.293 916.231 392.971 920.692 381.933C925.189 370.822 933.774 367.9 940.604 369.776Z" fill="#EFB7B7"/>
<path d="M948.444 354.95L947.915 358.305C947.915 358.305 925.382 373.191 924.107 377.039C922.135 383.003 926.44 433.325 928.34 447.585C930.239 461.846 930.624 493.29 930.624 493.29C929.241 496.993 927.666 500.336 927.149 505.495C926.632 510.617 930.624 515.294 930.624 515.294C954.805 523.182 984.337 517.122 1016.29 509.847L1015.98 500.793L1005.54 402.398C1005.54 402.398 1008.58 376.822 996.109 369.427C994.738 368.61 983.856 362.429 983.856 362.429L948.444 354.95Z" fill="#EFB7B7"/>
<path opacity="0.3" d="M984.673 397.6C984.673 397.6 984.481 411.765 992.092 427.95C999.716 444.134 1011.04 454.247 1011.04 454.247L1007.66 424.811L984.673 397.6Z" fill="#EFB7B7"/>
<path d="M1003.6 372.77C999.643 369.572 992.297 367.84 988.112 370.714C986.248 371.989 984.072 373.925 983.026 376.979C979.443 387.44 981.583 398.695 984.445 407.04C987.306 415.384 1001.15 431.473 1001.15 431.473L1035.33 410.719C1035.33 410.719 1012.45 382.991 1010.07 380.129C1008.82 378.614 1005.79 374.538 1003.6 372.77Z" fill="#EFB7B7"/>
<path d="M1003.6 372.77C1003.6 372.77 1003.86 372.939 1004.32 373.347C1004.78 373.756 1005.42 374.394 1006.21 375.259C1007.8 377.003 1009.88 379.72 1012.7 383.039C1018.28 389.761 1026.18 399.26 1035.55 410.527L1035.75 410.779L1035.48 410.947C1025.81 416.827 1014.81 423.525 1003.18 430.583C1002.54 430.968 1001.9 431.365 1001.3 431.713L1001.07 431.858L1000.91 431.653C997.082 427.132 993.535 422.587 990.349 418.03C988.761 415.745 987.27 413.448 985.984 411.08C985.347 409.901 984.769 408.699 984.3 407.448C983.843 406.21 983.471 404.971 983.11 403.745C980.26 393.933 980.188 384.302 982.785 376.967C983.411 375.103 984.517 373.54 985.779 372.325C987.054 371.147 988.401 370.101 989.904 369.62C991.383 369.139 992.85 369.043 994.16 369.115C995.483 369.187 996.661 369.415 997.695 369.716C999.776 370.293 1001.27 371.123 1002.22 371.712C1003.18 372.337 1003.6 372.77 1003.6 372.77C1003.58 372.806 1003.13 372.409 1002.16 371.844C1001.18 371.291 999.704 370.51 997.635 369.969C996.613 369.692 995.435 369.476 994.148 369.427C992.862 369.379 991.443 369.476 990.024 369.969C988.605 370.425 987.306 371.46 986.068 372.626C984.854 373.816 983.795 375.331 983.206 377.123C980.693 384.362 980.801 393.873 983.663 403.601C984.024 404.815 984.397 406.054 984.854 407.256C985.31 408.458 985.876 409.637 986.513 410.803C987.775 413.136 989.266 415.42 990.854 417.681C994.028 422.226 997.587 426.759 1001.39 431.256L1000.99 431.196C1001.58 430.836 1002.22 430.451 1002.87 430.066C1014.51 423.02 1025.51 416.346 1035.2 410.478L1035.13 410.899C1025.83 399.572 1017.99 390.013 1012.45 383.267C1009.67 379.925 1007.62 377.159 1006.08 375.392C1005.32 374.502 1004.69 373.852 1004.26 373.42C1003.83 372.987 1003.59 372.782 1003.6 372.77Z" fill="#EFB7B7"/>
<path d="M923.674 388.438C923.698 388.438 923.734 388.642 923.77 389.039C923.818 389.508 923.866 390.073 923.926 390.759C924.046 392.346 924.191 394.486 924.383 397.083C924.732 402.506 925.189 409.841 925.706 417.946C926.235 426.086 926.8 433.457 927.281 438.784C927.521 441.369 927.726 443.509 927.87 445.084C927.93 445.77 927.978 446.335 928.014 446.804C928.038 447.201 928.05 447.405 928.026 447.405C928.002 447.405 927.954 447.201 927.894 446.816C927.822 446.359 927.738 445.794 927.63 445.108C927.413 443.629 927.137 441.477 926.848 438.82C926.247 433.505 925.622 426.134 925.092 417.982C924.563 409.829 924.191 402.446 923.95 397.107C923.842 394.51 923.758 392.37 923.698 390.771C923.686 390.085 923.674 389.508 923.662 389.051C923.637 388.642 923.65 388.438 923.674 388.438Z" fill="#EFB7B7"/>
<path d="M999.259 507.911C999.259 507.935 999.042 507.996 998.621 508.104C998.128 508.224 997.527 508.368 996.782 508.549C995.976 508.741 994.99 508.957 993.848 509.162C992.693 509.39 991.395 509.643 989.928 509.859C987.018 510.364 983.531 510.761 979.647 511.146C975.763 511.471 971.482 511.711 966.985 511.771C962.488 511.807 958.196 511.651 954.3 511.386C950.416 511.074 946.917 510.725 944.007 510.244C942.54 510.04 941.229 509.799 940.087 509.583C938.933 509.378 937.947 509.174 937.141 508.982C936.396 508.801 935.782 508.657 935.301 508.537C934.88 508.428 934.664 508.356 934.664 508.344C934.664 508.332 934.893 508.344 935.325 508.416C935.818 508.501 936.444 508.609 937.189 508.741C937.995 508.897 938.993 509.066 940.147 509.234C941.301 509.426 942.612 509.631 944.067 509.799C946.977 510.22 950.464 510.521 954.336 510.797C958.22 511.026 962.488 511.158 966.973 511.122C971.458 511.062 975.727 510.845 979.599 510.557C983.471 510.208 986.946 509.847 989.856 509.414C991.311 509.222 992.621 509.006 993.776 508.813C994.93 508.633 995.916 508.464 996.734 508.296C997.491 508.164 998.104 508.056 998.597 507.959C999.03 507.923 999.259 507.899 999.259 507.911Z" fill="#EFB7B7"/>
<path d="M1167.59 376.077H1153.2C1149.83 377.255 1127.89 410.815 1127.89 410.815L1150.81 436.235L1161.87 412.775L1167.59 376.077Z" fill="#BD4B4B"/>
<path d="M1153.2 376.077L1182.95 366.963C1182.95 366.963 1182.82 374.141 1193.19 374.37C1205.14 374.634 1215.18 364.125 1215.18 364.125C1215.18 364.125 1240.04 371.868 1245.26 376.077C1250.48 380.285 1233.43 468.219 1233.43 468.219L1231.87 494.408C1231.87 494.408 1234.44 498.641 1234.44 503.186C1234.44 507.731 1234.6 510.761 1234.6 510.761C1202.74 520.369 1171.12 528.701 1142.02 519.395C1142.02 519.395 1142.74 503.943 1144.42 499.735C1146.1 495.526 1145.79 495.142 1145.79 495.142L1148.57 446.792L1149.07 410.43L1153.2 376.077Z" fill="#BD4B4B"/>
<path d="M1256.26 415.18C1256.26 415.18 1259.52 466.548 1259.49 474.111C1259.47 479.714 1247.29 538.333 1247.29 538.333L1229.18 532.237L1235.54 475.265L1229.18 415.168H1256.26V415.18Z" fill="#FFBF9D"/>
<path d="M1245.51 376.029C1245.51 376.029 1253.37 381.38 1255.55 392.31C1257.74 403.252 1262.56 430.475 1262.56 430.475L1223.67 432.014C1223.67 432.014 1226.01 413.1 1226.01 411.909C1226.01 410.719 1232.59 384.674 1232.99 384.073C1233.39 383.484 1245.51 376.029 1245.51 376.029Z" fill="#BD4B4B"/>
<path d="M1149.12 389.484C1149.29 389.484 1149.38 400.667 1149.32 414.458C1149.26 428.25 1149.07 439.433 1148.9 439.433C1148.73 439.433 1148.64 428.25 1148.7 414.446C1148.76 400.667 1148.95 389.484 1149.12 389.484Z" fill="#BD4B4B"/>
<path d="M1262.55 430.487C1262.55 430.511 1262.3 430.535 1261.83 430.583C1261.29 430.619 1260.61 430.667 1259.75 430.727C1257.86 430.836 1255.26 430.98 1252.04 431.148C1245.44 431.461 1236.42 431.882 1226.34 432.351L1226.04 432.363L1226.01 432.062C1225.95 431.268 1225.89 430.415 1225.82 429.561C1225.07 418.847 1225.6 409.12 1226.38 402.146C1226.77 398.659 1227.2 395.845 1227.54 393.909C1227.71 392.947 1227.86 392.189 1227.96 391.684C1228.07 391.179 1228.13 390.915 1228.15 390.915C1228.18 390.915 1228.15 391.191 1228.08 391.696C1228 392.274 1227.9 393.019 1227.78 393.933C1227.51 395.881 1227.15 398.683 1226.82 402.17C1226.16 409.144 1225.69 418.835 1226.43 429.501C1226.49 430.355 1226.56 431.196 1226.63 431.99L1226.3 431.701C1236.39 431.305 1245.42 430.956 1252.01 430.703C1255.22 430.607 1257.83 430.523 1259.72 430.475C1260.57 430.463 1261.27 430.451 1261.81 430.439C1262.3 430.451 1262.55 430.463 1262.55 430.487Z" fill="#BD4B4B"/>
<path d="M1239.7 376.654C1239.79 376.822 1236.98 378.253 1234.25 380.935C1231.5 383.592 1230 386.37 1229.82 386.262C1229.68 386.213 1230.97 383.219 1233.8 380.478C1236.63 377.712 1239.66 376.51 1239.7 376.654Z" fill="#BD4B4B"/>
<path d="M1228.84 536.301C1228.84 536.301 1221.6 541.76 1220.01 543.912C1218.43 546.064 1214.51 553.76 1211.57 556.009C1211.57 556.009 1212.17 559.015 1215.07 557.512C1217.97 556.009 1221.47 552.75 1222.71 550.874C1223.94 548.998 1225.23 550.105 1225.3 551.74C1225.38 553.375 1223.97 564.462 1223.97 564.462C1223.97 564.462 1220.51 576.787 1221.44 578.169C1222.38 579.552 1224.31 579.228 1224.97 578.338C1225.44 577.688 1229.34 567.396 1229.34 567.396L1230.34 561.792C1230.34 561.792 1228.33 579.54 1229.45 580.923C1230.58 582.318 1231.78 581.777 1232.57 581.067C1233.35 580.358 1234.15 572.518 1234.15 572.518L1235.98 562.045L1235.66 581.993C1235.66 581.993 1235.86 583.881 1237.35 583.953C1238.83 584.025 1239.83 581.837 1239.83 581.837L1241.97 561.275C1241.97 561.275 1241.28 572.71 1242.04 573.3C1243.06 574.093 1244 573.841 1244.34 572.963C1245.02 571.183 1246.03 560.902 1246.03 560.902L1246.97 541.327L1247.98 531.9L1229.67 530.697L1228.84 536.301Z" fill="#FFBF9D"/>
<path d="M1222.18 502.885C1222.19 502.909 1221.96 503.017 1221.52 503.198C1221.01 503.402 1220.37 503.655 1219.59 503.979C1217.92 504.653 1215.46 505.543 1212.39 506.541C1209.32 507.551 1205.63 508.621 1201.48 509.655C1197.34 510.665 1192.73 511.627 1187.86 512.396C1182.99 513.154 1178.31 513.635 1174.06 513.948C1169.8 514.224 1165.95 514.344 1162.72 514.32C1159.48 514.308 1156.87 514.212 1155.07 514.08C1154.23 514.02 1153.54 513.972 1153 513.924C1152.53 513.887 1152.28 513.851 1152.28 513.827C1152.28 513.803 1152.53 513.791 1153 513.791C1153.54 513.803 1154.23 513.815 1155.08 513.827C1156.89 513.887 1159.49 513.899 1162.72 513.863C1165.94 513.839 1169.78 513.671 1174.02 513.358C1178.26 513.022 1182.92 512.505 1187.78 511.759C1192.62 510.99 1197.22 510.04 1201.35 509.066C1205.49 508.056 1209.19 507.046 1212.26 506.084C1215.34 505.134 1217.81 504.316 1219.51 503.715C1220.31 503.438 1220.96 503.222 1221.48 503.054C1221.93 502.933 1222.17 502.873 1222.18 502.885Z" fill="#BD4B4B"/>
<path d="M1225.48 420.819C1225.48 420.831 1225.42 420.867 1225.3 420.94C1225.18 421 1225 421.12 1224.74 421.216C1224.23 421.433 1223.44 421.673 1222.39 421.769C1220.29 421.986 1217.21 421.324 1213.89 419.617C1212.22 418.799 1210.45 417.789 1208.46 416.96C1207.46 416.551 1206.4 416.202 1205.28 415.986C1204.73 415.865 1204.15 415.853 1203.56 415.817C1203.27 415.805 1202.97 415.769 1202.69 415.769L1201.8 415.841C1199.4 416.046 1196.97 416.923 1194.61 418.102C1192.24 419.28 1189.89 420.759 1187.43 422.166C1184.96 423.573 1182.45 424.847 1179.83 425.557C1177.21 426.278 1174.49 426.29 1172.07 425.665C1169.64 425.064 1167.5 424.066 1165.53 423.128C1163.56 422.19 1161.74 421.276 1160.02 420.639C1156.57 419.328 1153.52 419.088 1151.51 419.473C1149.48 419.833 1148.52 420.543 1148.48 420.459C1148.47 420.435 1148.71 420.29 1149.19 420.014C1149.68 419.785 1150.43 419.425 1151.46 419.232C1153.52 418.763 1156.66 418.944 1160.18 420.218C1161.95 420.831 1163.79 421.733 1165.76 422.647C1167.73 423.561 1169.86 424.523 1172.22 425.088C1174.56 425.677 1177.15 425.641 1179.68 424.944C1182.22 424.258 1184.69 422.996 1187.14 421.601C1189.59 420.206 1191.94 418.727 1194.35 417.537C1196.76 416.346 1199.26 415.432 1201.76 415.24L1202.69 415.168C1203 415.168 1203.3 415.204 1203.61 415.216C1204.22 415.252 1204.83 415.288 1205.4 415.408C1206.57 415.649 1207.65 416.022 1208.67 416.455C1210.71 417.32 1212.46 418.354 1214.11 419.196C1217.37 420.94 1220.34 421.637 1222.39 421.505C1224.44 421.397 1225.46 420.735 1225.48 420.819Z" fill="#BD4B4B"/>
<path d="M1227.11 427.216C1227.12 427.228 1226.92 427.433 1226.48 427.805C1226.03 428.13 1225.33 428.599 1224.29 428.9C1222.24 429.537 1218.98 429.357 1215.49 427.781C1213.75 427 1211.98 425.93 1210.02 424.92C1208.07 423.922 1205.9 422.924 1203.47 422.731C1201.03 422.503 1198.5 423.272 1196.14 424.535C1193.78 425.785 1191.55 427.517 1189.18 429.152C1186.81 430.775 1184.36 432.315 1181.68 433.048C1179 433.83 1176.24 433.637 1173.8 433.06C1168.89 431.87 1164.93 429.621 1161.37 428.479C1157.82 427.252 1154.76 426.928 1152.69 427.192C1150.61 427.421 1149.55 427.998 1149.53 427.914C1149.51 427.89 1149.78 427.769 1150.3 427.553C1150.81 427.361 1151.61 427.108 1152.67 426.952C1154.77 426.603 1157.92 426.868 1161.51 428.058C1165.15 429.164 1169.13 431.377 1173.95 432.495C1176.34 433.036 1178.97 433.204 1181.54 432.447C1184.11 431.737 1186.5 430.246 1188.85 428.635C1191.2 427.012 1193.44 425.28 1195.87 423.994C1198.27 422.707 1200.95 421.902 1203.53 422.154C1206.1 422.37 1208.33 423.429 1210.29 424.463C1212.25 425.509 1214.01 426.591 1215.7 427.385C1219.09 428.972 1222.24 429.212 1224.25 428.671C1226.25 428.106 1227.06 427.132 1227.11 427.216Z" fill="#BD4B4B"/>
</svg>
