<svg width="1440" height="917" viewBox="0 0 1440 917" fill="none" xmlns="http://www.w3.org/2000/svg">
<rect width="1440" height="917" fill="#EEEEEE"/>
<g clip-path="url(#clip0_83_47)">
<path d="M1142.39 241.699C1143.41 243.525 1149.19 259.03 1142.21 274.656C1135.22 290.282 1117.93 279.416 1117.93 279.416V250.589L1142.39 241.699Z" fill="#F48462"/>
<path d="M1081.78 371.253C1081.78 371.253 1105.91 376.132 1125.6 363.62C1145.29 351.108 1139.96 274.656 1139.96 274.656H1109.63L1091.79 316.624L1081.78 371.253Z" fill="#F48462"/>
<path d="M1081.15 687.776V712.202L1127.25 710.496V687.776H1081.15Z" fill="#F48462"/>
<path d="M974.754 685.022V709.448L1017.43 707.742V685.022H974.754Z" fill="#F48462"/>
<path d="M1067.43 415.526C1067.43 415.526 1100.67 468.12 1120.39 552.324C1138.37 629.135 1142.24 692.655 1142.24 692.655H1064.46C1064.46 692.655 1055.8 630.033 1053.52 605.248C1051.24 580.462 1043.54 547.295 1043.54 547.295C1043.54 547.295 1032.87 690.23 1030.32 692.655C1027.78 695.08 953.355 693.194 954.134 689.901C954.943 686.608 969.809 461.235 971.847 445.609C978.052 397.565 1067.43 415.526 1067.43 415.526Z" fill="#193948"/>
<path d="M1028.01 749.859C1028.01 754.169 1026.58 759.109 1023.58 760.366C1020.61 761.623 996.544 764.197 975.504 762.371C955.362 760.605 951.166 759.139 949.698 757.313C948.978 756.385 950.387 752.074 952.006 747.883C952.096 747.674 952.185 747.434 952.275 747.225C953.115 745.129 953.984 743.094 954.583 741.627C955.213 740.25 955.962 738.933 956.861 737.646C959.049 734.652 963.365 728.426 964.474 725.223C965.913 720.943 968.13 711.693 969.629 707.353C971.128 703.072 974.754 702.174 974.754 702.174C974.754 702.174 1016.21 699.33 1019.17 701.815C1022.11 704.269 1023.61 724.625 1023.61 727.708V730.791C1023.61 733.665 1025.59 739.322 1026.85 744.022C1027.21 745.189 1027.47 746.297 1027.68 747.315C1027.86 748.272 1028.01 749.141 1028.01 749.859Z" fill="#4FAEC0"/>
<path d="M1201.4 758.66C1198.64 759.797 1081.04 763 1078.31 758.66C1077.47 757.342 1076.9 752.882 1076.51 747.315C1075.55 734.144 1075.55 714.537 1075.55 714.537C1075.55 714.537 1074.68 707.832 1074.86 704.748C1075.01 701.665 1131.57 702.863 1131.57 702.863L1168.34 731.809C1168.34 731.809 1178.44 730.013 1189.47 731.809C1195.32 732.737 1199.09 739.891 1200.95 746.626C1202.57 752.553 1202.72 758.121 1201.4 758.66Z" fill="#4FAEC0"/>
<path d="M1201.4 758.66C1198.64 759.797 1081.04 763 1078.31 758.66C1077.47 757.342 1076.9 752.882 1076.51 747.315C1098.87 748.901 1153.9 751.894 1200.92 746.596C1202.57 752.553 1202.72 758.121 1201.4 758.66Z" fill="#286C7C"/>
<path d="M1028.01 749.859C1028.01 754.169 1026.58 759.109 1023.58 760.366C1020.61 761.623 996.544 764.197 975.504 762.371C955.362 760.605 951.166 759.139 949.698 757.313C948.978 756.385 950.387 752.074 952.006 747.883C970.708 749.29 1004.46 750.577 1026.82 744.022C1027.18 745.189 1027.44 746.297 1027.65 747.315C1027.86 748.272 1028.01 749.141 1028.01 749.859Z" fill="#286C7C"/>
<path d="M1043.54 548.163C1043 548.133 1042.64 547.714 1042.67 547.235C1042.7 546.936 1045.13 516.164 1045.82 502.514C1046.51 488.894 1046.54 482.368 1046.54 482.308C1046.54 481.979 1046.75 481.65 1047.05 481.53L1072.22 470.335C1072.64 470.155 1073.18 470.335 1073.36 470.784C1073.54 471.233 1073.36 471.742 1072.91 471.921L1048.25 482.907C1048.22 484.763 1048.1 491.199 1047.53 502.634C1046.84 516.284 1044.41 547.086 1044.38 547.415C1044.38 547.834 1043.99 548.163 1043.54 548.163Z" fill="black"/>
<path d="M975.834 723.547C975.444 723.547 975.114 723.277 974.994 722.918C974.874 722.469 975.144 721.99 975.594 721.871C976.283 721.691 992.288 717.44 1000.77 718.907L1005.75 719.775C1001.22 716.452 991.958 710.615 986.234 713.04C985.814 713.22 985.275 713.04 985.095 712.591C984.915 712.142 985.125 711.633 985.544 711.453C994.296 707.712 1008.92 720.015 1009.55 720.553C1009.85 720.793 1009.94 721.212 1009.76 721.571C1009.58 721.93 1009.22 722.14 1008.83 722.05L1000.44 720.613C992.318 719.236 976.163 723.517 976.013 723.547C975.983 723.547 975.893 723.547 975.834 723.547Z" fill="#FFBA57"/>
<path d="M1159.5 725.702C1159.41 725.702 1138.46 723.547 1138.46 723.547C1138.13 723.517 1137.86 723.307 1137.74 723.008C1137.62 722.709 1137.68 722.38 1137.89 722.14L1145.2 713.549C1145.5 713.19 1146.04 713.13 1146.43 713.459C1146.79 713.758 1146.85 714.327 1146.52 714.686L1140.29 722.02L1159.62 723.996C1160.1 724.056 1160.43 724.475 1160.4 724.954C1160.31 725.373 1159.95 725.702 1159.5 725.702Z" fill="#FFBA57"/>
<path d="M1009.16 295.999C1009.16 295.999 986.234 295.909 973.855 307.973C961.477 320.006 971.877 437.886 971.877 437.886C971.877 437.886 1014.65 442.885 1038.09 437.886C1061.52 432.887 1076 422.65 1076 422.65C1076 422.65 1068.45 313.301 1062 301.716C1055.53 290.132 1009.16 295.999 1009.16 295.999Z" fill="#EFB7B7"/>
<path d="M1004.61 287.558L1004.73 302.375C1004.73 302.375 1010.39 307.045 1017.55 307.045C1027.24 307.045 1030.5 299.591 1030.5 299.591L1030.14 282.229L1004.61 287.558Z" fill="#F48462"/>
<path d="M1004.61 287.198C1004.61 287.198 1010.45 299.172 1021.39 297.376C1030.2 295.909 1030.11 283.487 1030.11 283.487L1004.61 287.198Z" fill="black"/>
<path d="M1033.86 244.482C1033.86 244.482 1039.43 270.914 1031.01 283.726C1022.59 296.568 1011.32 293.035 1006.22 289.234C999.361 284.145 997.833 276.931 997.833 276.931C997.833 276.931 988.541 278.937 985.304 271.393C981.918 263.461 987.612 256.935 992.258 256.486C996.904 256.037 997.473 256.875 997.473 256.875L995.974 248.374C995.974 248.434 1023.79 216.494 1033.86 244.482Z" fill="#F48462"/>
<path d="M1029.57 256.995C1029.57 256.995 1043.6 250.739 1044.89 261.635C1046.39 274.267 1031.22 274.656 1031.22 274.656L1029.57 256.995Z" fill="#F48462"/>
<path d="M1036.8 268.31C1036.65 268.31 1036.5 268.28 1036.38 268.19C1035.96 267.951 1035.81 267.442 1036.05 267.023L1040.63 258.881C1040.87 258.462 1041.38 258.312 1041.8 258.551C1042.22 258.791 1042.37 259.3 1042.13 259.719L1037.55 267.861C1037.4 268.13 1037.1 268.31 1036.8 268.31Z" fill="black"/>
<path d="M996.154 269.268C995.975 269.268 995.765 269.208 995.615 269.058L988.332 263.012C987.972 262.712 987.912 262.173 988.212 261.784C988.512 261.425 989.051 261.365 989.441 261.665L996.724 267.711C997.084 268.011 997.144 268.549 996.844 268.939C996.664 269.148 996.424 269.268 996.154 269.268Z" fill="black"/>
<path d="M989.531 270.495C989.261 270.495 989.021 270.375 988.841 270.166C988.542 269.807 988.602 269.238 988.991 268.969L993.187 265.706C993.547 265.406 994.116 265.466 994.386 265.855C994.686 266.245 994.626 266.783 994.236 267.053L990.04 270.316C989.92 270.435 989.741 270.495 989.531 270.495Z" fill="black"/>
<path d="M1042.25 265.796H1038.23C1037.76 265.796 1037.37 265.406 1037.37 264.927C1037.37 264.448 1037.76 264.059 1038.23 264.059H1042.25C1042.73 264.059 1043.12 264.448 1043.12 264.927C1043.12 265.406 1042.73 265.796 1042.25 265.796Z" fill="black"/>
<path d="M1011.35 262.383C1010.9 262.383 1010.54 262.054 1010.48 261.605L1010 257.055C1009.94 256.576 1010.3 256.157 1010.78 256.097C1011.23 256.037 1011.68 256.396 1011.74 256.875L1012.22 261.425C1012.28 261.904 1011.92 262.323 1011.44 262.383C1011.41 262.383 1011.38 262.383 1011.35 262.383Z" fill="black"/>
<path d="M1028.76 260.617C1028.31 260.617 1027.95 260.288 1027.89 259.839L1027.45 255.289C1027.39 254.81 1027.74 254.391 1028.22 254.331C1028.7 254.301 1029.12 254.63 1029.18 255.109L1029.66 259.659C1029.72 260.138 1029.36 260.557 1028.88 260.617C1028.82 260.617 1028.79 260.617 1028.76 260.617Z" fill="black"/>
<path d="M1021.36 272.89C1020.76 272.8 1020.43 272.381 1020.49 271.902C1021.48 265.167 1019.05 259.689 1019.02 259.629C1018.81 259.21 1019.02 258.671 1019.44 258.492C1019.89 258.282 1020.4 258.492 1020.58 258.911C1020.7 259.15 1023.28 264.898 1022.2 272.142C1022.14 272.591 1021.78 272.89 1021.36 272.89Z" fill="black"/>
<path d="M1029.63 252.325C1029.48 252.325 1029.36 252.295 1029.24 252.235C1027.51 251.337 1024.84 251.996 1024.81 251.996C1024.36 252.116 1023.88 251.846 1023.76 251.367C1023.64 250.918 1023.91 250.439 1024.39 250.32C1024.51 250.29 1027.72 249.481 1030.05 250.709C1030.47 250.918 1030.65 251.457 1030.41 251.876C1030.23 252.176 1029.93 252.325 1029.63 252.325Z" fill="black"/>
<path d="M1007.63 254.48C1007.42 254.48 1007.18 254.391 1007.03 254.241C1006.7 253.912 1006.67 253.373 1007.03 253.014C1008.86 251.128 1012.16 250.888 1012.28 250.888C1012.73 250.888 1013.18 251.218 1013.21 251.697C1013.24 252.176 1012.88 252.595 1012.4 252.625C1012.37 252.625 1009.64 252.834 1008.26 254.241C1008.08 254.391 1007.87 254.48 1007.63 254.48Z" fill="black"/>
<path d="M1001.64 259.27C1001.64 259.27 1008.38 254.72 1007.99 247.775C1007.6 240.86 1006.08 239.094 1006.08 239.094C1006.08 239.094 1013.03 242.776 1021.66 240.172C1031.43 237.238 1036.83 223.798 1031.49 220.146C1025.56 216.075 1011.11 221.822 1011.11 221.822C1011.11 221.822 995.975 220.984 986.114 232.988C976.253 244.991 987.313 259.12 987.313 259.12C987.313 259.12 990.22 252.954 1001.64 259.27Z" fill="black"/>
<path d="M1019.92 280.254C1016.09 280.254 1013 277.111 1012.85 276.961C1012.52 276.632 1012.52 276.063 1012.88 275.734C1013.21 275.404 1013.78 275.404 1014.11 275.764C1014.14 275.793 1017.73 279.445 1021.42 278.308C1021.87 278.158 1022.35 278.428 1022.5 278.877C1022.65 279.326 1022.38 279.805 1021.93 279.954C1021.24 280.164 1020.58 280.254 1019.92 280.254Z" fill="black"/>
<path d="M1028.76 228.707C1028.76 228.707 1035.27 234.634 1036.8 241.878C1038.32 249.122 1036.8 255.229 1036.8 255.229L1035.33 255.199C1035.33 255.199 1031.82 237.658 1026.16 236.041C1020.49 234.455 1028.76 228.707 1028.76 228.707Z" fill="black"/>
<path d="M993.337 298.304C993.337 298.304 954.523 301.507 937.709 328.477C920.865 355.448 919.576 379.695 919.576 379.695L980.03 371.253L993.337 298.304Z" fill="#EFB7B7"/>
<path d="M1058.08 371.253L1089.7 372.6L1091.79 316.624C1091.79 316.624 1060.74 297.047 1048.19 295.52C1035.63 293.993 1058.08 371.253 1058.08 371.253Z" fill="#EFB7B7"/>
<path d="M926.919 378.647C926.919 378.647 923.383 423.338 956.442 418.699C993.967 413.43 1013.48 336.051 1013.48 336.051L1024.69 329.166C1024.69 329.166 1022.53 337.996 1031.52 333.237C1040.48 328.477 1038.71 319.587 1038.71 319.587L1028.22 301.627C1028.22 301.627 1043.72 287.258 1039.13 286.54C1032.06 285.432 1010.03 300.1 1010.03 300.1C1010.03 300.1 1011.23 291.239 1006.11 292.706C1000.59 294.293 998.612 310.607 998.612 310.607L939.747 375.624L926.919 378.647Z" fill="#F48462"/>
<path d="M1024.66 330.034C1024.42 330.034 1024.15 329.914 1024 329.735C1023.76 329.435 1023.73 328.986 1023.97 328.687L1028.07 322.91C1028.34 322.521 1028.88 322.431 1029.27 322.7C1029.66 322.97 1029.75 323.508 1029.48 323.897L1027.27 327.011L1030.44 325.514C1030.86 325.304 1031.4 325.484 1031.58 325.933C1031.79 326.352 1031.61 326.891 1031.16 327.071L1024.99 329.944C1024.93 330.034 1024.81 330.034 1024.66 330.034Z" fill="black"/>
<path d="M1001.55 307.913C1001.31 307.913 1001.04 307.793 1000.89 307.583C1000.59 307.224 1000.65 306.685 1001.01 306.356L1011.8 297.526C1012.16 297.226 1012.7 297.286 1013.03 297.645C1013.33 298.005 1013.27 298.543 1012.91 298.873L1002.12 307.703C1001.94 307.853 1001.76 307.913 1001.55 307.913Z" fill="black"/>
<path d="M1024.18 305.219C1023.91 305.219 1023.64 305.099 1023.46 304.83C1023.19 304.44 1023.31 303.902 1023.7 303.632L1027.68 300.938C1028.07 300.669 1028.61 300.788 1028.88 301.178C1029.15 301.567 1029.03 302.106 1028.64 302.375L1024.66 305.069C1024.51 305.189 1024.36 305.219 1024.18 305.219Z" fill="black"/>
<path d="M975.833 471.592C975.564 471.592 975.294 471.472 975.114 471.233C974.844 470.844 974.934 470.305 975.324 470.035C988.242 461.025 991.629 447.914 991.689 447.795C991.808 447.345 992.258 447.046 992.738 447.166C993.187 447.286 993.487 447.735 993.367 448.214C993.217 448.782 989.8 462.073 976.343 471.472C976.163 471.532 975.983 471.592 975.833 471.592Z" fill="black"/>
<path d="M1179.13 273.668L1124.31 272.231C1121.11 272.142 1118.56 269.477 1118.65 266.245L1119.4 238.436C1119.49 235.233 1122.16 232.688 1125.39 232.778L1180.21 234.215C1183.42 234.305 1185.97 236.969 1185.88 240.202L1185.13 268.011C1185.04 271.214 1182.37 273.758 1179.13 273.668Z" fill="#286C7C"/>
<path d="M1170.8 270.256L1126.53 269.088C1123.86 269.028 1121.8 266.813 1121.86 264.149L1122.49 240.651C1122.55 237.987 1124.76 235.921 1127.43 235.981L1171.7 237.149C1174.37 237.209 1176.44 239.424 1176.38 242.088L1175.75 265.586C1175.66 268.25 1173.44 270.316 1170.8 270.256Z" fill="white"/>
<path d="M1183.09 254.031C1183.06 255.408 1181.92 256.486 1180.54 256.456C1179.16 256.426 1178.08 255.289 1178.11 253.912C1178.14 252.535 1179.28 251.457 1180.66 251.487C1182.04 251.517 1183.12 252.654 1183.09 254.031Z" fill="#3F9E97"/>
<path d="M1109.63 277.29C1109.63 277.29 1104.8 260.018 1108.13 254.391C1111.49 248.763 1119.64 243.016 1126.71 244.602C1133.76 246.189 1121.89 255.887 1121.89 255.887C1121.89 255.887 1129.32 272.231 1124.49 279.984C1119.67 287.737 1109.63 277.29 1109.63 277.29Z" fill="#F48462"/>
<path d="M1121.8 283.277C1121.44 283.277 1121.11 283.067 1120.99 282.708C1120.81 282.259 1121.05 281.75 1121.5 281.601C1126.02 279.924 1125.15 270.166 1124.46 266.544C1124.37 266.065 1124.67 265.616 1125.15 265.526C1125.63 265.436 1126.08 265.736 1126.17 266.215C1126.29 266.813 1128.96 280.733 1122.13 283.217C1121.98 283.277 1121.89 283.277 1121.8 283.277Z" fill="black"/>
<path d="M1006.7 199.432H872.88C866.885 199.432 862 194.582 862 188.566V124.866C862 118.849 866.855 114 872.88 114H1006.7C1012.7 114 1017.58 118.849 1017.58 124.866V188.566C1017.58 194.553 1012.7 199.432 1006.7 199.432Z" fill="#9BCCC7"/>
<path d="M948.589 188.835L964.294 230.054L915.26 193.205L948.589 188.835Z" fill="#9BCCC7"/>
<path d="M996.364 148.843H883.22C880.972 148.843 879.114 147.017 879.114 144.742C879.114 142.467 880.942 140.641 883.22 140.641H996.364C998.612 140.641 1000.47 142.467 1000.47 144.742C1000.47 147.017 998.612 148.843 996.364 148.843Z" fill="#FFEEEB"/>
<path d="M996.364 172.761H883.22C880.972 172.761 879.114 170.935 879.114 168.66C879.114 166.415 880.942 164.559 883.22 164.559H996.364C998.612 164.559 1000.47 166.385 1000.47 168.66C1000.44 170.935 998.612 172.761 996.364 172.761Z" fill="#FFEEEB"/>
</g>
<defs>
<clipPath id="clip0_83_47">
<rect width="395" height="649" fill="white" transform="translate(862 114)"/>
</clipPath>
</defs>
</svg>
