<svg width="1440" height="917" viewBox="0 0 1440 917" fill="none" xmlns="http://www.w3.org/2000/svg">
<rect width="1440" height="917" fill="#EEEEEE"/>
<path d="M1110.77 359.903L1142.7 391.836L1170.24 355.439L1186.22 378.061C1186.22 378.061 1158.43 422.069 1152.53 426.015C1146.64 429.947 1139.74 433.639 1130.16 426.015C1120.57 418.39 1097.11 372.15 1097.11 372.15L1106.37 357.897L1110.77 359.903Z" fill="#FFBF9D"/>
<path d="M1116.65 350.272C1116.23 349.076 1116.36 347.15 1116.6 345.835C1116.84 344.52 1116.24 343.072 1115.64 342.235C1115.05 341.399 1115.41 340.309 1115.05 338.038C1114.69 335.766 1111.57 334.916 1111.57 334.916C1111.57 334.916 1111.09 333.84 1110.37 332.153C1109.65 330.48 1105.46 328.793 1102.21 327.956C1098.97 327.119 1097.78 329.032 1097.78 329.032L1097.9 329.749L1099.45 331.795L1092.97 334.319L1088.65 357.963L1086.49 362.612L1102.91 369.985L1106.65 363.967C1106.65 363.967 1115.29 355.692 1116.02 354.231C1116.72 352.756 1117.08 351.468 1116.65 350.272Z" fill="#AE7461"/>
<path d="M1098.79 329.855C1098.79 329.855 1096.12 326.866 1093.9 327.331C1091.68 327.796 1087.24 330.161 1087.16 332.764C1087.08 335.368 1090.07 335.288 1091.99 334.823L1092.98 334.358L1094.6 335.448L1101.09 332.924L1098.79 329.855Z" fill="#FFBF9D"/>
<path d="M1087.17 334.265C1087.17 334.265 1082.77 333.88 1081.18 334.903C1079.58 335.926 1077.73 339.074 1080.31 342.063L1087.7 340.535L1098.54 340.588C1098.54 340.588 1098.99 336.882 1098.54 336.245C1098.1 335.607 1091.92 334.093 1087.17 334.265Z" fill="#FFBF9D"/>
<path d="M1079.81 342.196C1079.81 342.196 1077.44 343.644 1077.76 346.38C1078.08 349.116 1080.66 350.086 1080.66 350.086L1088.44 346.699L1105.74 347.018C1105.74 347.018 1108.42 343.683 1104.98 342.182C1101.54 340.681 1092.98 340.548 1089.41 340.522C1085.84 340.535 1079.81 342.196 1079.81 342.196Z" fill="#FFBF9D"/>
<path d="M1080.67 350.099C1080.67 350.099 1078.74 352.185 1079.98 354.589C1081.21 356.993 1082.3 356.993 1082.3 356.993C1082.3 356.993 1082.3 360.022 1083.23 361.032C1084.16 362.041 1085.64 363.051 1085.64 363.051L1091.46 358.481C1091.46 358.481 1099.68 357.711 1100.75 356.582C1101.84 355.453 1102.53 353.593 1102.53 353.593C1102.53 353.593 1105.51 354.058 1106.73 352.743C1107.95 351.428 1108.05 347.815 1105.18 347.124L1088.45 346.739L1080.67 350.099Z" fill="#FFBF9D"/>
<path d="M1041.52 365.521L1060.76 386.217L1086.49 362.586L1107.6 363.037C1107.6 363.037 1075.05 417.898 1067.55 422.295C1060.04 426.692 1054.36 424.673 1045.93 419.546C1037.51 414.418 1009.48 378.885 1009.48 378.885L1041.52 365.521Z" fill="#AE7461"/>
<path d="M1102.27 354.005C1103.52 353.115 1098.99 352.729 1094.19 353.008C1089.26 353.341 1085.45 354.722 1085.39 354.523C1085.36 354.443 1086.26 353.991 1087.84 353.5C1089.41 353.008 1091.64 352.504 1094.15 352.331C1096.66 352.145 1098.95 352.331 1100.57 352.597C1100.98 352.676 1101.34 352.729 1101.66 352.809C1101.99 352.889 1102.31 353.035 1102.45 353.301C1102.59 353.553 1102.55 353.779 1102.47 353.898C1102.36 354.018 1102.27 354.018 1102.27 354.005Z" fill="#FF9A6C"/>
<path d="M1105.71 347.27C1105.71 347.363 1104.54 347.403 1102.65 347.35C1100.51 347.243 1098.06 347.124 1095.33 346.991C1092.49 346.885 1089.91 347.044 1088.08 347.336C1086.23 347.615 1085.12 347.908 1085.08 347.788C1085.05 347.708 1086.14 347.257 1087.99 346.845C1089.83 346.433 1092.46 346.181 1095.35 346.3C1098.23 346.393 1100.81 346.685 1102.68 346.858C1104.55 347.044 1105.71 347.177 1105.71 347.27Z" fill="#FF9A6C"/>
<path d="M1098.75 340.734C1098.74 340.947 1094.76 340.708 1089.89 340.987C1085.01 341.266 1081.11 342.023 1081.07 341.81C1081.06 341.717 1082.01 341.425 1083.59 341.093C1085.17 340.761 1087.39 340.429 1089.86 340.296C1092.33 340.15 1094.56 340.23 1096.17 340.349C1097.77 340.482 1098.75 340.641 1098.75 340.734Z" fill="#FF9A6C"/>
<path d="M1098.48 336.085C1098.4 336.258 1095.21 334.943 1090.99 334.81C1086.79 334.651 1083.34 334.903 1083.33 334.664C1083.33 334.571 1084.18 334.425 1085.56 334.279C1086.94 334.146 1088.88 334.013 1091.02 334.119C1093.16 334.226 1095.1 334.611 1096.42 335.076C1097.78 335.554 1098.52 336.019 1098.48 336.085Z" fill="#FF9A6C"/>
<path d="M1104.94 331.436C1104.99 331.622 1103.01 332.406 1100.58 333.375C1098.14 334.332 1096.16 335.102 1096.08 334.93C1096 334.757 1097.87 333.707 1100.33 332.738C1102.79 331.768 1104.87 331.263 1104.94 331.436Z" fill="#6F4439"/>
<path d="M1144.31 409.052C1144.09 409.038 1144.56 404.774 1143.73 399.62C1142.92 394.453 1141.14 390.561 1141.34 390.481C1141.42 390.441 1141.96 391.371 1142.61 392.978C1143.26 394.586 1143.98 396.897 1144.4 399.514C1144.82 402.131 1144.86 404.548 1144.74 406.275C1144.62 408.002 1144.39 409.065 1144.31 409.052Z" fill="#FF9A6C"/>
<path d="M1059.87 401.785C1059.67 401.732 1060.66 398.106 1060.93 393.523C1061.22 388.94 1060.66 385.221 1060.88 385.194C1061.04 385.155 1061.91 388.887 1061.62 393.563C1061.34 398.252 1060.01 401.852 1059.87 401.785Z" fill="#6F4439"/>
<path d="M1195.2 290.815C1195.32 283.801 1196.73 269.389 1198.16 256.344C1199.7 242.33 1211.75 231.836 1225.85 232.248L1227.24 232.288C1242.32 233.603 1249.62 247.152 1247.88 262.189L1246.51 321.487L1235.76 338.795L1210.45 333.083L1212.24 308.057C1212.26 308.044 1194.96 305.334 1195.2 290.815Z" fill="#FFBF9D"/>
<path d="M1209.39 308.004C1209.39 308.004 1218.54 309.013 1228.46 303.169C1228.46 303.169 1223.68 313.49 1209.24 311.763L1209.39 308.004Z" fill="#FF9A6C"/>
<path d="M1201.14 269.495C1201.07 270.584 1201.94 271.554 1203.08 271.647C1204.22 271.74 1205.2 270.93 1205.27 269.84C1205.34 268.751 1204.47 267.781 1203.33 267.688C1202.2 267.595 1201.22 268.406 1201.14 269.495Z" fill="#263238"/>
<path d="M1200.89 262.76C1201.14 263.039 1202.75 261.923 1204.96 261.99C1207.2 262.03 1208.8 263.225 1209.04 262.959C1209.16 262.84 1208.92 262.348 1208.22 261.804C1207.53 261.272 1206.35 260.728 1204.96 260.701C1203.57 260.675 1202.39 261.14 1201.71 261.644C1201.01 262.162 1200.77 262.641 1200.89 262.76Z" fill="#263238"/>
<path d="M1221.02 269.893C1220.96 270.983 1221.82 271.952 1222.96 272.045C1224.1 272.138 1225.09 271.328 1225.15 270.239C1225.22 269.15 1224.36 268.18 1223.21 268.087C1222.09 267.994 1221.1 268.804 1221.02 269.893Z" fill="#263238"/>
<path d="M1222.14 262.787C1222.35 263.092 1224.08 262.149 1226.28 262.468C1228.49 262.747 1229.96 264.115 1230.24 263.876C1230.38 263.77 1230.19 263.252 1229.55 262.641C1228.93 262.03 1227.81 261.365 1226.43 261.18C1225.05 260.994 1223.83 261.339 1223.08 261.764C1222.34 262.189 1222.03 262.641 1222.14 262.787Z" fill="#263238"/>
<path d="M1214.42 280.892C1214.44 280.759 1213.05 280.48 1210.82 280.135C1210.25 280.055 1209.72 279.936 1209.64 279.537C1209.52 279.126 1209.77 278.514 1210.07 277.864C1210.64 276.495 1211.25 275.074 1211.87 273.573C1214.4 267.463 1216.23 262.441 1215.99 262.335C1215.74 262.242 1213.51 267.104 1210.98 273.214C1210.37 274.715 1209.8 276.163 1209.24 277.531C1209 278.169 1208.62 278.9 1208.88 279.763C1209.03 280.188 1209.43 280.52 1209.8 280.627C1210.16 280.746 1210.48 280.759 1210.77 280.786C1213 280.972 1214.41 281.025 1214.42 280.892Z" fill="#263238"/>
<path d="M1223.11 253.156C1223.31 253.767 1225.55 253.541 1228.16 253.94C1230.77 254.285 1232.86 255.109 1233.22 254.578C1233.38 254.325 1233.03 253.741 1232.19 253.13C1231.37 252.519 1230.03 251.921 1228.46 251.708C1226.89 251.496 1225.45 251.695 1224.49 252.054C1223.51 252.399 1223.02 252.864 1223.11 253.156Z" fill="#263238"/>
<path d="M1201.5 254.153C1201.87 254.671 1203.42 254.192 1205.27 254.219C1207.12 254.179 1208.67 254.657 1209.04 254.139C1209.2 253.887 1208.98 253.369 1208.31 252.877C1207.65 252.386 1206.53 251.961 1205.27 251.961C1203.99 251.961 1202.88 252.386 1202.23 252.891C1201.56 253.382 1201.34 253.9 1201.5 254.153Z" fill="#263238"/>
<path d="M1246.39 272.909C1246.64 272.803 1256.45 270.252 1255.85 280.162C1255.24 290.071 1245.42 287.428 1245.42 287.135C1245.41 286.856 1246.39 272.909 1246.39 272.909Z" fill="#FFBF9D"/>
<path d="M1248.67 283.562C1248.71 283.536 1248.83 283.695 1249.12 283.841C1249.4 283.987 1249.88 284.107 1250.41 283.947C1251.49 283.629 1252.47 282.021 1252.63 280.228C1252.71 279.325 1252.57 278.461 1252.3 277.731C1252.04 276.987 1251.6 276.455 1251.07 276.323C1250.56 276.163 1250.16 276.455 1250.02 276.734C1249.88 277 1249.93 277.199 1249.88 277.213C1249.85 277.239 1249.68 277.027 1249.78 276.628C1249.84 276.429 1249.97 276.203 1250.21 276.03C1250.46 275.858 1250.82 275.778 1251.18 275.831C1251.94 275.924 1252.59 276.681 1252.89 277.478C1253.24 278.289 1253.41 279.272 1253.32 280.281C1253.13 282.274 1251.99 284.08 1250.54 284.412C1249.84 284.558 1249.27 284.306 1248.97 284.054C1248.67 283.801 1248.64 283.575 1248.67 283.562Z" fill="#FF9A6C"/>
<path d="M1197.05 239.368C1197.54 237.455 1199.01 235.662 1200.98 235.423C1200.89 235.117 1203.01 234.094 1204.67 232.939C1206.33 231.77 1206.69 229.007 1208.19 230.375C1208.15 227.346 1211.95 225.009 1214.64 226.417C1214.58 224.663 1217.16 224.079 1218.86 223.627C1220.56 223.189 1221.21 222.923 1222.02 224.49C1224.2 220.984 1230.02 220.691 1232.55 223.946C1236.55 222.644 1241.37 224.942 1242.89 228.874C1246.13 229.14 1249.07 231.584 1249.94 234.705C1252.02 234.931 1252.51 236.565 1253.34 238.478C1254.18 240.391 1255.34 242.516 1254.1 244.203C1256.57 245.492 1256.98 249.477 1254.82 251.23C1255.38 251.522 1255.85 251.947 1256.23 252.452C1258.31 253.767 1258.92 256.995 1257.38 258.935C1258.88 260.143 1259.49 262.348 1258.8 264.155C1258.13 265.962 1256.21 267.21 1254.29 267.117C1255.88 269.442 1253.81 272.563 1252.6 273.228C1252.6 273.228 1248.55 271.501 1247.86 274.49C1247.9 274.543 1247.88 274.516 1247.86 274.49C1248.08 275.765 1246.53 276.894 1245.35 276.363C1244.16 275.818 1243.51 274.569 1242.86 273.453C1242.11 272.165 1241.22 270.93 1240.9 269.468C1240.58 268.021 1241.03 266.254 1242.37 265.603C1240.67 264.992 1239.62 263.212 1239.34 261.419C1239.06 259.639 1239.44 257.819 1239.81 256.052C1240.35 253.448 1240.9 250.832 1241.44 248.228C1237.84 248.042 1234.45 245.664 1233.03 242.357C1230.4 244.27 1226.13 243.087 1224.85 240.099C1223.6 243.619 1219.24 245.678 1215.72 244.416C1216.06 246.475 1212.31 248.281 1210.28 248.773C1208.25 249.251 1205.75 247.763 1205.75 247.763C1205.75 247.763 1202.22 249.716 1200.33 248.906C1198.48 248.109 1196.04 245.638 1197.31 243.712C1197.33 243.685 1196.56 241.268 1197.05 239.368Z" fill="#263238"/>
<path d="M1215.94 226.164C1215.98 226.217 1216.27 225.779 1217.08 225.553C1217.48 225.447 1218.01 225.42 1218.53 225.673C1219.04 225.912 1219.55 226.443 1219.7 227.147L1219.82 227.718L1220.12 227.214C1220.68 226.324 1221.86 225.553 1223.23 225.58C1224.57 225.593 1226.03 226.629 1226.43 228.17L1226.6 228.834L1227.03 228.303C1227.81 227.333 1229.14 226.709 1230.51 226.749C1231.88 226.762 1233.22 227.572 1233.98 228.821C1234.28 229.326 1234.48 229.884 1234.56 230.441L1234.61 230.84L1235.01 230.747C1236.94 230.322 1239.01 231.464 1239.69 233.098C1240.4 234.745 1239.9 236.658 1238.85 237.721L1238.45 238.119L1239 238.226C1240.3 238.491 1241.33 239.315 1241.92 240.205C1242.53 241.108 1242.69 242.078 1242.68 242.862C1242.62 244.442 1242 245.213 1242.09 245.253C1242.12 245.266 1242.28 245.093 1242.49 244.708C1242.7 244.323 1242.96 243.712 1243.02 242.875C1243.09 242.051 1242.97 240.975 1242.33 239.939C1241.72 238.93 1240.6 237.973 1239.13 237.628L1239.28 238.133C1240.52 236.924 1241.14 234.772 1240.33 232.806C1239.53 230.853 1237.18 229.512 1234.85 230.003L1235.3 230.322C1235.21 229.644 1234.99 228.994 1234.63 228.409C1233.76 226.961 1232.16 225.991 1230.55 225.991C1228.95 225.965 1227.44 226.696 1226.51 227.838L1227.11 227.971C1226.59 226.111 1224.85 224.955 1223.24 224.969C1221.62 224.969 1220.32 225.898 1219.72 226.948L1220.15 227.014C1219.92 226.138 1219.3 225.566 1218.67 225.314C1218.04 225.048 1217.42 225.128 1217 225.287C1216.56 225.447 1216.3 225.673 1216.14 225.845C1215.98 226.031 1215.92 226.151 1215.94 226.164Z" fill="#455A64"/>
<path d="M1195.6 282.885C1197.11 281.769 1199.62 282.606 1200.18 284.399C1201.02 283.23 1202.56 282.593 1203.98 282.845C1205.4 283.097 1206.64 284.2 1207.04 285.595C1207.69 283.483 1211.01 282.925 1212.32 284.705C1212.87 283.815 1214.01 283.363 1215.02 283.629C1214.9 282.659 1215.43 281.649 1216.28 281.184C1217.13 280.72 1218.27 280.826 1219.02 281.45C1220.12 279.444 1223.23 278.926 1224.92 280.467C1225.19 279.551 1226.15 278.873 1227.11 278.913C1228.08 278.953 1228.97 279.683 1229.18 280.627C1230.12 279.404 1231.92 278.94 1233.32 279.551C1233.31 278.116 1234.93 276.907 1236.3 277.346C1235.95 276.123 1237.75 275.566 1238.68 274.689C1239.09 274.29 1239.35 273.759 1239.79 273.4C1240.23 273.042 1241 272.962 1241.29 273.453C1241.06 272.47 1241.67 271.368 1242.62 271.036C1243.58 270.704 1244.73 271.195 1245.16 272.112C1245.41 272.656 1245.41 273.268 1245.49 273.865C1245.77 275.765 1246.83 278.023 1245.45 279.365C1245.21 279.604 1244.89 279.79 1244.79 280.122C1244.62 280.666 1245.15 281.198 1245.19 281.782C1245.23 282.46 1244.62 282.964 1244.34 283.576C1243.92 284.492 1244.3 285.528 1244.38 286.524C1244.44 287.521 1243.88 288.783 1242.89 288.676C1243.63 290.124 1243.13 292.09 1241.79 293.007C1242.56 294.681 1241.56 296.939 1239.79 297.483C1240.46 298.015 1240.4 299.091 1239.93 299.781C1239.45 300.472 1238.65 300.884 1237.89 301.256C1238.58 301.615 1238.68 302.651 1238.24 303.288C1237.81 303.939 1237.04 304.271 1236.29 304.484C1235.97 304.577 1235.61 304.67 1235.42 304.935C1235.06 305.453 1235.54 306.157 1235.45 306.769C1235.3 307.712 1233.96 307.991 1233.56 308.854C1233.2 309.624 1233.67 310.714 1233.05 311.298C1232.65 311.683 1232.01 311.604 1231.48 311.79C1230.55 312.122 1230.14 313.158 1229.54 313.955C1228.42 315.443 1226.52 316.094 1224.73 316.545C1223.81 316.771 1222.88 316.984 1221.95 317.156C1220.09 317.502 1218.22 317.727 1216.35 317.953C1215.42 318.059 1214.28 318.086 1213.78 317.276C1212.48 318.87 1209.52 318.524 1208.63 316.665C1206.96 317.116 1205.22 316.412 1203.62 315.708C1203.08 315.469 1202.52 315.23 1201.98 314.991C1200.34 314.274 1198.51 313.357 1198.03 311.644C1195.88 311.338 1194.47 308.641 1195.44 306.702C1194.7 306.915 1193.97 306.157 1193.85 305.387C1193.73 304.617 1194.01 303.859 1194.14 303.089C1194.71 299.981 1193.06 296.806 1193.49 293.684C1193.79 291.492 1195.09 289.327 1194.47 287.202C1194.34 286.764 1194.12 286.338 1194.16 285.887C1194.19 285.435 1194.62 284.957 1195.05 285.09C1194.5 283.841 1195.75 282.194 1197.1 282.407" fill="#263238"/>
<path d="M1221.79 283.124C1221.44 283.097 1221.36 285.515 1219.23 287.175C1217.12 288.836 1214.54 288.49 1214.51 288.836C1214.47 288.982 1215.07 289.327 1216.16 289.38C1217.22 289.447 1218.81 289.155 1220.09 288.132C1221.38 287.109 1221.97 285.727 1222.09 284.731C1222.21 283.722 1221.95 283.124 1221.79 283.124Z" fill="white"/>
<path d="M1235.09 299.688C1234.97 299.649 1235.98 297.457 1236.02 294.561C1236.1 291.665 1235.18 289.434 1235.3 289.394C1235.34 289.38 1235.64 289.898 1235.91 290.828C1236.19 291.745 1236.45 293.086 1236.41 294.561C1236.37 296.049 1236.07 297.364 1235.76 298.28C1235.45 299.197 1235.13 299.702 1235.09 299.688Z" fill="#455A64"/>
<path d="M1237.38 296.182C1237.32 296.142 1237.68 295.796 1237.93 295.079C1238.19 294.375 1238.28 293.312 1238.17 292.157C1238 289.805 1237.35 287.986 1237.46 287.959C1237.55 287.919 1238.37 289.712 1238.56 292.13C1238.66 293.326 1238.53 294.455 1238.19 295.199C1237.84 295.929 1237.4 296.221 1237.38 296.182Z" fill="#455A64"/>
<path d="M1239.82 294.176C1239.7 294.123 1240.78 292.343 1240.87 289.859C1240.99 287.375 1240.07 285.502 1240.19 285.462C1240.23 285.435 1240.52 285.874 1240.8 286.657C1241.08 287.441 1241.32 288.597 1241.27 289.872C1241.21 291.147 1240.88 292.276 1240.54 293.033C1240.18 293.791 1239.86 294.202 1239.82 294.176Z" fill="#455A64"/>
<path d="M1199.43 309.013C1199.43 309.053 1198.76 308.881 1198.04 308.137C1197.31 307.393 1196.68 306.091 1196.32 304.59C1195.93 303.089 1195.9 301.668 1195.98 300.658C1196.08 299.649 1196.25 299.051 1196.3 299.051C1196.42 299.051 1195.94 301.548 1196.69 304.484C1197.05 305.945 1197.62 307.194 1198.24 307.937C1198.87 308.695 1199.45 308.947 1199.43 309.013Z" fill="#455A64"/>
<path d="M1201.54 308.482C1201.51 308.522 1201.05 308.283 1200.42 307.698C1199.8 307.127 1199.07 306.171 1198.59 304.949C1198.11 303.727 1198 302.531 1198.06 301.694C1198.12 300.844 1198.3 300.353 1198.34 300.366C1198.4 300.379 1198.32 300.884 1198.32 301.708C1198.34 302.531 1198.48 303.66 1198.93 304.816C1199.4 305.972 1200.05 306.901 1200.59 307.512C1201.17 308.11 1201.58 308.429 1201.54 308.482Z" fill="#455A64"/>
<path d="M1197.84 247.617C1197.84 247.617 1201.19 242.423 1207.64 240.51C1219.64 236.95 1236.49 235.595 1254.28 253.13L1256.87 254.299C1256.87 254.299 1257.4 248.321 1256.5 243.898C1255.89 240.949 1250.51 223.733 1231.27 221.927C1231.29 221.94 1201.89 217.145 1197.84 247.617Z" fill="#3F9E97"/>
<g opacity="0.3">
<g opacity="0.3">
<g opacity="0.3">
<g opacity="0.3">
<g opacity="0.3">
<g opacity="0.3">
<g opacity="0.3">
<g opacity="0.3">
<path opacity="0.3" d="M1197.84 247.617C1197.84 247.617 1201.19 242.423 1207.64 240.51C1219.64 236.95 1236.49 235.595 1254.28 253.13L1256.87 254.299C1256.87 254.299 1257.4 248.321 1256.5 243.898C1255.89 240.949 1250.51 223.733 1231.27 221.927C1231.29 221.94 1201.89 217.145 1197.84 247.617Z" fill="#3F9E97"/>
</g>
</g>
</g>
</g>
</g>
</g>
</g>
</g>
<path d="M1254.29 253.13C1246.98 245.133 1237.59 240.537 1227.71 236.871C1217.82 233.204 1202.24 230.773 1191.72 230.189C1188.56 230.016 1185.29 229.963 1182.36 231.119C1179.41 232.275 1176.84 234.918 1176.7 238.079C1176.53 242.038 1184.39 246.461 1188 248.095C1191.6 249.729 1198.97 252.598 1198.97 252.598C1198.97 252.598 1200.94 243.605 1208.05 241.068C1222.79 235.781 1254.83 253.435 1254.29 253.13Z" fill="#3F9E97"/>
<path d="M1196.94 241.799C1197.81 239.395 1200.53 237.827 1203.04 238.265C1202.44 237.561 1202.53 236.432 1203.09 235.688C1203.64 234.945 1204.54 234.519 1205.44 234.32C1208.62 233.603 1212.18 235.449 1213.41 238.465C1214.9 237.004 1217.07 236.153 1219.86 236.711C1222.62 237.256 1224.27 239.634 1224.27 241.321C1224.25 243.207 1223.31 244.309 1221.68 245.279C1220.04 246.236 1217.49 245.558 1215.83 244.642C1215.17 246.448 1213.59 247.896 1211.73 248.387C1209.87 248.879 1207.78 248.414 1206.31 247.179C1204.67 249.145 1201.59 249.689 1199.37 248.427C1197.17 247.139 1196.08 244.19 1196.94 241.799Z" fill="#263238"/>
<path d="M1186.79 722.303L1187.91 751.713C1187.91 751.713 1158.38 762.725 1158.06 768.171L1215.16 768.065L1215.31 722.17L1186.79 722.303Z" fill="#455A64"/>
<path d="M1205.56 749.202C1206.66 749.508 1207.43 750.743 1207.18 751.859C1206.93 752.975 1205.67 753.772 1204.57 753.48C1203.45 753.201 1202.49 751.74 1202.86 750.65C1203.24 749.574 1204.76 748.724 1205.77 749.256" fill="#E0E0E0"/>
<path d="M1215.17 768.078L1215.01 763.456L1160.32 765.289C1160.32 765.289 1157.78 766.405 1158.08 768.185L1215.17 768.078Z" fill="#263238"/>
<path d="M1186.98 751.421C1186.99 751.7 1188.39 751.819 1189.76 752.722C1191.15 753.586 1191.87 754.781 1192.12 754.675C1192.37 754.622 1191.96 752.948 1190.27 751.899C1188.6 750.836 1186.91 751.168 1186.98 751.421Z" fill="white"/>
<path d="M1180.99 753.918C1180.93 754.184 1182.14 754.662 1183.09 755.844C1184.08 757 1184.32 758.275 1184.59 758.262C1184.86 758.301 1185.05 756.668 1183.84 755.233C1182.64 753.758 1181.01 753.652 1180.99 753.918Z" fill="white"/>
<path d="M1177.61 761.091C1177.86 761.144 1178.24 759.75 1177.53 758.235C1176.82 756.708 1175.51 756.11 1175.39 756.336C1175.23 756.562 1176.08 757.385 1176.65 758.647C1177.25 759.883 1177.33 761.065 1177.61 761.091Z" fill="white"/>
<path d="M1187.47 744.699C1187.59 744.952 1188.87 744.566 1190.45 744.673C1192.03 744.739 1193.25 745.27 1193.4 745.031C1193.56 744.832 1192.36 743.796 1190.5 743.703C1188.64 743.583 1187.33 744.473 1187.47 744.699Z" fill="white"/>
<path d="M1255.3 724.123L1256.88 759.696L1250.03 788.203C1249.54 790.262 1250.88 792.294 1252.97 792.653C1254.13 792.852 1255.32 792.48 1256.15 791.643C1261.48 786.317 1280.42 766.351 1280.5 764.452C1280.63 761.437 1281.51 726.381 1281.51 726.381L1255.3 724.123Z" fill="#455A64"/>
<path d="M1252.97 792.653L1280.64 761.609L1280.67 763.124C1280.57 764.665 1280.27 765.701 1279.45 766.71C1277.24 769.42 1271 776.753 1256.27 791.643C1255.4 792.507 1254.17 792.879 1252.97 792.653Z" fill="#263238"/>
<g opacity="0.6">
<g opacity="0.6">
<g opacity="0.6">
<g opacity="0.6">
<g opacity="0.6">
<g opacity="0.6">
<g opacity="0.6">
<g opacity="0.6">
<g opacity="0.6">
<g opacity="0.6">
<g opacity="0.6">
<g opacity="0.6">
<path opacity="0.6" d="M1273.08 750.291C1272.2 750.929 1271.93 752.284 1272.53 753.187C1273.13 754.091 1274.51 754.37 1275.4 753.745C1276.29 753.121 1276.65 751.514 1275.96 750.677C1275.27 749.84 1273.64 749.601 1272.92 750.424" fill="white"/>
</g>
</g>
</g>
</g>
</g>
</g>
</g>
</g>
</g>
</g>
</g>
</g>
<path d="M1260.77 776.912C1260.57 777.018 1259.73 775.172 1257.58 774.215C1255.47 773.192 1253.52 773.737 1253.47 773.525C1253.44 773.432 1253.88 773.153 1254.71 773.02C1255.54 772.874 1256.75 772.967 1257.91 773.511C1259.08 774.056 1259.93 774.919 1260.36 775.65C1260.8 776.367 1260.86 776.885 1260.77 776.912Z" fill="white"/>
<path d="M1258.33 781.734C1258.17 781.893 1257 780.764 1255.14 780.272C1253.3 779.741 1251.72 780.126 1251.66 779.901C1251.56 779.715 1253.26 778.931 1255.36 779.515C1257.45 780.086 1258.52 781.641 1258.33 781.734Z" fill="white"/>
<path d="M1265.35 770.708C1265.19 770.881 1263.39 769.128 1260.58 768.118C1257.78 767.069 1255.28 767.241 1255.26 767.002C1255.2 766.816 1257.84 766.258 1260.84 767.387C1263.87 768.477 1265.52 770.602 1265.35 770.708Z" fill="white"/>
<path d="M1265.78 759.843C1265.68 760.055 1263.7 759.285 1261.14 759.245C1258.58 759.178 1256.56 759.869 1256.48 759.643C1256.37 759.471 1258.4 758.381 1261.15 758.461C1263.92 758.514 1265.88 759.683 1265.78 759.843Z" fill="white"/>
<path d="M1265.58 749.389C1265.47 749.601 1263.47 748.459 1260.77 748.631C1258.06 748.751 1256.2 750.119 1256.08 749.92C1256.02 749.853 1256.4 749.389 1257.21 748.897C1258.02 748.406 1259.28 747.927 1260.73 747.848C1262.19 747.768 1263.49 748.1 1264.34 748.499C1265.21 748.91 1265.63 749.309 1265.58 749.389Z" fill="white"/>
<path d="M1260.79 746.652C1260.75 746.652 1260.65 746.174 1260.71 745.31C1260.77 744.447 1260.98 743.172 1261.7 741.764C1262.07 741.099 1262.46 740.236 1263.44 739.745C1263.93 739.492 1264.66 739.572 1265.1 740.037C1265.53 740.488 1265.67 741.073 1265.7 741.631C1265.71 743.889 1263.81 746.121 1261.29 746.493C1258.74 746.825 1256.4 745.417 1255.35 743.49C1255.13 742.986 1254.95 742.375 1255.22 741.764C1255.47 741.153 1256.2 740.9 1256.71 740.967C1257.77 741.099 1258.45 741.697 1259.08 742.136C1260.33 743.092 1261.12 744.115 1261.57 744.845C1262.03 745.589 1262.18 746.041 1262.14 746.068C1262.02 746.16 1261.2 744.341 1258.75 742.587C1258.14 742.189 1257.42 741.671 1256.65 741.618C1256.28 741.591 1255.96 741.737 1255.84 742.043C1255.71 742.335 1255.8 742.773 1256 743.172C1256.89 744.752 1259.03 746.028 1261.18 745.709C1263.32 745.417 1264.98 743.451 1265 741.631C1265 741.192 1264.86 740.754 1264.62 740.502C1264.39 740.249 1264.04 740.183 1263.71 740.329C1263.02 740.621 1262.58 741.378 1262.21 742.016C1260.75 744.659 1260.94 746.679 1260.79 746.652Z" fill="white"/>
<path d="M1169.22 476.266C1169.22 476.266 1164.18 492.831 1164.89 513.301C1165.17 521.217 1182.54 740.794 1182.54 740.794L1218.51 742.322L1217.1 536.587L1220.03 537.357C1220.03 537.357 1235.95 625.759 1236.95 639.999C1237.85 652.804 1250.49 746.081 1250.49 746.081L1283.24 745.177L1278.05 624.948L1270.81 506.938L1267.66 472.547L1169.22 476.266Z" fill="#263238"/>
<path d="M1223.68 515.891C1223.7 515.944 1223.17 516.223 1222.14 516.675C1221.12 517.1 1219.63 517.764 1217.63 518.043C1216.63 518.176 1215.49 518.189 1214.31 517.923C1213.14 517.658 1211.89 517.113 1210.9 516.117C1209.92 515.12 1209.32 513.752 1208.97 512.357C1208.61 510.936 1208.42 509.475 1208.18 507.987C1207.29 502.01 1206.73 496.563 1206.45 492.618C1206.31 490.639 1206.23 489.045 1206.19 487.942C1206.15 486.84 1206.16 486.229 1206.22 486.215C1206.27 486.215 1206.36 486.813 1206.48 487.916C1206.61 489.178 1206.79 490.732 1206.99 492.565C1207.41 496.497 1208.04 501.903 1208.94 507.868C1209.39 510.817 1209.67 513.805 1211.41 515.625C1213.16 517.418 1215.69 517.697 1217.55 517.511C1219.47 517.312 1220.99 516.741 1222.02 516.396C1223.07 516.024 1223.66 515.838 1223.68 515.891Z" fill="#455A64"/>
<path d="M1214.03 487.584C1214.01 487.544 1214.27 487.411 1214.77 487.398C1215.28 487.384 1216.03 487.57 1216.75 488.128C1217.44 488.686 1218.17 489.669 1218.15 490.971C1218.15 492.286 1217.07 493.535 1215.71 493.96C1214.37 494.425 1212.75 494.053 1211.98 492.99C1211.2 491.954 1211.2 490.732 1211.42 489.868C1211.68 488.978 1212.18 488.394 1212.59 488.102C1213 487.809 1213.3 487.783 1213.31 487.809C1213.4 487.916 1212.27 488.367 1211.96 489.988C1211.81 490.745 1211.89 491.781 1212.53 492.538C1213.14 493.322 1214.36 493.601 1215.48 493.229C1216.59 492.87 1217.42 491.927 1217.44 490.931C1217.51 489.935 1216.96 489.058 1216.39 488.527C1215.2 487.424 1214.01 487.716 1214.03 487.584Z" fill="#455A64"/>
<path d="M1270.41 504.812C1270.41 504.865 1269.97 504.905 1269.18 504.945C1268.38 504.998 1267.22 504.972 1265.8 504.839C1262.96 504.587 1259.04 503.736 1255.08 501.863C1251.12 499.99 1247.96 497.506 1245.97 495.474C1244.96 494.451 1244.2 493.588 1243.74 492.937C1243.26 492.299 1243.02 491.927 1243.06 491.901C1243.17 491.821 1244.27 493.189 1246.34 495.089C1248.4 496.988 1251.54 499.353 1255.4 501.186C1259.28 503.006 1263.08 503.936 1265.87 504.308C1268.65 504.693 1270.41 504.666 1270.41 504.812Z" fill="#455A64"/>
<path d="M1183.55 486.946C1183.63 486.986 1182.96 488.421 1181.53 490.533C1180.11 492.645 1177.87 495.408 1174.97 498.011C1172.06 500.615 1169.06 502.528 1166.8 503.697C1164.54 504.879 1163.04 505.384 1163 505.304C1162.95 505.198 1164.37 504.507 1166.54 503.232C1168.7 501.956 1171.6 500.004 1174.47 497.453C1177.32 494.89 1179.59 492.246 1181.11 490.227C1182.61 488.221 1183.45 486.893 1183.55 486.946Z" fill="#455A64"/>
<path d="M1004.04 248.959C1007.36 249.264 1010.69 246.754 1011.33 243.486C1011.97 240.218 1009.8 236.645 1006.61 235.688C1008.62 233.537 1009.06 230.07 1007.65 227.479C1006.24 224.889 1003.08 223.388 1000.18 223.906C999.999 220.997 998.206 218.247 995.615 216.919C993.025 215.59 989.744 215.723 987.273 217.264C984.005 214.581 978.825 214.594 975.557 217.291C972.728 216.839 969.673 218.407 968.411 220.984C967.149 223.561 967.76 226.935 969.845 228.901" fill="#263238"/>
<path d="M1005.05 249.889C1003.52 234.931 990.768 223.667 975.744 223.999L974.256 224.026C958.183 225.314 950.293 239.687 952.02 255.72L953.468 313.118L981.111 342.979L992.774 323.891L992.641 304.842C992.641 304.842 1008.06 302.106 1007.92 286.631C1007.86 279.165 1006.47 263.783 1005.05 249.889Z" fill="#AE7461"/>
<path d="M992.786 304.829C992.786 304.829 982.917 305.639 972.383 299.33C972.383 299.33 977.152 310.661 992.56 308.934L992.786 304.829Z" fill="#6F4439"/>
<path d="M1001.29 264.035C1001.35 265.204 1000.42 266.214 999.202 266.307C997.993 266.4 996.944 265.536 996.877 264.368C996.811 263.199 997.741 262.189 998.963 262.096C1000.18 262.003 1001.22 262.88 1001.29 264.035Z" fill="#263238"/>
<path d="M1001.88 257.527C1001.62 257.819 999.919 256.623 997.541 256.676C995.163 256.703 993.45 257.965 993.184 257.673C993.051 257.54 993.317 257.022 994.074 256.451C994.805 255.879 996.08 255.321 997.554 255.295C999.029 255.268 1000.29 255.786 1001.02 256.331C1001.75 256.876 1002.02 257.394 1001.88 257.527Z" fill="#263238"/>
<path d="M979.649 264.952C979.715 266.121 978.785 267.131 977.563 267.224C976.355 267.316 975.305 266.453 975.239 265.284C975.172 264.115 976.102 263.106 977.324 263.013C978.546 262.906 979.582 263.783 979.649 264.952Z" fill="#263238"/>
<path d="M978.533 258.47C978.268 258.762 976.567 257.566 974.19 257.62C971.812 257.646 970.098 258.908 969.833 258.616C969.7 258.496 969.965 257.965 970.723 257.394C971.453 256.823 972.728 256.265 974.203 256.238C975.677 256.211 976.939 256.73 977.67 257.274C978.4 257.819 978.653 258.337 978.533 258.47Z" fill="#263238"/>
<path d="M987.539 275.911C987.526 275.778 989 275.486 991.391 275.127C992.002 275.047 992.574 274.915 992.667 274.503C992.799 274.064 992.534 273.414 992.228 272.71C991.631 271.248 990.993 269.721 990.329 268.127C987.699 261.605 985.772 256.225 986.038 256.118C986.304 256.012 988.655 261.219 991.285 267.755C991.923 269.362 992.534 270.903 993.105 272.364C993.344 273.055 993.756 273.825 993.477 274.742C993.318 275.194 992.879 275.539 992.494 275.645C992.109 275.778 991.763 275.791 991.471 275.805C989.04 276.004 987.539 276.044 987.539 275.911Z" fill="#263238"/>
<path d="M979.077 250.367C978.772 250.978 976.726 250.367 974.215 250.34C971.705 250.26 969.606 250.779 969.354 250.154C969.247 249.862 969.686 249.304 970.576 248.799C971.466 248.295 972.821 247.896 974.322 247.923C975.823 247.962 977.138 248.414 977.975 248.959C978.825 249.503 979.21 250.074 979.077 250.367Z" fill="#263238"/>
<path d="M1001.99 249.105C1001.5 249.649 999.535 249.131 997.17 249.158C994.806 249.118 992.826 249.61 992.348 249.065C992.136 248.799 992.441 248.241 993.305 247.723C994.155 247.192 995.589 246.754 997.21 246.754C998.831 246.767 1000.25 247.219 1001.08 247.75C1001.93 248.281 1002.2 248.839 1001.99 249.105Z" fill="#263238"/>
<path d="M954.835 270.717C954.689 268.326 952.591 266.493 950.213 266.772C947.33 267.104 944.156 268.818 944.474 274.769C945.046 285.342 955.54 282.593 955.54 282.287C955.54 282.088 955.101 275.14 954.835 270.717Z" fill="#AE7461"/>
<path d="M953.029 278.435C952.976 278.408 952.856 278.568 952.551 278.727C952.258 278.886 951.74 279.006 951.182 278.833C950.04 278.488 949.004 276.761 948.858 274.862C948.778 273.905 948.937 272.975 949.23 272.205C949.509 271.408 949.987 270.85 950.545 270.717C951.103 270.558 951.514 270.876 951.661 271.169C951.82 271.461 951.767 271.673 951.82 271.687C951.847 271.713 952.033 271.501 951.926 271.062C951.873 270.85 951.74 270.611 951.475 270.425C951.209 270.226 950.837 270.146 950.439 270.212C949.628 270.319 948.937 271.102 948.605 271.952C948.233 272.816 948.034 273.852 948.127 274.928C948.313 277.053 949.509 278.993 951.063 279.351C951.82 279.511 952.431 279.245 952.737 278.979C953.016 278.687 953.055 278.448 953.029 278.435Z" fill="#6F4439"/>
<path d="M995.788 228.077C995.681 227.811 995.562 227.559 995.403 227.333C994.234 225.58 992.161 224.544 990.076 224.451C988.801 223.826 987.525 223.335 986.33 222.976C984.789 220.505 982.106 218.739 979.183 218.5C975.876 218.221 972.515 219.908 970.669 222.657C970.23 222.724 969.805 222.817 969.367 222.896C967.162 221.369 964.279 220.811 961.676 221.462C958.753 222.192 956.243 224.424 955.167 227.253C952.577 226.629 949.667 227.692 948.087 229.83C946.506 231.969 946.333 235.064 947.688 237.362C945.815 238.491 944.221 240.417 944.234 242.609C944.248 244.668 946.174 246.647 948.153 246.368C947.887 251.443 948.565 257.407 948.937 262.654C949.202 266.36 953.971 268.459 954.343 270.956C956.269 283.748 960.308 276.575 961.344 249.968C961.609 249.756 961.875 249.53 962.141 249.277C962.685 248.759 962.805 248.122 963.27 247.551C963.828 246.86 964.904 247.046 965.794 247.126C968.875 247.391 971.984 245.146 972.701 242.131C973.511 243.287 975.344 243.194 976.513 242.41C977.682 241.613 978.426 240.351 979.329 239.262C980.233 238.172 981.521 237.203 982.916 237.362C983.7 237.455 984.444 237.907 985.227 237.814C986.609 237.654 987.26 236.021 987.432 234.639C987.579 233.47 987.711 232.155 988.429 231.305C989.266 230.893 990.142 230.574 991.099 230.481C991.63 230.534 992.161 230.627 992.679 230.694C992.919 230.72 993.171 230.734 993.423 230.72C993.742 230.813 994.061 230.933 994.393 231.092C999.109 233.258 1003.4 242.848 1003.4 242.848C1003.6 236.671 1000.16 231.637 995.788 228.077Z" fill="#263238"/>
<path d="M946.321 237.92C946.308 237.92 946.347 237.867 946.414 237.761C946.48 237.668 946.587 237.508 946.746 237.336C947.065 236.99 947.583 236.512 948.367 236.1C949.15 235.702 950.226 235.343 951.488 235.356C952.737 235.343 954.211 235.715 955.447 236.738L955.168 236.831C955.593 234.745 957.174 232.673 959.432 231.438C960.561 230.813 961.836 230.375 963.204 230.202C964.572 230.03 965.981 230.123 967.389 230.415C970.125 230.986 972.516 232.261 974.548 233.59L974.243 233.696C975.159 231.278 977.006 229.512 978.905 228.595C980.831 227.652 982.797 227.572 984.312 227.825C985.853 228.077 986.968 228.648 987.672 229.1C988.031 229.326 988.284 229.525 988.443 229.658C988.602 229.804 988.695 229.884 988.682 229.884C988.655 229.91 988.31 229.618 987.593 229.206C986.875 228.808 985.76 228.29 984.259 228.077C982.771 227.864 980.885 227.984 979.038 228.914C977.218 229.817 975.465 231.531 974.602 233.842L974.509 234.081L974.296 233.935C972.29 232.633 969.926 231.398 967.282 230.84C965.927 230.561 964.546 230.468 963.244 230.627C961.942 230.787 960.707 231.212 959.618 231.796C957.439 232.965 955.938 234.931 955.5 236.897L955.433 237.176L955.208 236.99C954.065 236.021 952.67 235.635 951.475 235.622C950.266 235.582 949.23 235.901 948.446 236.26C946.892 237.057 946.374 237.986 946.321 237.92Z" fill="#455A64"/>
<path d="M988.522 230.601C988.536 230.614 988.469 230.747 988.35 231.013C988.243 231.292 988.097 231.69 987.978 232.248C987.845 232.793 987.739 233.483 987.566 234.28C987.38 235.064 987.234 236.021 986.583 236.911C986.251 237.336 985.706 237.668 985.108 237.734C984.511 237.814 983.913 237.721 983.315 237.654C982.717 237.601 982.08 237.575 981.522 237.827C980.964 238.079 980.459 238.544 980.008 239.049C979.556 239.567 979.118 240.138 978.666 240.723C978.228 241.294 977.802 241.972 977.112 242.45C976.448 242.915 975.637 243.18 974.814 243.273C974.402 243.313 973.964 243.313 973.538 243.22C973.113 243.127 972.662 242.888 972.396 242.476L972.781 242.41C972.648 243.021 972.436 243.645 972.117 244.203C971.785 244.761 971.36 245.279 970.868 245.731C969.846 246.594 968.557 247.165 967.202 247.365C966.644 247.458 966.073 247.471 965.515 247.458C964.931 247.418 964.439 247.312 963.974 247.497C963.496 247.657 963.151 247.976 962.859 248.414C962.54 248.852 962.181 249.251 961.809 249.623C960.321 251.111 958.422 252.226 956.416 252.293C954.423 252.293 952.67 251.403 951.408 250.274C950.133 249.118 949.336 247.683 949.004 246.302L949.19 246.408C947.848 246.727 946.573 246.302 945.736 245.651C944.873 245 944.474 244.11 944.301 243.393C944.142 242.662 944.195 242.091 944.275 241.706C944.315 241.52 944.355 241.374 944.394 241.281C944.434 241.188 944.448 241.148 944.461 241.148C944.527 241.148 944.115 241.945 944.461 243.34C944.634 244.017 945.045 244.854 945.869 245.439C946.666 246.036 947.875 246.395 949.11 246.089L949.256 246.05L949.296 246.196C949.628 247.511 950.412 248.892 951.647 249.981C952.869 251.057 954.57 251.881 956.403 251.868C958.249 251.801 960.069 250.739 961.504 249.304C961.862 248.945 962.208 248.547 962.513 248.135C962.792 247.697 963.27 247.232 963.842 247.059C964.12 246.966 964.426 246.926 964.718 246.94L965.529 247.006C966.06 247.019 966.604 247.006 967.136 246.913C968.424 246.727 969.646 246.182 970.59 245.385C971.054 244.974 971.453 244.495 971.758 243.977C972.064 243.446 972.25 242.888 972.383 242.304L972.502 241.812L972.781 242.237C973.18 242.835 974.07 242.928 974.814 242.848C975.584 242.769 976.328 242.529 976.926 242.104C977.537 241.693 977.935 241.055 978.4 240.47C978.865 239.899 979.29 239.315 979.768 238.797C980.247 238.279 980.765 237.787 981.416 237.495C982.08 237.216 982.771 237.256 983.382 237.322C983.993 237.389 984.577 237.495 985.108 237.429C985.64 237.375 986.105 237.11 986.41 236.725C987.008 235.941 987.194 234.998 987.393 234.227C987.579 233.444 987.712 232.753 987.858 232.208C988.004 231.664 988.177 231.252 988.31 230.986C988.429 230.72 988.522 230.588 988.522 230.601Z" fill="#455A64"/>
<path d="M980.207 280.228C979.317 282.951 980.075 285.9 982.572 287.321C983.435 287.813 984.538 287.932 985.494 287.64C986.663 287.295 987.726 286.671 988.191 285.462C988.629 284.319 988.988 283.137 988.855 281.928C986.437 281.384 982.625 280.773 980.207 280.228Z" fill="#6F4439"/>
<path d="M987.832 286.179C987.845 286.192 987.672 286.458 987.207 286.817C986.742 287.149 985.972 287.574 984.936 287.654C983.9 287.76 982.598 287.468 981.509 286.578C980.42 285.714 979.623 284.266 979.53 282.672C979.463 281.862 979.569 281.065 979.769 280.334L979.822 280.148L980.008 280.188C982.492 280.666 984.67 281.118 986.211 281.45C987.765 281.782 988.682 282.008 988.669 282.061C988.655 282.114 987.712 281.981 986.158 281.729C984.591 281.463 982.412 281.078 979.928 280.613L980.167 280.467C979.981 281.158 979.888 281.902 979.955 282.659C980.048 284.147 980.765 285.475 981.761 286.285C982.744 287.122 983.94 287.428 984.909 287.361C985.892 287.308 986.636 286.963 987.114 286.684C987.579 286.378 987.792 286.152 987.832 286.179Z" fill="#263238"/>
<path d="M975.296 714.652L973.809 748.578C973.809 748.578 1007.79 761.476 1008.13 767.773L942.247 767.255L942.393 714.307L975.296 714.652Z" fill="#455A64"/>
<path d="M953.468 745.563C952.193 745.908 951.303 747.329 951.582 748.618C951.874 749.906 953.308 750.823 954.597 750.517C955.885 750.199 957.001 748.525 956.576 747.276C956.151 746.028 954.398 745.045 953.229 745.656" fill="#E0E0E0"/>
<g opacity="0.6">
<g opacity="0.6">
<g opacity="0.6">
<g opacity="0.6">
<g opacity="0.6">
<g opacity="0.6">
<g opacity="0.6">
<g opacity="0.6">
<g opacity="0.6">
<g opacity="0.6">
<g opacity="0.6">
<path opacity="0.6" d="M942.252 767.255L942.478 761.915L1005.56 764.399C1005.56 764.399 1008.48 765.7 1008.14 767.759L942.252 767.255Z" fill="white"/>
</g>
</g>
</g>
</g>
</g>
</g>
</g>
</g>
</g>
</g>
</g>
<path d="M974.886 748.246C974.873 748.565 973.266 748.698 971.672 749.721C970.051 750.703 969.227 752.085 968.935 751.952C968.643 751.886 969.134 749.973 971.087 748.764C973.013 747.555 974.966 747.954 974.886 748.246Z" fill="#263238"/>
<path d="M981.78 751.155C981.846 751.474 980.452 752.005 979.349 753.36C978.207 754.675 977.915 756.15 977.596 756.136C977.29 756.19 977.091 754.303 978.486 752.643C979.88 750.969 981.767 750.85 981.78 751.155Z" fill="#263238"/>
<path d="M985.626 759.457C985.334 759.523 984.895 757.916 985.732 756.163C986.556 754.396 988.083 753.719 988.216 753.984C988.402 754.25 987.406 755.193 986.742 756.641C986.051 758.076 985.945 759.43 985.626 759.457Z" fill="#263238"/>
<path d="M974.363 740.475C974.23 740.767 972.756 740.316 970.936 740.422C969.116 740.488 967.695 741.099 967.535 740.82C967.349 740.581 968.744 739.412 970.883 739.306C973.021 739.187 974.522 740.223 974.363 740.475Z" fill="#263238"/>
<path d="M975.199 740.09C975.358 740.09 975.385 743.238 975.292 748.259L975.026 747.861C978.878 749.322 983.992 751.288 989.425 753.852C995.376 756.641 1000.62 759.537 1004.02 762.26C1005.72 763.602 1006.99 764.877 1007.64 765.94C1008.33 767.002 1008.23 767.799 1008.13 767.773C1008.08 767.759 1008.04 767.109 1007.29 766.192C1006.57 765.262 1005.29 764.12 1003.56 762.898C1000.12 760.4 994.871 757.637 988.96 754.861C983.567 752.311 978.493 750.252 974.72 748.644L974.441 748.525L974.455 748.246C974.773 743.211 975.039 740.09 975.199 740.09Z" fill="#263238"/>
<path d="M932.688 478.086V508.837L944.816 607.016C944.816 607.016 940.977 653.056 938.613 679.052C936.567 701.621 939.915 740.927 939.915 740.927H975.873L988.732 609.832L996.715 528.072L1011.19 479.64L932.688 478.086Z" fill="#263238"/>
<path d="M996.439 708.767L987.021 741.392C987.021 741.392 1017.01 761.915 1015.86 768.118L951.952 752.125L964.545 700.691L996.439 708.767Z" fill="#455A64"/>
<path d="M967.943 733.674C966.615 733.7 965.42 734.883 965.393 736.198C965.366 737.513 966.549 738.748 967.877 738.748C969.192 738.748 970.68 737.38 970.56 736.052C970.441 734.737 968.966 733.368 967.678 733.687" fill="#E0E0E0"/>
<g opacity="0.6">
<g opacity="0.6">
<g opacity="0.6">
<g opacity="0.6">
<g opacity="0.6">
<g opacity="0.6">
<g opacity="0.6">
<g opacity="0.6">
<g opacity="0.6">
<g opacity="0.6">
<g opacity="0.6">
<path opacity="0.6" d="M951.952 752.125L953.427 746.984L1014.16 764.239C1014.16 764.239 1016.7 766.192 1015.87 768.118L951.952 752.125Z" fill="white"/>
</g>
</g>
</g>
</g>
</g>
</g>
</g>
</g>
</g>
</g>
</g>
<path d="M988.142 741.325C988.049 741.631 986.455 741.392 984.675 742.003C982.869 742.574 981.74 743.73 981.487 743.53C981.208 743.397 982.151 741.644 984.33 740.94C986.482 740.209 988.275 741.046 988.142 741.325Z" fill="#263238"/>
<path d="M994.135 745.775C994.135 746.094 992.648 746.293 991.253 747.343C989.831 748.352 989.207 749.72 988.902 749.627C988.596 749.601 988.835 747.715 990.589 746.439C992.342 745.138 994.202 745.47 994.135 745.775Z" fill="#263238"/>
<path d="M995.952 754.742C995.647 754.742 995.607 753.068 996.842 751.567C998.064 750.053 999.698 749.747 999.765 750.039C999.871 750.345 998.702 751.022 997.706 752.271C996.683 753.506 996.271 754.795 995.952 754.742Z" fill="#263238"/>
<path d="M989.449 733.647C989.25 733.9 987.922 733.116 986.128 732.784C984.335 732.425 982.821 732.678 982.728 732.372C982.608 732.106 984.229 731.283 986.341 731.695C988.453 732.08 989.675 733.448 989.449 733.647Z" fill="#263238"/>
<path d="M1025.09 480.185L1026.73 496.909L1024.74 618.333L996.289 715.874L989.395 739.532L952.666 732.611L980.973 480.225L1025.09 480.185Z" fill="#263238"/>
<path d="M1023.99 620.87C1023.99 620.87 1023.95 621.07 1023.86 621.442C1023.75 621.84 1023.59 622.398 1023.39 623.129C1022.97 624.63 1022.34 626.821 1021.55 629.664C1019.9 635.389 1017.51 643.705 1014.49 654.185C1008.41 675.187 999.8 704.849 989.718 739.612L989.638 739.891L989.346 739.838C977.736 737.659 965.396 735.334 952.617 732.943L952.285 732.877L952.352 732.545C954.225 722.649 956.191 712.301 958.183 701.754C964.121 670.524 969.713 641.061 974.601 615.318V615.424C968.518 577.234 963.669 546.788 960.88 529.307L960.893 529.347C958.223 524.485 956.164 520.739 954.756 518.189C954.078 516.927 953.547 515.971 953.188 515.306C952.843 514.655 952.684 514.31 952.684 514.31C952.684 514.31 952.883 514.629 953.255 515.266C953.627 515.931 954.171 516.874 954.889 518.122C956.323 520.66 958.422 524.392 961.145 529.214L961.159 529.241V529.267C964.014 546.735 968.983 577.168 975.199 615.331L975.212 615.384L975.199 615.437C970.337 641.181 964.758 670.644 958.86 701.887C956.855 712.434 954.902 722.768 953.016 732.664L952.75 732.266C965.529 734.683 977.869 737.008 989.479 739.2L989.107 739.426C999.282 704.703 1007.97 675.054 1014.12 654.066C1017.21 643.598 1019.66 635.31 1021.35 629.598C1022.2 626.768 1022.85 624.59 1023.3 623.089C1023.52 622.371 1023.7 621.814 1023.82 621.415C1023.91 621.07 1023.99 620.87 1023.99 620.87Z" fill="#455A64"/>
<path d="M1018.49 490.147C1018.56 490.187 1017.9 491.396 1016.48 493.083C1015.08 494.77 1012.84 496.895 1009.96 498.649C1007.08 500.402 1004.17 501.425 1002.02 501.89C999.866 502.368 998.498 502.395 998.498 502.315C998.431 502.089 1003.94 501.545 1009.6 498.051C1015.31 494.637 1018.32 489.975 1018.49 490.147Z" fill="#455A64"/>
<path d="M914.308 393.722C914.308 393.722 910.03 421.219 912.9 432.098C915.769 442.978 939.055 470.475 939.055 470.475L970.829 450.563L949.894 398.571L914.308 393.722Z" fill="#AE7461"/>
<path d="M943.704 325.485C943.704 325.485 961.956 325.751 962.221 348.492C962.487 371.233 957.572 401.653 957.572 401.653L911 393.443C911 393.443 916.778 351.109 921.707 338.915C926.675 326.641 936.159 323.413 943.704 325.485Z" fill="#EFB7B7"/>
<path d="M952.365 309.106L951.781 312.813C951.781 312.813 926.887 329.257 925.479 333.508C923.301 340.097 928.056 395.688 930.155 411.443C932.254 427.197 932.679 461.933 932.679 461.933C931.151 466.025 929.411 469.717 928.84 475.416C928.269 481.075 932.679 486.242 932.679 486.242C959.392 494.956 992.016 488.261 1027.31 480.225L1026.98 470.222L1015.44 361.523C1015.44 361.523 1018.8 333.269 1005.02 325.1C1003.51 324.196 991.485 317.369 991.485 317.369L952.365 309.106Z" fill="#EFB7B7"/>
<path opacity="0.3" d="M992.388 356.223C992.388 356.223 992.176 371.871 1000.58 389.751C1009.01 407.63 1021.52 418.802 1021.52 418.802L1017.79 386.284L992.388 356.223Z" fill="#EFB7B7"/>
<path d="M1013.3 328.793C1008.93 325.259 1000.81 323.346 996.187 326.521C994.128 327.929 991.724 330.068 990.568 333.442C986.61 344.998 988.974 357.432 992.136 366.651C995.297 375.869 1010.59 393.643 1010.59 393.643L1048.35 370.715C1048.35 370.715 1023.07 340.084 1020.44 336.922C1019.06 335.248 1015.71 330.745 1013.3 328.793Z" fill="#EFB7B7"/>
<path d="M1013.3 328.793C1013.3 328.793 1013.59 328.979 1014.09 329.43C1014.6 329.882 1015.3 330.586 1016.18 331.542C1017.93 333.468 1020.23 336.47 1023.35 340.137C1029.52 347.562 1038.24 358.056 1048.59 370.503L1048.82 370.782L1048.51 370.968C1037.83 377.463 1025.68 384.862 1012.83 392.66C1012.13 393.085 1011.42 393.523 1010.76 393.908L1010.51 394.068L1010.32 393.842C1006.1 388.847 1002.18 383.826 998.658 378.792C996.905 376.268 995.258 373.731 993.836 371.114C993.132 369.812 992.495 368.484 991.977 367.102C991.472 365.734 991.06 364.366 990.662 363.011C987.513 352.172 987.434 341.531 990.303 333.429C990.994 331.37 992.216 329.643 993.61 328.301C995.019 326.999 996.506 325.844 998.167 325.312C999.801 324.781 1001.42 324.675 1002.87 324.754C1004.33 324.834 1005.63 325.086 1006.77 325.419C1009.07 326.056 1010.72 326.973 1011.77 327.624C1012.83 328.314 1013.3 328.793 1013.3 328.793C1013.27 328.832 1012.78 328.394 1011.7 327.77C1010.63 327.159 1008.99 326.295 1006.71 325.698C1005.58 325.392 1004.28 325.153 1002.86 325.1C1001.43 325.047 999.867 325.153 998.3 325.698C996.732 326.202 995.297 327.345 993.929 328.633C992.588 329.948 991.419 331.622 990.768 333.601C987.992 341.598 988.111 352.105 991.273 362.851C991.671 364.193 992.083 365.561 992.588 366.89C993.092 368.218 993.717 369.52 994.421 370.808C995.816 373.385 997.463 375.909 999.216 378.406C1002.72 383.428 1006.65 388.436 1010.85 393.404L1010.41 393.337C1011.06 392.939 1011.77 392.514 1012.49 392.088C1025.34 384.304 1037.5 376.932 1048.21 370.45L1048.13 370.915C1037.86 358.402 1029.2 347.841 1023.07 340.389C1020 336.696 1017.73 333.641 1016.03 331.688C1015.2 330.705 1014.51 329.988 1014.03 329.51C1013.55 329.032 1013.28 328.806 1013.3 328.793Z" fill="#EFB7B7"/>
<path d="M925.001 346.101C925.028 346.101 925.068 346.327 925.108 346.765C925.161 347.283 925.214 347.908 925.28 348.665C925.413 350.418 925.573 352.783 925.785 355.652C926.17 361.643 926.675 369.746 927.246 378.699C927.831 387.692 928.455 395.834 928.986 401.719C929.252 404.575 929.478 406.939 929.637 408.68C929.704 409.437 929.757 410.061 929.797 410.579C929.823 411.018 929.837 411.243 929.81 411.243C929.783 411.243 929.73 411.018 929.664 410.592C929.584 410.088 929.491 409.463 929.372 408.706C929.133 407.072 928.827 404.695 928.508 401.759C927.844 395.888 927.153 387.745 926.569 378.739C925.984 369.732 925.573 361.576 925.307 355.678C925.187 352.809 925.094 350.445 925.028 348.678C925.015 347.921 925.001 347.283 924.988 346.778C924.962 346.327 924.975 346.101 925.001 346.101Z" fill="#EFB7B7"/>
<path d="M1008.5 478.086C1008.5 478.113 1008.26 478.179 1007.8 478.298C1007.25 478.431 1006.59 478.591 1005.76 478.79C1004.87 479.003 1003.78 479.242 1002.52 479.467C1001.25 479.72 999.813 479.999 998.193 480.238C994.978 480.796 991.126 481.234 986.835 481.659C982.545 482.018 977.816 482.284 972.848 482.35C967.88 482.39 963.137 482.217 958.834 481.925C954.543 481.58 950.678 481.194 947.463 480.663C945.842 480.437 944.394 480.171 943.132 479.932C941.857 479.707 940.768 479.481 939.878 479.268C939.054 479.069 938.377 478.91 937.846 478.777C937.381 478.657 937.142 478.577 937.142 478.564C937.142 478.551 937.394 478.564 937.872 478.644C938.417 478.737 939.108 478.856 939.931 479.003C940.821 479.175 941.924 479.361 943.199 479.547C944.474 479.76 945.922 479.985 947.529 480.171C950.744 480.636 954.596 480.968 958.873 481.274C963.164 481.526 967.88 481.672 972.834 481.633C977.789 481.566 982.505 481.327 986.782 481.008C991.059 480.623 994.898 480.225 998.113 479.746C999.72 479.534 1001.17 479.295 1002.44 479.082C1003.72 478.883 1004.81 478.697 1005.71 478.511C1006.55 478.365 1007.23 478.245 1007.77 478.139C1008.25 478.099 1008.5 478.073 1008.5 478.086Z" fill="#EFB7B7"/>
<path d="M1194.46 332.446H1178.56C1174.84 333.747 1150.6 370.822 1150.6 370.822L1175.91 398.903L1188.13 372.987L1194.46 332.446Z" fill="#BD4B4B"/>
<path d="M1178.56 332.446L1211.42 322.377C1211.42 322.377 1211.27 330.307 1222.74 330.559C1235.94 330.852 1247.03 319.242 1247.03 319.242C1247.03 319.242 1274.49 327.796 1280.26 332.446C1286.02 337.095 1267.18 434.237 1267.18 434.237L1265.47 463.169C1265.47 463.169 1268.3 467.844 1268.3 472.866C1268.3 477.887 1268.49 481.234 1268.49 481.234C1233.28 491.848 1198.35 501.053 1166.2 490.772C1166.2 490.772 1167 473.702 1168.86 469.053C1170.72 464.404 1170.37 463.979 1170.37 463.979L1173.44 410.566L1174 370.397L1178.56 332.446Z" fill="#BD4B4B"/>
<path d="M1292.41 375.644C1292.41 375.644 1296.01 432.391 1295.98 440.746C1295.96 446.936 1282.5 511.693 1282.5 511.693L1262.5 504.959L1269.52 442.021L1262.5 375.63H1292.41V375.644Z" fill="#FFBF9D"/>
<path d="M1280.54 332.392C1280.54 332.392 1289.22 338.304 1291.63 350.378C1294.05 362.466 1299.37 392.54 1299.37 392.54L1256.41 394.24C1256.41 394.24 1258.99 373.345 1258.99 372.03C1258.99 370.715 1266.27 341.943 1266.71 341.279C1267.15 340.628 1280.54 332.392 1280.54 332.392Z" fill="#BD4B4B"/>
<path d="M1174.05 347.257C1174.24 347.257 1174.35 359.61 1174.28 374.846C1174.21 390.083 1174 402.436 1173.81 402.436C1173.63 402.436 1173.52 390.083 1173.59 374.833C1173.65 359.61 1173.87 347.257 1174.05 347.257Z" fill="#BD4B4B"/>
<path d="M1299.37 392.553C1299.37 392.58 1299.09 392.607 1298.57 392.66C1297.97 392.7 1297.22 392.753 1296.27 392.819C1294.19 392.939 1291.31 393.098 1287.76 393.284C1280.47 393.629 1270.5 394.094 1259.36 394.612L1259.03 394.626L1259 394.294C1258.93 393.417 1258.87 392.474 1258.79 391.531C1257.96 379.695 1258.55 368.949 1259.41 361.244C1259.84 357.392 1260.32 354.284 1260.69 352.145C1260.87 351.082 1261.05 350.245 1261.15 349.688C1261.27 349.13 1261.34 348.837 1261.36 348.837C1261.39 348.837 1261.36 349.143 1261.29 349.701C1261.19 350.338 1261.09 351.162 1260.95 352.172C1260.66 354.323 1260.26 357.419 1259.89 361.271C1259.16 368.975 1258.64 379.682 1259.47 391.464C1259.53 392.407 1259.61 393.337 1259.68 394.214L1259.32 393.895C1270.46 393.457 1280.44 393.071 1287.72 392.793C1291.27 392.686 1294.15 392.593 1296.23 392.54C1297.18 392.527 1297.95 392.514 1298.55 392.5C1299.09 392.514 1299.37 392.527 1299.37 392.553Z" fill="#BD4B4B"/>
<path d="M1274.12 333.083C1274.22 333.269 1271.11 334.85 1268.1 337.812C1265.06 340.748 1263.41 343.816 1263.21 343.697C1263.05 343.644 1264.47 340.336 1267.61 337.307C1270.73 334.252 1274.08 332.924 1274.12 333.083Z" fill="#BD4B4B"/>
<path d="M1262.12 509.448C1262.12 509.448 1254.13 515.479 1252.37 517.857C1250.62 520.235 1246.29 528.736 1243.05 531.22C1243.05 531.22 1243.71 534.541 1246.91 532.88C1250.11 531.22 1253.98 527.62 1255.35 525.548C1256.72 523.476 1258.14 524.698 1258.22 526.504C1258.3 528.311 1256.74 540.558 1256.74 540.558C1256.74 540.558 1252.92 554.174 1253.95 555.702C1254.99 557.229 1257.11 556.87 1257.84 555.887C1258.36 555.17 1262.68 543.799 1262.68 543.799L1263.78 537.609C1263.78 537.609 1261.56 557.216 1262.8 558.743C1264.05 560.284 1265.38 559.687 1266.24 558.903C1267.1 558.119 1267.99 549.458 1267.99 549.458L1270.01 537.888L1269.65 559.926C1269.65 559.926 1269.88 562.011 1271.53 562.091C1273.16 562.171 1274.26 559.753 1274.26 559.753L1276.63 537.038C1276.63 537.038 1275.87 549.671 1276.71 550.322C1277.84 551.198 1278.87 550.919 1279.24 549.95C1280 547.984 1281.12 536.626 1281.12 536.626L1282.15 515.001L1283.27 504.587L1263.04 503.258L1262.12 509.448Z" fill="#FFBF9D"/>
<path d="M1254.76 472.533C1254.78 472.56 1254.52 472.68 1254.03 472.879C1253.48 473.105 1252.77 473.384 1251.91 473.742C1250.06 474.486 1247.34 475.469 1243.95 476.572C1240.56 477.687 1236.49 478.87 1231.9 480.012C1227.32 481.128 1222.23 482.191 1216.85 483.041C1211.47 483.878 1206.31 484.409 1201.6 484.754C1196.9 485.06 1192.65 485.193 1189.08 485.166C1185.5 485.153 1182.62 485.047 1180.63 484.9C1179.7 484.834 1178.94 484.781 1178.34 484.728C1177.83 484.688 1177.55 484.648 1177.55 484.621C1177.55 484.595 1177.83 484.582 1178.34 484.582C1178.94 484.595 1179.7 484.608 1180.64 484.621C1182.63 484.688 1185.52 484.701 1189.08 484.661C1192.64 484.635 1196.87 484.449 1201.56 484.103C1206.25 483.731 1211.39 483.16 1216.76 482.337C1222.11 481.487 1227.19 480.437 1231.76 479.361C1236.33 478.245 1240.42 477.13 1243.81 476.067C1247.21 475.017 1249.94 474.114 1251.81 473.45C1252.7 473.144 1253.42 472.905 1253.99 472.719C1254.48 472.587 1254.75 472.52 1254.76 472.533Z" fill="#BD4B4B"/>
<path d="M1258.42 381.873C1258.42 381.887 1258.35 381.927 1258.22 382.006C1258.08 382.073 1257.89 382.206 1257.59 382.312C1257.04 382.551 1256.16 382.817 1255 382.923C1252.68 383.162 1249.28 382.431 1245.61 380.545C1243.76 379.642 1241.81 378.526 1239.61 377.609C1238.5 377.158 1237.34 376.773 1236.1 376.534C1235.49 376.401 1234.85 376.387 1234.2 376.348C1233.88 376.334 1233.55 376.294 1233.23 376.294L1232.25 376.374C1229.6 376.6 1226.92 377.57 1224.3 378.871C1221.69 380.173 1219.1 381.807 1216.37 383.361C1213.65 384.915 1210.88 386.323 1207.98 387.107C1205.08 387.904 1202.08 387.917 1199.41 387.227C1196.73 386.563 1194.36 385.46 1192.19 384.424C1190.01 383.388 1188 382.378 1186.1 381.674C1182.29 380.226 1178.91 379.961 1176.7 380.386C1174.45 380.784 1173.39 381.568 1173.35 381.475C1173.34 381.448 1173.6 381.289 1174.13 380.983C1174.68 380.731 1175.5 380.333 1176.64 380.12C1178.91 379.602 1182.38 379.801 1186.27 381.209C1188.23 381.887 1190.26 382.883 1192.44 383.893C1194.62 384.902 1196.97 385.965 1199.57 386.589C1202.16 387.24 1205.02 387.2 1207.82 386.43C1210.62 385.673 1213.35 384.278 1216.06 382.737C1218.77 381.196 1221.36 379.562 1224.03 378.247C1226.68 376.932 1229.45 375.922 1232.21 375.71L1233.23 375.63C1233.58 375.63 1233.91 375.67 1234.25 375.683C1234.93 375.723 1235.6 375.763 1236.23 375.896C1237.52 376.162 1238.72 376.573 1239.85 377.052C1242.09 378.008 1244.03 379.15 1245.85 380.08C1249.45 382.006 1252.73 382.777 1255 382.631C1257.26 382.511 1258.39 381.78 1258.42 381.873Z" fill="#BD4B4B"/>
<path d="M1260.21 388.94C1260.22 388.954 1260 389.179 1259.52 389.591C1259.02 389.95 1258.24 390.468 1257.1 390.8C1254.83 391.504 1251.23 391.305 1247.38 389.565C1245.45 388.701 1243.5 387.519 1241.33 386.403C1239.18 385.301 1236.78 384.198 1234.1 383.986C1231.4 383.733 1228.61 384.583 1226.01 385.978C1223.39 387.36 1220.93 389.272 1218.31 391.079C1215.7 392.872 1212.99 394.573 1210.03 395.383C1207.06 396.246 1204.02 396.034 1201.32 395.396C1195.89 394.081 1191.52 391.597 1187.59 390.335C1183.67 388.98 1180.28 388.621 1178 388.914C1175.7 389.166 1174.53 389.804 1174.51 389.711C1174.49 389.684 1174.78 389.551 1175.36 389.312C1175.93 389.1 1176.8 388.821 1177.97 388.648C1180.3 388.263 1183.78 388.555 1187.75 389.87C1191.76 391.092 1196.16 393.536 1201.48 394.772C1204.13 395.37 1207.04 395.556 1209.87 394.719C1212.71 393.935 1215.35 392.288 1217.94 390.508C1220.55 388.714 1223.02 386.802 1225.7 385.38C1228.36 383.959 1231.32 383.069 1234.16 383.348C1237 383.587 1239.46 384.756 1241.63 385.898C1243.79 387.054 1245.74 388.25 1247.6 389.126C1251.35 390.88 1254.83 391.145 1257.05 390.548C1259.27 389.923 1260.16 388.847 1260.21 388.94Z" fill="#BD4B4B"/>
</svg>
