<svg width="1440" height="917" viewBox="0 0 1440 917" fill="none" xmlns="http://www.w3.org/2000/svg">
<rect width="1440" height="917" fill="#EEEEEE"/>
<g clip-path="url(#clip0_83_47)">
<path d="M1162.96 333.039C1163.81 334.569 1168.66 347.566 1162.81 360.664C1156.95 373.761 1142.46 364.653 1142.46 364.653V340.491L1162.96 333.039Z" fill="#F48462"/>
<path d="M1112.17 441.633C1112.17 441.633 1132.39 445.723 1148.89 435.235C1165.39 424.747 1160.92 360.664 1160.92 360.664H1135.51L1120.56 395.842L1112.17 441.633Z" fill="#F48462"/>
<path d="M1111.65 706.946V727.42L1150.27 725.99V706.946H1111.65Z" fill="#F48462"/>
<path d="M1022.48 704.638V725.112L1058.25 723.682V704.638H1022.48Z" fill="#F48462"/>
<path d="M1100.14 478.743C1100.14 478.743 1128 522.828 1144.52 593.409C1159.59 657.793 1162.83 711.036 1162.83 711.036H1097.66C1097.66 711.036 1090.4 658.545 1088.49 637.77C1086.58 616.995 1080.13 589.194 1080.13 589.194C1080.13 589.194 1071.18 709.004 1069.05 711.036C1066.91 713.068 1004.55 711.488 1005.21 708.728C1005.88 705.968 1018.34 517.057 1020.05 503.959C1025.25 463.688 1100.14 478.743 1100.14 478.743Z" fill="#193948"/>
<path d="M1067.12 758.985C1067.12 762.598 1065.91 766.738 1063.4 767.792C1060.91 768.846 1040.74 771.004 1023.11 769.473C1006.24 767.993 1002.72 766.763 1001.49 765.233C1000.89 764.455 1002.07 760.842 1003.42 757.329C1003.5 757.153 1003.57 756.953 1003.65 756.777C1004.35 755.021 1005.08 753.314 1005.58 752.085C1006.11 750.931 1006.74 749.827 1007.49 748.748C1009.32 746.239 1012.94 741.02 1013.87 738.335C1015.08 734.747 1016.93 726.994 1018.19 723.356C1019.45 719.768 1022.49 719.015 1022.49 719.015C1022.49 719.015 1057.22 716.631 1059.71 718.714C1062.17 720.771 1063.42 737.833 1063.42 740.418V743.002C1063.42 745.411 1065.08 750.153 1066.14 754.092C1066.44 755.071 1066.66 755.999 1066.84 756.852C1066.99 757.655 1067.12 758.383 1067.12 758.985Z" fill="#4FAEC0"/>
<path d="M1212.41 766.362C1210.1 767.315 1111.55 770 1109.26 766.362C1108.56 765.258 1108.08 761.519 1107.75 756.852C1106.95 745.812 1106.95 729.378 1106.95 729.378C1106.95 729.378 1106.22 723.757 1106.37 721.173C1106.5 718.588 1153.89 719.592 1153.89 719.592L1184.71 743.855C1184.71 743.855 1193.17 742.35 1202.41 743.855C1207.31 744.633 1210.48 750.63 1212.03 756.275C1213.39 761.243 1213.52 765.91 1212.41 766.362Z" fill="#4FAEC0"/>
<path d="M1212.41 766.362C1210.1 767.315 1111.55 770 1109.26 766.362C1108.56 765.258 1108.08 761.519 1107.75 756.852C1126.49 758.182 1172.6 760.691 1212.01 756.25C1213.39 761.243 1213.52 765.91 1212.41 766.362Z" fill="#286C7C"/>
<path d="M1067.12 758.985C1067.12 762.598 1065.91 766.738 1063.4 767.792C1060.91 768.846 1040.74 771.004 1023.11 769.473C1006.24 767.993 1002.72 766.763 1001.49 765.233C1000.89 764.455 1002.07 760.842 1003.42 757.329C1019.09 758.508 1047.37 759.587 1066.11 754.092C1066.41 755.071 1066.64 755.999 1066.81 756.852C1066.99 757.655 1067.12 758.383 1067.12 758.985Z" fill="#286C7C"/>
<path d="M1080.13 589.921C1079.67 589.896 1079.37 589.545 1079.4 589.143C1079.42 588.892 1081.46 563.099 1082.03 551.657C1082.61 540.241 1082.64 534.771 1082.64 534.721C1082.64 534.445 1082.81 534.169 1083.06 534.068L1104.16 524.684C1104.51 524.534 1104.97 524.684 1105.12 525.061C1105.27 525.437 1105.12 525.864 1104.74 526.014L1084.07 535.223C1084.04 536.778 1083.94 542.173 1083.47 551.758C1082.89 563.199 1080.85 589.018 1080.83 589.294C1080.83 589.645 1080.5 589.921 1080.13 589.921Z" fill="black"/>
<path d="M1023.39 736.93C1023.06 736.93 1022.79 736.704 1022.69 736.403C1022.59 736.027 1022.81 735.625 1023.19 735.525C1023.77 735.374 1037.18 731.811 1044.29 733.041L1048.45 733.768C1044.66 730.983 1036.9 726.091 1032.1 728.123C1031.75 728.273 1031.3 728.123 1031.15 727.747C1031 727.37 1031.18 726.944 1031.53 726.793C1038.86 723.657 1051.12 733.969 1051.64 734.421C1051.9 734.622 1051.97 734.973 1051.82 735.274C1051.67 735.575 1051.37 735.751 1051.04 735.675L1044.01 734.471C1037.2 733.317 1023.67 736.905 1023.54 736.93C1023.51 736.93 1023.44 736.93 1023.39 736.93Z" fill="#FFBA57"/>
<path d="M1177.3 738.737C1177.22 738.737 1159.67 736.93 1159.67 736.93C1159.39 736.905 1159.16 736.729 1159.06 736.478C1158.96 736.227 1159.01 735.951 1159.19 735.751L1165.32 728.549C1165.57 728.248 1166.02 728.198 1166.35 728.474C1166.65 728.725 1166.7 729.202 1166.42 729.503L1161.2 735.65L1177.4 737.306C1177.8 737.356 1178.08 737.708 1178.05 738.109C1177.98 738.461 1177.68 738.737 1177.3 738.737Z" fill="#FFBA57"/>
<path d="M1051.32 378.554C1051.32 378.554 1032.1 378.479 1021.73 388.59C1011.36 398.677 1020.07 497.486 1020.07 497.486C1020.07 497.486 1055.91 501.676 1075.55 497.486C1095.2 493.295 1107.33 484.714 1107.33 484.714C1107.33 484.714 1101 393.056 1095.6 383.346C1090.17 373.636 1051.32 378.554 1051.32 378.554Z" fill="#EFB7B7"/>
<path d="M1047.5 371.478L1047.6 383.898C1047.6 383.898 1052.35 387.812 1058.35 387.812C1066.46 387.812 1069.2 381.565 1069.2 381.565L1068.9 367.012L1047.5 371.478Z" fill="#F48462"/>
<path d="M1047.5 371.177C1047.5 371.177 1052.4 381.213 1061.57 379.708C1068.95 378.479 1068.87 368.066 1068.87 368.066L1047.5 371.177Z" fill="black"/>
<path d="M1072.01 335.372C1072.01 335.372 1076.68 357.528 1069.63 368.267C1062.57 379.031 1053.13 376.07 1048.86 372.883C1043.1 368.618 1041.82 362.571 1041.82 362.571C1041.82 362.571 1034.04 364.252 1031.33 357.929C1028.49 351.28 1033.26 345.81 1037.15 345.434C1041.05 345.057 1041.52 345.76 1041.52 345.76L1040.27 338.634C1040.27 338.684 1063.57 311.912 1072.01 335.372Z" fill="#F48462"/>
<path d="M1068.42 345.86C1068.42 345.86 1080.18 340.616 1081.26 349.749C1082.51 360.338 1069.8 360.664 1069.8 360.664L1068.42 345.86Z" fill="#F48462"/>
<path d="M1074.47 355.345C1074.35 355.345 1074.22 355.319 1074.12 355.244C1073.77 355.043 1073.65 354.617 1073.85 354.266L1077.69 347.441C1077.89 347.09 1078.32 346.964 1078.67 347.165C1079.02 347.366 1079.15 347.792 1078.95 348.143L1075.1 354.968C1074.98 355.194 1074.73 355.345 1074.47 355.345Z" fill="black"/>
<path d="M1040.42 356.148C1040.27 356.148 1040.09 356.097 1039.97 355.972L1033.86 350.903C1033.56 350.653 1033.51 350.201 1033.76 349.875C1034.01 349.574 1034.47 349.523 1034.79 349.774L1040.89 354.843C1041.2 355.094 1041.25 355.545 1041 355.872C1040.84 356.047 1040.64 356.148 1040.42 356.148Z" fill="black"/>
<path d="M1034.87 357.176C1034.64 357.176 1034.44 357.076 1034.29 356.9C1034.04 356.599 1034.09 356.122 1034.42 355.897L1037.93 353.162C1038.23 352.911 1038.71 352.961 1038.94 353.287C1039.19 353.613 1039.14 354.065 1038.81 354.291L1035.29 357.026C1035.19 357.126 1035.04 357.176 1034.87 357.176Z" fill="black"/>
<path d="M1079.05 353.237H1075.68C1075.28 353.237 1074.95 352.911 1074.95 352.509C1074.95 352.108 1075.28 351.782 1075.68 351.782H1079.05C1079.45 351.782 1079.77 352.108 1079.77 352.509C1079.77 352.911 1079.45 353.237 1079.05 353.237Z" fill="black"/>
<path d="M1053.15 350.377C1052.77 350.377 1052.47 350.101 1052.42 349.724L1052.02 345.91C1051.97 345.509 1052.27 345.158 1052.67 345.107C1053.05 345.057 1053.43 345.358 1053.48 345.76L1053.88 349.574C1053.93 349.975 1053.63 350.326 1053.23 350.377C1053.2 350.377 1053.18 350.377 1053.15 350.377Z" fill="black"/>
<path d="M1067.74 348.896C1067.37 348.896 1067.07 348.62 1067.02 348.244L1066.64 344.43C1066.59 344.028 1066.89 343.677 1067.29 343.627C1067.69 343.602 1068.05 343.878 1068.1 344.279L1068.5 348.093C1068.55 348.495 1068.25 348.846 1067.84 348.896C1067.79 348.896 1067.77 348.896 1067.74 348.896Z" fill="black"/>
<path d="M1061.54 359.184C1061.04 359.108 1060.76 358.757 1060.81 358.356C1061.64 352.71 1059.61 348.118 1059.58 348.068C1059.41 347.717 1059.58 347.265 1059.93 347.115C1060.31 346.939 1060.74 347.115 1060.89 347.466C1060.99 347.667 1063.15 352.484 1062.24 358.556C1062.19 358.933 1061.89 359.184 1061.54 359.184Z" fill="black"/>
<path d="M1068.47 341.946C1068.35 341.946 1068.25 341.921 1068.15 341.871C1066.69 341.118 1064.45 341.67 1064.43 341.67C1064.05 341.77 1063.65 341.544 1063.55 341.143C1063.45 340.767 1063.67 340.365 1064.08 340.265C1064.18 340.24 1066.86 339.562 1068.82 340.591C1069.18 340.767 1069.33 341.218 1069.12 341.57C1068.97 341.82 1068.72 341.946 1068.47 341.946Z" fill="black"/>
<path d="M1050.04 343.753C1049.86 343.753 1049.66 343.677 1049.53 343.552C1049.26 343.276 1049.23 342.824 1049.53 342.523C1051.07 340.942 1053.83 340.742 1053.93 340.742C1054.31 340.742 1054.68 341.018 1054.71 341.419C1054.73 341.82 1054.43 342.172 1054.03 342.197C1054.01 342.197 1051.72 342.372 1050.56 343.552C1050.41 343.677 1050.24 343.753 1050.04 343.753Z" fill="black"/>
<path d="M1045.01 347.767C1045.01 347.767 1050.67 343.953 1050.34 338.132C1050.01 332.336 1048.73 330.856 1048.73 330.856C1048.73 330.856 1054.56 333.942 1061.79 331.759C1069.98 329.3 1074.5 318.034 1070.03 314.973C1065.06 311.561 1052.95 316.378 1052.95 316.378C1052.95 316.378 1040.27 315.676 1032 325.737C1023.74 335.799 1033.01 347.642 1033.01 347.642C1033.01 347.642 1035.45 342.473 1045.01 347.767Z" fill="black"/>
<path d="M1060.33 365.356C1057.12 365.356 1054.53 362.721 1054.41 362.596C1054.13 362.32 1054.13 361.843 1054.43 361.567C1054.71 361.291 1055.19 361.291 1055.46 361.592C1055.49 361.617 1058.5 364.678 1061.59 363.725C1061.97 363.6 1062.37 363.825 1062.49 364.202C1062.62 364.578 1062.39 364.98 1062.02 365.105C1061.44 365.281 1060.89 365.356 1060.33 365.356Z" fill="black"/>
<path d="M1067.74 322.149C1067.74 322.149 1073.19 327.117 1074.47 333.189C1075.76 339.261 1074.47 344.38 1074.47 344.38L1073.24 344.355C1073.24 344.355 1070.31 329.651 1065.56 328.296C1060.81 326.967 1067.74 322.149 1067.74 322.149Z" fill="black"/>
<path d="M1038.06 380.486C1038.06 380.486 1005.53 383.171 991.442 405.778C977.327 428.385 976.247 448.709 976.247 448.709L1026.91 441.633L1038.06 380.486Z" fill="#EFB7B7"/>
<path d="M1092.31 441.633L1118.8 442.762L1120.56 395.842C1120.56 395.842 1094.54 379.432 1084.02 378.152C1073.5 376.873 1092.31 441.633 1092.31 441.633Z" fill="#EFB7B7"/>
<path d="M982.401 447.83C982.401 447.83 979.437 485.291 1007.14 481.402C1038.58 476.986 1054.93 412.126 1054.93 412.126L1064.33 406.355C1064.33 406.355 1062.52 413.757 1070.05 409.767C1077.56 405.778 1076.08 398.326 1076.08 398.326L1067.29 383.271C1067.29 383.271 1080.28 371.227 1076.43 370.625C1070.51 369.697 1052.05 381.991 1052.05 381.991C1052.05 381.991 1053.05 374.564 1048.76 375.794C1044.14 377.124 1042.48 390.798 1042.48 390.798L993.15 445.296L982.401 447.83Z" fill="#F48462"/>
<path d="M1064.3 407.082C1064.1 407.082 1063.88 406.982 1063.75 406.831C1063.55 406.581 1063.52 406.204 1063.73 405.953L1067.17 401.111C1067.39 400.785 1067.84 400.709 1068.17 400.935C1068.5 401.161 1068.57 401.613 1068.35 401.939L1066.49 404.548L1069.15 403.294C1069.5 403.118 1069.95 403.269 1070.1 403.645C1070.28 403.996 1070.13 404.448 1069.75 404.598L1064.58 407.007C1064.53 407.082 1064.43 407.082 1064.3 407.082Z" fill="black"/>
<path d="M1044.94 388.54C1044.74 388.54 1044.51 388.44 1044.39 388.264C1044.13 387.963 1044.18 387.511 1044.49 387.235L1053.53 379.833C1053.83 379.583 1054.28 379.633 1054.56 379.934C1054.81 380.235 1054.76 380.687 1054.46 380.963L1045.42 388.364C1045.26 388.49 1045.11 388.54 1044.94 388.54Z" fill="black"/>
<path d="M1063.9 386.282C1063.67 386.282 1063.45 386.182 1063.3 385.956C1063.07 385.63 1063.17 385.178 1063.5 384.952L1066.84 382.694C1067.17 382.468 1067.62 382.568 1067.84 382.895C1068.07 383.221 1067.97 383.672 1067.64 383.898L1064.3 386.156C1064.18 386.257 1064.05 386.282 1063.9 386.282Z" fill="black"/>
<path d="M1023.39 525.738C1023.16 525.738 1022.94 525.638 1022.79 525.437C1022.56 525.111 1022.64 524.659 1022.96 524.433C1033.79 516.881 1036.63 505.891 1036.68 505.791C1036.78 505.414 1037.15 505.163 1037.55 505.264C1037.93 505.364 1038.18 505.741 1038.08 506.142C1037.96 506.619 1035.09 517.759 1023.82 525.638C1023.67 525.688 1023.52 525.738 1023.39 525.738Z" fill="black"/>
<path d="M1193.75 359.836L1147.81 358.632C1145.12 358.556 1142.99 356.323 1143.07 353.613L1143.69 330.304C1143.77 327.619 1146 325.486 1148.72 325.561L1194.65 326.766C1197.34 326.841 1199.48 329.074 1199.4 331.784L1198.77 355.094C1198.7 357.778 1196.46 359.911 1193.75 359.836Z" fill="#286C7C"/>
<path d="M1186.77 356.976L1149.67 355.997C1147.44 355.947 1145.7 354.09 1145.75 351.857L1146.28 332.16C1146.33 329.927 1148.19 328.196 1150.42 328.246L1187.52 329.225C1189.76 329.275 1191.49 331.132 1191.44 333.365L1190.91 353.061C1190.84 355.294 1188.98 357.026 1186.77 356.976Z" fill="white"/>
<path d="M1197.06 343.376C1197.04 344.53 1196.08 345.434 1194.93 345.409C1193.77 345.383 1192.87 344.43 1192.9 343.276C1192.92 342.122 1193.87 341.218 1195.03 341.243C1196.19 341.268 1197.09 342.222 1197.06 343.376Z" fill="#3F9E97"/>
<path d="M1135.51 362.872C1135.51 362.872 1131.46 348.394 1134.25 343.677C1137.06 338.96 1143.89 334.143 1149.82 335.472C1155.72 336.802 1145.78 344.932 1145.78 344.932C1145.78 344.932 1152.01 358.632 1147.96 365.13C1143.92 371.629 1135.51 362.872 1135.51 362.872Z" fill="#F48462"/>
<path d="M1145.7 367.89C1145.4 367.89 1145.13 367.714 1145.02 367.413C1144.87 367.037 1145.08 366.61 1145.45 366.485C1149.24 365.08 1148.52 356.9 1147.94 353.864C1147.86 353.463 1148.11 353.086 1148.52 353.011C1148.92 352.936 1149.29 353.187 1149.37 353.588C1149.47 354.09 1151.71 365.757 1145.98 367.84C1145.85 367.89 1145.78 367.89 1145.7 367.89Z" fill="black"/>
<path d="M1049.26 297.61H937.117C932.094 297.61 928 293.545 928 288.502V235.108C928 230.065 932.069 226 937.117 226H1049.26C1054.28 226 1058.38 230.065 1058.38 235.108V288.502C1058.38 293.52 1054.28 297.61 1049.26 297.61Z" fill="#9BCCC7"/>
<path d="M1000.56 288.728L1013.72 323.278L972.631 292.391L1000.56 288.728Z" fill="#9BCCC7"/>
<path d="M1040.59 255.206H945.782C943.898 255.206 942.341 253.675 942.341 251.769C942.341 249.862 943.873 248.331 945.782 248.331H1040.59C1042.48 248.331 1044.03 249.862 1044.03 251.769C1044.03 253.675 1042.48 255.206 1040.59 255.206Z" fill="#FFEEEB"/>
<path d="M1040.59 275.254H945.782C943.898 275.254 942.341 273.723 942.341 271.816C942.341 269.935 943.873 268.379 945.782 268.379H1040.59C1042.48 268.379 1044.03 269.909 1044.03 271.816C1044.01 273.723 1042.48 275.254 1040.59 275.254Z" fill="#FFEEEB"/>
</g>
<defs>
<clipPath id="clip0_83_47">
<rect width="331" height="544" fill="white" transform="translate(928 226)"/>
</clipPath>
</defs>
</svg>
