<svg width="1440" height="1024" viewBox="0 0 1440 1024" fill="none" xmlns="http://www.w3.org/2000/svg">
<rect y="-1" width="1440" height="1025" fill="#EEEEEE"/>
<ellipse opacity="0.8" cx="981.061" cy="705.722" rx="316.061" ry="58.7218" fill="#BD4B4B" fill-opacity="0.2"/>
<g clip-path="url(#clip0_56_39)">
<path d="M800.55 683.33C800.27 683.33 800.04 683.1 800.04 682.82C800.04 682.54 800.27 682.3 800.55 682.3L882.34 681.82C882.6 681.81 882.86 682.05 882.86 682.33C882.86 682.61 882.63 682.85 882.35 682.85L800.55 683.33Z" fill="#FF9E80"/>
<path d="M924.01 618.2H896.16V673.87H924.01V618.2Z" fill="#BD4B4B"/>
<path d="M923.52 618.7V673.37H896.67V618.7H923.52ZM924.52 617.7H895.67V674.37H924.52V617.7Z" fill="black"/>
<path d="M953.32 694.05H864.86C861.74 694.05 859.21 691.52 859.21 688.4V676.26C859.21 673.14 861.74 670.61 864.86 670.61H953.32C956.44 670.61 958.97 673.14 958.97 676.26V688.4C958.97 691.52 956.44 694.05 953.32 694.05Z" fill="#BD4B4B"/>
<path d="M1038.44 640.2H781.74C776.43 640.2 772.13 635.9 772.13 630.59V471.67C772.13 466.36 776.43 462.06 781.74 462.06H1038.44C1043.75 462.06 1048.05 466.36 1048.05 471.67V630.59C1048.05 635.89 1043.75 640.2 1038.44 640.2Z" fill="#BD4B4B"/>
<path d="M1025.73 614.78H794.46C790.01 614.78 786.4 611.17 786.4 606.72V483.16C786.4 478.71 790.01 475.1 794.46 475.1H1025.73C1030.18 475.1 1033.79 478.71 1033.79 483.16V606.72C1033.78 611.17 1030.18 614.78 1025.73 614.78Z" fill="#C16161"/>
<path d="M1001.56 507.19H818.62C815.1 507.19 812.25 504.34 812.25 500.82C812.25 497.3 815.1 494.45 818.62 494.45H1001.56C1005.08 494.45 1007.93 497.3 1007.93 500.82C1007.93 504.34 1005.08 507.19 1001.56 507.19Z" fill="#EFB7B7"/>
<path d="M1001.56 528.64H818.62C815.1 528.64 812.25 525.79 812.25 522.27C812.25 518.75 815.1 515.9 818.62 515.9H1001.56C1005.08 515.9 1007.93 518.75 1007.93 522.27C1007.93 525.79 1005.08 528.64 1001.56 528.64Z" fill="#EFB7B7"/>
<path d="M1001.56 550.08H818.62C815.1 550.08 812.25 547.23 812.25 543.71C812.25 540.19 815.1 537.34 818.62 537.34H1001.56C1005.08 537.34 1007.93 540.19 1007.93 543.71C1007.93 547.23 1005.08 550.08 1001.56 550.08Z" fill="#EFB7B7"/>
<path d="M910.09 631.47C913.056 631.47 915.46 629.066 915.46 626.1C915.46 623.134 913.056 620.73 910.09 620.73C907.124 620.73 904.72 623.134 904.72 626.1C904.72 629.066 907.124 631.47 910.09 631.47Z" fill="#E59A9A"/>
<path d="M1247.44 680.58H969.66V519.67C969.66 512.82 975.21 507.27 982.06 507.27H1235.05C1241.9 507.27 1247.45 512.82 1247.45 519.67V680.58H1247.44Z" fill="#4FAEC0"/>
<path d="M1228.35 664.74H988.71C984.18 664.74 980.51 661.07 980.51 656.54V533.26C980.51 528.73 984.18 525.06 988.71 525.06H1228.34C1232.87 525.06 1236.54 528.73 1236.54 533.26V656.54C1236.54 661.07 1232.87 664.74 1228.35 664.74Z" fill="#FFEEEB"/>
<path d="M1264.74 694.05H955.18C950.9 694.05 947.43 690.58 947.43 686.3V685.94C947.43 681.66 950.9 678.19 955.18 678.19H1264.74C1269.02 678.19 1272.49 681.66 1272.49 685.94V686.3C1272.49 690.58 1269.02 694.05 1264.74 694.05Z" fill="#4FAEC0"/>
<path d="M763.06 693.47C760.17 693.47 757.83 691.12 757.83 688.24V687.68C757.83 672.26 770.37 659.72 785.79 659.72H793.33C808.75 659.72 821.29 672.26 821.29 687.68V688.24C821.29 691.13 818.94 693.47 816.06 693.47H763.06Z" fill="#BD4B4B"/>
<path d="M793.33 660.21C808.47 660.21 820.79 672.53 820.79 687.67V688.23C820.79 690.84 818.67 692.96 816.06 692.96H763.06C760.45 692.96 758.33 690.84 758.33 688.23V687.67C758.33 672.53 770.65 660.21 785.79 660.21H793.33ZM793.33 659.21H785.79C770.07 659.21 757.33 671.95 757.33 687.67V688.23C757.33 691.4 759.9 693.96 763.06 693.96H816.05C819.22 693.96 821.78 691.39 821.78 688.23V687.67C821.79 671.96 809.04 659.21 793.33 659.21Z" fill="black"/>
<path d="M789.56 678.71C789.28 678.71 789.05 678.48 789.05 678.2V659.6C789.05 659.32 789.28 659.09 789.56 659.09C789.84 659.09 790.07 659.32 790.07 659.6V678.2C790.07 678.48 789.84 678.71 789.56 678.71Z" fill="#E59A9A"/>
<path d="M794.79 661.57H784.33C783.24 661.57 782.36 660.69 782.36 659.6C782.36 658.51 783.24 657.63 784.33 657.63H794.79C795.88 657.63 796.76 658.51 796.76 659.6C796.76 660.68 795.88 661.57 794.79 661.57Z" fill="#E59A9A"/>
<path d="M820.16 678.71H758.95C758.67 678.71 758.44 678.48 758.44 678.2C758.44 677.92 758.67 677.69 758.95 677.69H820.17C820.45 677.69 820.68 677.92 820.68 678.2C820.68 678.48 820.45 678.71 820.16 678.71Z" fill="#E59A9A"/>
<path d="M940.59 688.51H893.92C893.64 688.51 893.41 688.28 893.41 688C893.41 687.72 893.64 687.49 893.92 687.49H940.59C940.87 687.49 941.1 687.72 941.1 688C941.1 688.28 940.87 688.51 940.59 688.51Z" fill="#E59A9A"/>
<path d="M776.89 534.76C776.61 534.76 776.38 534.53 776.38 534.25V475.1C776.38 474.82 776.61 474.59 776.89 474.59C777.17 474.59 777.4 474.82 777.4 475.1V534.24C777.41 534.53 777.17 534.76 776.89 534.76Z" fill="#E59A9A"/>
<path d="M1055.56 514.51H987.95C987.67 514.51 987.44 514.28 987.44 514C987.44 513.72 987.67 513.49 987.95 513.49H1055.56C1055.84 513.49 1056.07 513.72 1056.07 514C1056.07 514.28 1055.84 514.51 1055.56 514.51Z" fill="#FFEEEB"/>
<path d="M1149.22 686.64H1067.89C1067.61 686.64 1067.38 686.41 1067.38 686.13C1067.38 685.85 1067.61 685.62 1067.89 685.62H1149.22C1149.5 685.62 1149.73 685.85 1149.73 686.13C1149.73 686.41 1149.5 686.64 1149.22 686.64Z" fill="#FFEEEB"/>
<path d="M1100.39 589.86H1029.92C1027.39 589.86 1025.34 587.81 1025.34 585.28V554.16C1025.34 551.63 1027.39 549.58 1029.92 549.58H1100.39C1102.92 549.58 1104.97 551.63 1104.97 554.16V585.28C1104.97 587.82 1102.92 589.86 1100.39 589.86Z" fill="#AACCC8"/>
<path d="M1100.39 642.14H1029.92C1027.39 642.14 1025.34 640.09 1025.34 637.56V606.44C1025.34 603.91 1027.39 601.86 1029.92 601.86H1100.39C1102.92 601.86 1104.97 603.91 1104.97 606.44V637.56C1104.97 640.09 1102.92 642.14 1100.39 642.14Z" fill="#AACCC8"/>
<path d="M1190.07 589.86H1119.6C1117.07 589.86 1115.02 587.81 1115.02 585.28V554.16C1115.02 551.63 1117.07 549.58 1119.6 549.58H1190.07C1192.6 549.58 1194.65 551.63 1194.65 554.16V585.28C1194.65 587.82 1192.6 589.86 1190.07 589.86Z" fill="#AACCC8"/>
<path d="M1190.07 642.14H1119.6C1117.07 642.14 1115.02 640.09 1115.02 637.56V606.44C1115.02 603.91 1117.07 601.86 1119.6 601.86H1190.07C1192.6 601.86 1194.65 603.91 1194.65 606.44V637.56C1194.65 640.09 1192.6 642.14 1190.07 642.14Z" fill="#AACCC8"/>
<path d="M783.55 547.37C783.89 547.98 785.82 553.16 783.49 558.38C781.16 563.6 775.39 559.97 775.39 559.97V550.34L783.55 547.37Z" fill="#F48462"/>
<path d="M763.33 590.65C763.33 590.65 771.38 592.28 777.95 588.1C784.52 583.92 782.74 558.38 782.74 558.38H772.62L766.67 572.4L763.33 590.65Z" fill="#F48462"/>
<path d="M763.12 696.39V704.56L778.5 703.98V696.39H763.12Z" fill="#F48462"/>
<path d="M727.62 695.47V703.64L741.86 703.06V695.47H727.62Z" fill="#F48462"/>
<path d="M758.54 605.44C758.54 605.44 769.63 623.01 776.21 651.14C782.21 676.8 783.5 698.02 783.5 698.02H757.55C757.55 698.02 754.66 677.1 753.9 668.82C753.14 660.54 750.57 649.46 750.57 649.46C750.57 649.46 747.01 697.21 746.16 698.02C745.31 698.83 720.48 698.2 720.74 697.1C721.01 696 725.97 620.71 726.65 615.49C728.72 599.45 758.54 605.44 758.54 605.44Z" fill="#193948"/>
<path d="M745.39 717.14C745.39 718.58 744.91 720.23 743.91 720.65C742.92 721.07 734.89 721.93 727.87 721.32C721.15 720.73 719.75 720.24 719.26 719.62C719.02 719.31 719.49 717.87 720.03 716.47C720.06 716.4 720.09 716.32 720.12 716.25C720.4 715.55 720.69 714.87 720.89 714.38C721.1 713.92 721.35 713.48 721.65 713.05C722.38 712.05 723.82 709.97 724.19 708.9C724.67 707.47 725.41 704.38 725.91 702.93C726.41 701.5 727.62 701.2 727.62 701.2C727.62 701.2 741.45 700.25 742.44 701.08C743.42 701.9 743.92 708.7 743.92 709.73V710.76C743.92 711.72 744.58 713.61 745 715.18C745.12 715.57 745.21 715.94 745.28 716.28C745.34 716.61 745.39 716.89 745.39 717.14Z" fill="#4FAEC0"/>
<path d="M803.24 720.08C802.32 720.46 763.08 721.53 762.17 720.08C761.89 719.64 761.7 718.15 761.57 716.29C761.25 711.89 761.25 705.34 761.25 705.34C761.25 705.34 760.96 703.1 761.02 702.07C761.07 701.04 779.94 701.44 779.94 701.44L792.21 711.11C792.21 711.11 795.58 710.51 799.26 711.11C801.21 711.42 802.47 713.81 803.09 716.06C803.63 718.04 803.68 719.89 803.24 720.08Z" fill="#4FAEC0"/>
<path d="M803.24 720.08C802.32 720.46 763.08 721.53 762.17 720.08C761.89 719.64 761.7 718.15 761.57 716.29C769.03 716.82 787.39 717.82 803.08 716.05C803.63 718.04 803.68 719.89 803.24 720.08Z" fill="#286C7C"/>
<path d="M745.39 717.14C745.39 718.58 744.91 720.23 743.91 720.65C742.92 721.07 734.89 721.93 727.87 721.32C721.15 720.73 719.75 720.24 719.26 719.62C719.02 719.31 719.49 717.87 720.03 716.47C726.27 716.94 737.53 717.37 744.99 715.18C745.11 715.57 745.2 715.94 745.27 716.28C745.34 716.61 745.39 716.89 745.39 717.14Z" fill="#286C7C"/>
<path d="M750.57 649.75C750.39 649.74 750.27 649.6 750.28 649.44C750.29 649.34 751.1 639.06 751.33 634.5C751.56 629.95 751.57 627.77 751.57 627.75C751.57 627.64 751.64 627.53 751.74 627.49L760.14 623.75C760.28 623.69 760.46 623.75 760.52 623.9C760.58 624.05 760.52 624.22 760.37 624.28L752.14 627.95C752.13 628.57 752.09 630.72 751.9 634.54C751.67 639.1 750.86 649.39 750.85 649.5C750.85 649.64 750.72 649.75 750.57 649.75Z" fill="#FFBA57"/>
<path d="M727.98 708.34C727.85 708.34 727.74 708.26 727.7 708.13C727.66 707.98 727.75 707.82 727.9 707.78C728.13 707.72 733.47 706.3 736.3 706.79L737.96 707.08C736.45 705.97 733.36 704.02 731.45 704.83C731.31 704.89 731.13 704.83 731.07 704.68C731.01 704.53 731.08 704.36 731.22 704.3C734.14 703.05 739.02 707.16 739.23 707.34C739.33 707.42 739.36 707.56 739.3 707.68C739.24 707.8 739.12 707.87 738.99 707.84L736.19 707.36C733.48 706.9 728.09 708.33 728.04 708.34C728.03 708.34 728 708.34 727.98 708.34Z" fill="#FFBA57"/>
<path d="M789.26 709.06C789.23 709.06 782.24 708.34 782.24 708.34C782.13 708.33 782.04 708.26 782 708.16C781.96 708.06 781.98 707.95 782.05 707.87L784.49 705C784.59 704.88 784.77 704.86 784.9 704.97C785.02 705.07 785.04 705.26 784.93 705.38L782.85 707.83L789.3 708.49C789.46 708.51 789.57 708.65 789.56 708.81C789.53 708.95 789.41 709.06 789.26 709.06Z" fill="#FFBA57"/>
<path d="M739.1 565.51C739.1 565.51 731.45 565.48 727.32 569.51C723.19 573.53 726.66 612.91 726.66 612.91C726.66 612.91 740.93 614.58 748.75 612.91C756.57 611.24 761.4 607.82 761.4 607.82C761.4 607.82 758.88 571.29 756.73 567.42C754.57 563.55 739.1 565.51 739.1 565.51Z" fill="#FCDC73"/>
<path d="M737.58 562.7L737.62 567.65C737.62 567.65 739.51 569.21 741.9 569.21C745.13 569.21 746.22 566.72 746.22 566.72L746.1 560.92L737.58 562.7Z" fill="#F48462"/>
<path d="M737.58 562.57C737.58 562.57 739.53 566.57 743.18 565.97C746.12 565.48 746.09 561.33 746.09 561.33L737.58 562.57Z" fill="black"/>
<path d="M747.34 548.31C747.34 548.31 749.2 557.14 746.39 561.42C743.58 565.71 739.82 564.53 738.12 563.26C735.83 561.56 735.32 559.15 735.32 559.15C735.32 559.15 732.22 559.82 731.14 557.3C730.01 554.65 731.91 552.47 733.46 552.32C735.01 552.17 735.2 552.45 735.2 552.45L734.7 549.61C734.7 549.62 743.98 538.95 747.34 548.31Z" fill="#F48462"/>
<path d="M745.91 552.48C745.91 552.48 750.59 550.39 751.02 554.03C751.52 558.25 746.46 558.38 746.46 558.38L745.91 552.48Z" fill="#F48462"/>
<path d="M748.32 556.26C748.27 556.26 748.22 556.25 748.18 556.22C748.04 556.14 747.99 555.97 748.07 555.83L749.6 553.11C749.68 552.97 749.85 552.92 749.99 553C750.13 553.08 750.18 553.25 750.1 553.39L748.57 556.11C748.52 556.21 748.42 556.26 748.32 556.26Z" fill="black"/>
<path d="M734.76 556.58C734.7 556.58 734.63 556.56 734.58 556.51L732.15 554.49C732.03 554.39 732.01 554.21 732.11 554.08C732.21 553.96 732.39 553.94 732.52 554.04L734.95 556.06C735.07 556.16 735.09 556.34 734.99 556.47C734.93 556.54 734.85 556.58 734.76 556.58Z" fill="black"/>
<path d="M732.55 556.99C732.46 556.99 732.38 556.95 732.32 556.88C732.22 556.76 732.24 556.57 732.37 556.48L733.77 555.39C733.89 555.29 734.08 555.31 734.17 555.44C734.27 555.57 734.25 555.75 734.12 555.84L732.72 556.93C732.68 556.97 732.62 556.99 732.55 556.99Z" fill="black"/>
<path d="M750.14 555.42H748.8C748.64 555.42 748.51 555.29 748.51 555.13C748.51 554.97 748.64 554.84 748.8 554.84H750.14C750.3 554.84 750.43 554.97 750.43 555.13C750.43 555.29 750.3 555.42 750.14 555.42Z" fill="black"/>
<path d="M739.83 554.28C739.68 554.28 739.56 554.17 739.54 554.02L739.38 552.5C739.36 552.34 739.48 552.2 739.64 552.18C739.79 552.16 739.94 552.28 739.96 552.44L740.12 553.96C740.14 554.12 740.02 554.26 739.86 554.28C739.85 554.28 739.84 554.28 739.83 554.28Z" fill="black"/>
<path d="M745.64 553.69C745.49 553.69 745.37 553.58 745.35 553.43L745.19 551.91C745.17 551.75 745.29 551.61 745.45 551.59C745.61 551.58 745.75 551.69 745.77 551.85L745.93 553.37C745.95 553.53 745.83 553.67 745.67 553.69C745.66 553.69 745.65 553.69 745.64 553.69Z" fill="black"/>
<path d="M743.17 557.79C742.97 557.76 742.86 557.62 742.88 557.46C743.21 555.21 742.4 553.38 742.39 553.36C742.32 553.21 742.39 553.04 742.53 552.98C742.68 552.91 742.85 552.98 742.91 553.12C742.95 553.2 743.81 555.12 743.45 557.54C743.43 557.69 743.31 557.79 743.17 557.79Z" fill="black"/>
<path d="M745.93 550.92C745.88 550.92 745.84 550.91 745.8 550.89C745.22 550.59 744.33 550.81 744.32 550.81C744.17 550.85 744.01 550.76 743.97 550.6C743.93 550.45 744.02 550.29 744.18 550.25C744.22 550.24 745.29 549.97 746.07 550.38C746.21 550.45 746.27 550.63 746.19 550.77C746.13 550.87 746.03 550.92 745.93 550.92Z" fill="black"/>
<path d="M738.59 551.64C738.52 551.64 738.44 551.61 738.39 551.56C738.28 551.45 738.27 551.27 738.39 551.15C739 550.52 740.1 550.44 740.14 550.44C740.29 550.44 740.44 550.55 740.45 550.71C740.46 550.87 740.34 551.01 740.18 551.02C740.17 551.02 739.26 551.09 738.8 551.56C738.74 551.61 738.67 551.64 738.59 551.64Z" fill="black"/>
<path d="M736.59 553.25C736.59 553.25 738.84 551.73 738.71 549.41C738.58 547.1 738.07 546.51 738.07 546.51C738.07 546.51 740.39 547.74 743.27 546.87C746.53 545.89 748.33 541.4 746.55 540.18C744.57 538.82 739.75 540.74 739.75 540.74C739.75 540.74 734.7 540.46 731.41 544.47C728.12 548.48 731.81 553.2 731.81 553.2C731.81 553.2 732.78 551.14 736.59 553.25Z" fill="black"/>
<path d="M742.69 560.25C741.41 560.25 740.38 559.2 740.33 559.15C740.22 559.04 740.22 558.85 740.34 558.74C740.45 558.63 740.64 558.63 740.75 558.75C740.76 558.76 741.96 559.98 743.19 559.6C743.34 559.55 743.5 559.64 743.55 559.79C743.6 559.94 743.51 560.1 743.36 560.15C743.13 560.22 742.91 560.25 742.69 560.25Z" fill="black"/>
<path d="M745.64 543.03C745.64 543.03 747.81 545.01 748.32 547.43C748.83 549.85 748.32 551.89 748.32 551.89L747.83 551.88C747.83 551.88 746.66 546.02 744.77 545.48C742.88 544.95 745.64 543.03 745.64 543.03Z" fill="black"/>
<path d="M733.82 566.28C733.82 566.28 720.87 567.35 715.26 576.36C709.64 585.37 709.21 593.47 709.21 593.47L729.38 590.65L733.82 566.28Z" fill="#FCDC73"/>
<path d="M755.42 590.65L765.97 591.1L766.67 572.4C766.67 572.4 756.31 565.86 752.12 565.35C747.93 564.84 755.42 590.65 755.42 590.65Z" fill="#FCDC73"/>
<path d="M711.66 593.12C711.66 593.12 710.48 608.05 721.51 606.5C734.03 604.74 740.54 578.89 740.54 578.89L744.28 576.59C744.28 576.59 743.56 579.54 746.56 577.95C749.55 576.36 748.96 573.39 748.96 573.39L745.46 567.4C745.46 567.4 750.63 562.6 749.1 562.36C746.74 561.99 739.39 566.89 739.39 566.89C739.39 566.89 739.79 563.93 738.08 564.42C736.24 564.95 735.58 570.4 735.58 570.4L715.94 592.1L711.66 593.12Z" fill="#F48462"/>
<path d="M744.27 576.89C744.19 576.89 744.1 576.85 744.05 576.79C743.97 576.69 743.96 576.54 744.04 576.44L745.41 574.51C745.5 574.38 745.68 574.35 745.81 574.44C745.94 574.53 745.97 574.71 745.88 574.84L745.14 575.88L746.2 575.38C746.34 575.31 746.52 575.37 746.58 575.52C746.65 575.66 746.59 575.84 746.44 575.9L744.38 576.86C744.36 576.88 744.32 576.89 744.27 576.89Z" fill="black"/>
<path d="M736.56 569.5C736.48 569.5 736.39 569.46 736.34 569.39C736.24 569.27 736.26 569.09 736.38 568.98L739.98 566.03C740.1 565.93 740.28 565.95 740.39 566.07C740.49 566.19 740.47 566.37 740.35 566.48L736.75 569.43C736.69 569.47 736.63 569.5 736.56 569.5Z" fill="black"/>
<path d="M744.11 568.59C744.02 568.59 743.93 568.55 743.87 568.46C743.78 568.33 743.82 568.15 743.95 568.06L745.28 567.16C745.41 567.07 745.59 567.11 745.68 567.24C745.77 567.37 745.73 567.55 745.6 567.64L744.27 568.54C744.22 568.58 744.17 568.59 744.11 568.59Z" fill="black"/>
<path d="M727.98 624.17C727.89 624.17 727.8 624.13 727.74 624.05C727.65 623.92 727.68 623.74 727.81 623.65C732.12 620.64 733.25 616.26 733.27 616.22C733.31 616.07 733.46 615.97 733.62 616.01C733.77 616.05 733.87 616.2 733.83 616.36C733.78 616.55 732.64 620.99 728.15 624.13C728.09 624.15 728.03 624.17 727.98 624.17Z" fill="#FFBA57"/>
<path d="M795.81 558.05L777.52 557.57C776.45 557.54 775.6 556.65 775.63 555.57L775.88 546.28C775.91 545.21 776.8 544.36 777.88 544.39L796.17 544.87C797.24 544.9 798.09 545.79 798.06 546.87L797.81 556.16C797.78 557.23 796.89 558.08 795.81 558.05Z" fill="#286C7C"/>
<path d="M793.03 556.91L778.26 556.52C777.37 556.5 776.68 555.76 776.7 554.87L776.91 547.02C776.93 546.13 777.67 545.44 778.56 545.46L793.33 545.85C794.22 545.87 794.91 546.61 794.89 547.5L794.68 555.35C794.65 556.24 793.91 556.94 793.03 556.91Z" fill="white"/>
<path d="M797.13 551.49C797.12 551.95 796.74 552.31 796.28 552.3C795.82 552.29 795.46 551.91 795.47 551.45C795.48 550.99 795.86 550.63 796.32 550.64C796.78 550.65 797.14 551.03 797.13 551.49Z" fill="#3F9E97"/>
<path d="M772.62 559.26C772.62 559.26 771.01 553.49 772.12 551.61C773.24 549.73 775.96 547.81 778.32 548.34C780.67 548.87 776.71 552.11 776.71 552.11C776.71 552.11 779.19 557.57 777.58 560.16C775.96 562.74 772.62 559.26 772.62 559.26Z" fill="#F48462"/>
<path d="M776.68 561.26C776.56 561.26 776.45 561.19 776.41 561.07C776.35 560.92 776.43 560.75 776.58 560.7C778.09 560.14 777.8 556.88 777.57 555.67C777.54 555.51 777.64 555.36 777.8 555.33C777.96 555.3 778.11 555.4 778.14 555.56C778.18 555.76 779.07 560.41 776.79 561.24C776.74 561.26 776.71 561.26 776.68 561.26Z" fill="black"/>
<path d="M861.33 412.25C861.33 412.25 860.12 403.46 859.62 402.98C859.12 402.5 848.33 393.5 847.85 390.89C847.37 388.28 849.24 387.11 849.24 387.11C849.24 387.11 878.5 397.47 879.29 398.36C880.08 399.25 876.21 411.99 876.21 411.99L861.33 412.25Z" fill="#F48462"/>
<path d="M848.44 387.93L879.22 400.5L880.71 396.24L849.67 384.32L848.44 387.93Z" fill="black"/>
<path d="M851.96 396.04L855.43 399.29L860.39 392.81L856.91 390.41L851.96 396.04Z" fill="black"/>
<path d="M891.67 415.82C891.67 415.82 892.08 406.96 891.67 406.39C891.26 405.83 882.29 395.02 882.29 392.37C882.29 389.72 884.35 388.9 884.35 388.9C884.35 388.9 911.25 404.4 911.86 405.42C912.47 406.44 906.35 418.27 906.35 418.27L891.67 415.82Z" fill="#F48462"/>
<path d="M923.83 437.79C923.83 437.79 919.67 433.3 902.13 432.93C884.59 432.56 879.77 433.98 879.77 433.98L880.45 408.01L858.37 405.13C858.37 405.13 848.2 431.81 848.42 444.34C848.64 456.87 858.94 461.36 862.23 462.11C865.52 462.86 925.27 462.44 925.27 462.44L923.83 437.79Z" fill="#FCDC73"/>
<path d="M878.9 436.02L888.89 409.18L910.93 410.96L904.32 433.76L878.9 436.02Z" fill="#FCDC73"/>
<path d="M904.51 445.68L921.39 462.1C921.39 462.1 927.09 463.77 934.5 463.97C941.91 464.17 947.67 463.97 947.67 463.97L951.42 459.41L956.71 464.06L974.82 448.3C974.82 448.3 965.61 440.59 954 435.34C942.38 430.08 925.33 429.81 904.51 445.68Z" fill="#AACCC8"/>
<path d="M954.99 460.3C954.82 460.3 954.69 460.16 954.69 460L954.7 443.73C954.7 443.56 954.84 443.43 955 443.43C955.17 443.43 955.3 443.57 955.3 443.73L955.29 460C955.29 460.17 955.15 460.3 954.99 460.3Z" fill="#5D2866"/>
<path d="M920.33 458.26C920.24 458.26 920.16 458.22 920.1 458.15C920.02 458.05 920.01 457.91 920.08 457.8C920.45 457.21 923.73 452.01 925.77 451.98C926.22 452 926.55 452.17 926.8 452.56C927.06 452.96 927.12 453.39 926.97 453.84C926.26 456.02 920.68 458.15 920.44 458.24C920.4 458.25 920.36 458.26 920.33 458.26ZM925.78 452.58C924.53 452.6 922.31 455.51 921.1 457.31C922.95 456.52 925.95 454.98 926.39 453.64C926.48 453.36 926.45 453.12 926.29 452.88C926.11 452.62 925.92 452.58 925.78 452.58Z" fill="#5D2866"/>
<path d="M963.78 457.22L973.29 449.63C973.29 449.63 976.27 453.36 975.58 461.49C974.78 471 961.41 473.61 961.41 473.61L959.24 465.71L963.78 457.22Z" fill="#F48462"/>
<path d="M933.43 459.29C933.43 459.29 932.87 455.14 935.32 455.83C937.78 456.52 936.62 460.15 936.62 460.15L933.43 459.29Z" fill="#F48462"/>
<path d="M935.44 428.99L934 434.51C934 434.51 935.62 436.98 939.58 437.4C943.61 437.82 942.85 435.78 942.85 435.78L943.17 432.94L936.55 429.57L935.44 428.99Z" fill="#F48462"/>
<path d="M936.54 429.58C936.51 429.77 936.51 430 936.55 430.27C937.1 434 940.82 435.77 942.85 435.77L943.1 433.1L936.54 429.58Z" fill="black"/>
<path d="M948.84 418.42C948.84 418.42 949.97 427.71 947.3 431.94C944.63 436.17 940.64 434.18 938.39 432.54C936.14 430.9 935.44 429 935.44 429C935.44 429 932.85 429.09 931.93 426.44C931.01 423.78 932.73 421.56 934.25 421.39C935.76 421.22 937.07 422.66 937.07 422.66L936.53 419.9C936.53 419.89 945.42 409.34 948.84 418.42Z" fill="#F48462"/>
<path d="M945.42 428.78C945.36 428.78 945.3 428.76 945.25 428.73C945.11 428.64 945.08 428.45 945.17 428.31C946.09 426.96 945.47 424.99 945.46 424.97C945.41 424.81 945.5 424.64 945.65 424.59C945.81 424.54 945.98 424.62 946.03 424.78C946.06 424.87 946.75 427.05 945.66 428.64C945.61 428.73 945.52 428.78 945.42 428.78Z" fill="black"/>
<path d="M935.62 426.43C935.51 426.43 935.4 426.37 935.35 426.26L933.85 423.22C933.78 423.07 933.84 422.89 933.99 422.82C934.14 422.75 934.32 422.81 934.39 422.96L935.89 426C935.96 426.15 935.9 426.33 935.75 426.4C935.71 426.42 935.66 426.43 935.62 426.43Z" fill="black"/>
<path d="M935.07 425.32C935.03 425.32 933.41 425.08 933.41 425.08C933.25 425.06 933.13 424.9 933.16 424.74C933.18 424.58 933.34 424.46 933.5 424.49L935.11 424.73C935.27 424.75 935.39 424.91 935.36 425.07C935.34 425.21 935.21 425.32 935.07 425.32Z" fill="black"/>
<path d="M937.86 422.53C937.62 422.53 937.45 422.33 937.45 422.33C936.33 421.35 935.09 421.15 934.23 421.15C933.94 421.15 933.7 421.17 933.52 421.2C933 420.52 931.54 418.32 932.49 416.45C933.22 415.03 934.36 414.73 935.18 414.73C935.53 414.73 935.77 414.79 935.77 414.79L936.17 414.89L936.35 414.52C936.37 414.47 938.59 409.79 942.87 409.54C943.06 409.53 943.24 409.52 943.41 409.52C944.8 409.52 945.79 409.85 946.35 410.5C947 411.25 946.86 412.23 946.86 412.24L946.73 413.1L947.54 412.78C947.54 412.78 948.09 412.57 948.99 412.57C949.9 412.57 951.34 412.79 953.02 413.82C954.24 414.57 954.74 415.72 954.39 416.96C954.04 418.18 952.77 419.5 950.8 419.5C947.51 419.5 947.1 417.25 947.08 417.16L946.88 415.97L946.18 416.95C946.17 416.97 944.79 418.87 943.19 419.18C943.01 419.22 942.82 419.23 942.63 419.23C941.1 419.23 939.37 418.25 939.35 418.24L938.46 417.73L938.61 418.74C938.82 420.17 938.78 421.95 938.34 422.32C938.16 422.46 938 422.53 937.86 422.53Z" fill="#BD4B4B"/>
<path d="M943.41 410.02C944.62 410.02 945.51 410.3 945.96 410.82C946.46 411.39 946.36 412.15 946.36 412.15L946.09 413.85L947.71 413.24C947.71 413.24 948.19 413.06 948.98 413.06C949.82 413.06 951.16 413.26 952.74 414.24C953.76 414.87 954.18 415.81 953.89 416.82C953.59 417.87 952.49 419 950.77 419C947.98 419 947.59 417.27 947.55 417.09L947.18 414.66L945.75 416.65C945.4 417.14 944.23 418.45 943.07 418.68C942.93 418.71 942.77 418.72 942.61 418.72C941.22 418.72 939.59 417.8 939.58 417.8L937.8 416.78L938.09 418.81C938.28 420.12 938.22 421.64 938 421.93C937.92 422 937.86 422.02 937.87 422.03C937.86 422.03 937.84 422.01 937.83 422.01L937.81 421.98L937.72 421.9C936.54 420.87 935.17 420.65 934.22 420.65C934.05 420.65 933.89 420.66 933.75 420.67C933.2 419.89 932.19 418.13 932.94 416.68C933.43 415.72 934.19 415.23 935.19 415.23C935.47 415.23 935.66 415.27 935.66 415.27L936.47 415.47L936.82 414.72C936.84 414.68 938.94 410.26 942.91 410.03C943.08 410.02 943.25 410.02 943.41 410.02ZM943.41 409.02C943.23 409.02 943.04 409.03 942.84 409.04C938.2 409.3 935.9 414.31 935.9 414.31C935.9 414.31 935.61 414.24 935.18 414.24C934.33 414.24 932.92 414.53 932.04 416.24C930.72 418.81 933.3 421.76 933.3 421.76C933.3 421.76 933.67 421.67 934.22 421.67C934.99 421.67 936.11 421.84 937.06 422.67C937.06 422.67 937.37 423.04 937.85 423.04C938.08 423.04 938.35 422.96 938.64 422.71C939.55 421.94 939.08 418.68 939.08 418.68C939.08 418.68 940.92 419.74 942.61 419.74C942.83 419.74 943.05 419.72 943.27 419.68C945.1 419.32 946.57 417.25 946.57 417.25C946.57 417.25 946.99 420.01 950.78 420.01C954.57 420.01 956.67 415.5 953.27 413.4C951.54 412.34 950.04 412.07 948.98 412.07C947.95 412.07 947.34 412.32 947.34 412.32C947.34 412.32 947.89 409.02 943.41 409.02Z" fill="black"/>
<path d="M942.65 424.58C942.63 424.58 942.62 424.58 942.6 424.58C942.44 424.55 942.33 424.4 942.35 424.23L942.62 422.64C942.65 422.48 942.8 422.36 942.97 422.39C943.13 422.42 943.24 422.57 943.22 422.74L942.95 424.33C942.92 424.48 942.79 424.58 942.65 424.58Z" fill="black"/>
<path d="M947.29 425.61C947.08 425.58 946.97 425.43 946.99 425.26L947.23 423.67C947.25 423.5 947.41 423.39 947.57 423.42C947.74 423.44 947.85 423.6 947.82 423.76L947.58 425.35C947.57 425.5 947.44 425.61 947.29 425.61Z" fill="black"/>
<path d="M942.22 421.58C942.18 421.58 942.14 421.57 942.11 421.56C941.96 421.5 941.88 421.32 941.94 421.17C942.42 419.97 943.9 420.14 943.96 420.14C944.13 420.16 944.24 420.31 944.22 420.47C944.2 420.64 944.05 420.75 943.89 420.73C943.85 420.73 942.81 420.62 942.5 421.38C942.46 421.51 942.34 421.58 942.22 421.58Z" fill="black"/>
<path d="M948.38 422.47C948.22 422.47 948.08 422.34 948.08 422.18C948.08 422.11 948.01 421.57 947.1 421.55C946.93 421.55 946.8 421.41 946.8 421.24C946.8 421.08 946.94 420.94 947.1 420.94C948.33 420.96 948.67 421.74 948.68 422.15C948.69 422.33 948.56 422.47 948.38 422.47C948.38 422.47 948.39 422.47 948.38 422.47Z" fill="black"/>
<path d="M943.38 431.01C943.33 431.01 943.28 431 943.24 430.97C943.19 430.94 942.08 430.34 942.2 429.2C942.22 429.03 942.37 428.91 942.53 428.93C942.7 428.95 942.82 429.09 942.8 429.26C942.73 430.01 943.52 430.44 943.53 430.44C943.68 430.52 943.73 430.7 943.65 430.85C943.59 430.95 943.49 431.01 943.38 431.01Z" fill="black"/>
<path d="M883.41 389.56L911.39 407.5L913.63 403.58L885.27 386.23L883.41 389.56Z" fill="black"/>
<path d="M885.4 398.18L888.21 402L894.27 396.53L891.28 393.53L885.4 398.18Z" fill="black"/>
<path d="M877.21 441.31C877.04 441.31 876.85 441.26 876.63 441.13C876.29 440.92 876.09 440.59 876.04 440.18C875.8 438.3 878.83 434.95 879.18 434.57C879.2 434.55 879.22 434.53 879.24 434.52C879.27 434.5 879.3 434.49 879.33 434.48C879.71 434.38 893.15 431.03 904.21 432.52C904.37 432.54 904.49 432.69 904.47 432.86C904.45 433.03 904.29 433.14 904.13 433.12C893.83 431.73 881.41 434.6 879.67 435.02C879.55 436.15 878.98 440.55 877.61 441.22C877.51 441.27 877.37 441.31 877.21 441.31ZM878.99 435.71C877.95 436.96 876.49 439.01 876.64 440.1C876.67 440.33 876.77 440.5 876.96 440.62C877.16 440.74 877.28 440.71 877.36 440.67C878.12 440.3 878.71 437.74 878.99 435.71Z" fill="white"/>
<path d="M906.98 448.08C906.98 448.08 896.94 461.63 907.32 469.15C917.7 476.67 932.99 475.47 932.99 475.47L935.38 464.04L917.48 456.17L906.98 448.08Z" fill="#F48462"/>
<path d="M935.62 470.1C935.62 470.1 937.55 475.45 932.99 475.47C928.43 475.49 928.91 470.1 928.91 470.1L933.46 468.72L935.62 470.1Z" fill="#F48462"/>
<path d="M961.29 469.42C961.29 469.42 958.24 474.07 962.81 474.1C967.37 474.12 968.55 467.81 968.55 467.81L963.45 468.04L961.29 469.42Z" fill="#F48462"/>
<path d="M940.22 437.71C940.01 437.71 939.8 437.7 939.57 437.69C935.26 437.43 933.21 434.13 933.13 433.99C933.04 433.85 933.09 433.66 933.23 433.58C933.37 433.49 933.56 433.54 933.64 433.68C933.66 433.71 935.61 436.85 939.6 437.09C942.75 437.28 943.11 436.05 943.11 436.04C943.15 435.88 943.32 435.78 943.47 435.82C943.63 435.86 943.73 436.01 943.7 436.17C943.68 436.23 943.34 437.71 940.22 437.71Z" fill="#5D2866"/>
<path d="M959.71 472.61H936.89C936.08 472.61 935.42 471.95 935.42 471.14V455.63C935.42 454.82 936.08 454.16 936.89 454.16H959.71C960.52 454.16 961.18 454.82 961.18 455.63V471.14C961.17 471.96 960.52 472.61 959.71 472.61Z" fill="white"/>
<path d="M961.41 472.61H938.49C937.68 472.61 937.02 471.95 937.02 471.14V455.63C937.02 454.82 937.68 454.16 938.49 454.16H961.41C962.22 454.16 962.88 454.82 962.88 455.63V471.14C962.88 471.96 962.22 472.61 961.41 472.61Z" fill="black"/>
<path d="M959.37 462.92C959.65 462.38 960.09 461.94 960.6 461.59C962.3 460.41 967.64 457.96 969.22 459.46C970.74 460.9 967.81 462.36 967.81 462.36C967.81 462.36 970.4 461.66 970.27 463.59C970.16 465.2 968.51 465.73 968.51 465.73C968.51 465.73 971.27 465.26 970.27 467.57C969.27 469.88 963.55 471.93 961.44 471.87C959.34 471.81 960.83 469.05 960.83 469.05C960.83 469.05 958.57 468.68 958.57 467.43C958.57 466.1 960.35 465.6 960.35 465.6C960.35 465.6 958.35 464.86 959.37 462.92Z" fill="#F48462"/>
<path d="M961.02 465.73C960.91 465.73 960.8 465.66 960.75 465.55C960.68 465.4 960.75 465.22 960.9 465.15L967.69 462.08C967.84 462.01 968.02 462.08 968.09 462.23C968.16 462.38 968.09 462.56 967.94 462.63L961.15 465.7C961.11 465.72 961.06 465.73 961.02 465.73Z" fill="black"/>
<path d="M961.67 469.03C961.55 469.03 961.44 468.96 961.39 468.85C961.32 468.7 961.39 468.52 961.55 468.45L968.4 465.46C968.55 465.39 968.73 465.46 968.8 465.62C968.87 465.77 968.8 465.95 968.64 466.02L961.79 469.01C961.75 469.02 961.71 469.03 961.67 469.03Z" fill="black"/>
<path d="M940.04 462.92C939.76 462.38 939.32 461.94 938.81 461.59C937.11 460.41 931.77 457.96 930.19 459.46C928.67 460.9 931.6 462.36 931.6 462.36C931.6 462.36 929.01 461.66 929.14 463.59C929.24 465.2 930.9 465.73 930.9 465.73C930.9 465.73 928.14 465.26 929.14 467.57C930.14 469.88 935.86 471.93 937.97 471.87C940.07 471.81 938.58 469.05 938.58 469.05C938.58 469.05 940.84 468.68 940.84 467.43C940.84 466.1 939.06 465.6 939.06 465.6C939.06 465.6 941.06 464.86 940.04 462.92Z" fill="#F48462"/>
<path d="M938.39 465.73C938.35 465.73 938.31 465.72 938.27 465.7L931.48 462.63C931.33 462.56 931.26 462.38 931.33 462.23C931.4 462.08 931.58 462.01 931.73 462.08L938.52 465.15C938.67 465.22 938.74 465.4 938.67 465.55C938.61 465.67 938.5 465.73 938.39 465.73Z" fill="black"/>
<path d="M937.74 469.03C937.7 469.03 937.66 469.02 937.62 469L930.77 466.01C930.62 465.94 930.55 465.77 930.61 465.61C930.68 465.46 930.85 465.39 931.01 465.45L937.86 468.44C938.01 468.51 938.08 468.68 938.02 468.84C937.96 468.96 937.85 469.03 937.74 469.03Z" fill="black"/>
<path d="M982.79 627.23C982.79 627.23 982.92 604.67 991.66 602.5C1000.39 600.33 1001.81 606.65 1001.81 606.65C1001.81 606.65 1004.73 606.4 1005.41 611.33C1006.09 616.26 1004.6 629.2 1004.6 629.2L982.79 627.23Z" fill="black"/>
<path d="M980.94 628.8C980.94 628.8 978.95 621.55 994.09 620.97C1009.24 620.4 1006.67 628.8 1006.67 628.8L993.2 632.29L980.94 628.8Z" fill="#1F5E68"/>
<path d="M963.1 651.43C963.1 651.43 973.11 629.12 983.52 626.13C993.93 623.14 982.05 653.86 982.05 653.86L963.1 651.43Z" fill="#FCDC73"/>
<path d="M1002.62 627.23C1002.62 627.23 1020.36 630.52 1024.7 646.71C1029.04 662.9 1004.67 670.64 1004.67 670.64L1002.62 627.23Z" fill="#FCDC73"/>
<path d="M1013.03 697.56L1012.47 704.59L1027.29 705.74V698.71L1013.03 697.56Z" fill="white"/>
<path d="M1004.86 668.67C1004.86 668.67 1023.79 647.45 1042.11 652.1C1060.43 656.75 1033.56 701.27 1033.56 701.27H1006.91L1007.82 694.28L977.55 694.99L981.41 660.62L1004.86 668.67Z" fill="#193948"/>
<path d="M984.03 687.67H992.98L989.1 702.73H983.4L984.03 687.67Z" fill="white"/>
<path d="M966.91 669.45C966.91 669.45 933.46 678.27 931.51 691.04C929.56 703.82 953.48 709.38 964.71 710.18C975.94 710.98 985.49 710.18 985.49 710.18V664.8L966.91 669.45Z" fill="#193948"/>
<path d="M974.34 669.45C974.34 669.45 975.68 629.3 983.52 626.13C992.09 622.67 1006.57 626.9 1009.29 632.26C1012 637.63 1004.86 668.66 1004.86 668.66C1004.86 668.66 988.93 672.52 974.34 669.45Z" fill="#FCDC73"/>
<path d="M998.34 620.14L998.19 626.69C998.19 626.69 996.97 628.55 993.13 628.77C990.27 628.94 989.28 628.27 989.28 628.27L989.75 624.96L990.21 621.73L997.17 620.36L998.34 620.14Z" fill="#F48462"/>
<path d="M997.17 620.37C997.15 620.55 997.08 620.76 996.97 621C995.43 624.24 991.41 624.86 989.75 624.97L990.21 621.74L997.17 620.37Z" fill="black"/>
<path d="M989.09 606.77C989.09 606.77 985.47 614.91 986.72 619.5C987.97 624.09 992.16 623.4 994.66 622.53C997.17 621.66 998.34 620.13 998.34 620.13C998.34 620.13 1000.67 620.94 1002.25 618.78C1003.83 616.62 1002.88 614.12 1001.55 613.54C1000.22 612.96 998.63 613.91 998.63 613.91L999.89 611.55C999.89 611.56 994.74 599.46 989.09 606.77Z" fill="#F48462"/>
<path d="M989.65 617.2C989.53 617.22 989.41 617.15 989.35 617.03C988.58 615.36 989.58 613.43 989.62 613.34C989.69 613.2 989.87 613.14 990.01 613.22C990.15 613.29 990.21 613.47 990.13 613.61C990.12 613.63 989.23 615.38 989.87 616.79C989.94 616.93 989.87 617.11 989.73 617.17C989.71 617.18 989.68 617.19 989.65 617.2Z" fill="black"/>
<path d="M998.98 617.78C998.91 617.78 998.84 617.75 998.78 617.7C998.66 617.59 998.66 617.41 998.77 617.29L1000.99 614.94C1001.1 614.82 1001.28 614.82 1001.4 614.93C1001.52 615.04 1001.52 615.22 1001.41 615.34L999.19 617.69C999.13 617.74 999.05 617.78 998.98 617.78Z" fill="black"/>
<path d="M1001.32 617.15C1001.28 617.15 999.74 616.91 999.74 616.91C999.58 616.89 999.48 616.74 999.5 616.58C999.52 616.42 999.67 616.31 999.83 616.34L1001.36 616.57C1001.52 616.59 1001.63 616.74 1001.6 616.9C1001.59 617.04 1001.46 617.15 1001.32 617.15Z" fill="black"/>
<path d="M991.98 619.69C991.13 619.69 990.45 619.01 990.42 618.97C990.35 618.9 990.32 618.8 990.35 618.7C990.37 618.6 990.45 618.53 990.54 618.49L993.73 617.43C993.83 617.4 993.94 617.42 994.02 617.5C994.1 617.57 994.13 617.69 994.1 617.79C994.09 617.84 993.74 619 992.68 619.53C992.43 619.64 992.2 619.69 991.98 619.69ZM991.22 618.87C991.53 619.06 991.98 619.23 992.4 619.01C992.8 618.81 993.08 618.48 993.26 618.19L991.22 618.87Z" fill="black"/>
<path d="M993.09 614.87C992.9 614.85 992.78 614.7 992.8 614.55L992.99 613.03C993.01 612.87 993.15 612.76 993.31 612.78C993.47 612.8 993.58 612.94 993.56 613.1L993.37 614.62C993.36 614.77 993.24 614.87 993.09 614.87Z" fill="black"/>
<path d="M988.58 614.51C988.38 614.48 988.27 614.34 988.3 614.18L988.52 612.66C988.54 612.5 988.68 612.39 988.85 612.42C989.01 612.44 989.12 612.59 989.09 612.75L988.87 614.27C988.84 614.41 988.72 614.51 988.58 614.51Z" fill="black"/>
<path d="M994.51 611.96C994.41 611.96 994.31 611.9 994.25 611.8C993.89 611.1 992.92 611.29 992.88 611.3C992.73 611.34 992.57 611.23 992.54 611.08C992.51 610.93 992.61 610.77 992.76 610.74C992.82 610.73 994.2 610.44 994.77 611.54C994.84 611.68 994.79 611.85 994.65 611.93C994.6 611.95 994.56 611.96 994.51 611.96Z" fill="black"/>
<path d="M990.1 611.02C990.01 611.02 989.92 610.98 989.86 610.9C989.72 610.7 989.57 610.59 989.38 610.57C988.99 610.53 988.55 610.83 988.41 610.95C988.29 611.05 988.11 611.04 988 610.92C987.9 610.8 987.91 610.62 988.03 610.51C988.06 610.49 988.73 609.9 989.45 609.99C989.81 610.03 990.1 610.23 990.34 610.57C990.43 610.7 990.4 610.88 990.27 610.97C990.22 611 990.16 611.02 990.1 611.02Z" fill="black"/>
<path d="M986.98 687.19C986.98 687.19 1003.26 686.28 1004.19 687.16C1005.12 688.04 1004.56 704.73 1004.56 704.73C1004.56 704.73 1006.6 723.54 1005.19 725.35C1004.46 726.29 1002.93 727.22 1001.63 727.91C1000.16 728.68 998.32 728.34 997.28 727.05C996.37 725.92 995.4 724.21 994.91 721.75C993.83 716.31 993.83 716.31 993.83 716.31L986.64 703.87L986.98 687.19Z" fill="#FC8A5E"/>
<path d="M1011.43 704.46C1011.43 704.46 1010.72 716.87 1011.44 717.83C1012.17 718.79 1034.25 728.44 1035.08 728.8C1035.91 729.16 1043.34 729.36 1045.19 729.49C1047.04 729.62 1046.9 723.27 1045.74 721.38C1044.58 719.49 1040.12 717.85 1040.12 717.85L1027.96 703.49L1011.55 702.75L1011.43 704.46Z" fill="#FC8A5E"/>
<path d="M1007.83 694.57C1007.8 694.57 1007.76 694.56 1007.73 694.55C1007.58 694.49 1007.51 694.33 1007.56 694.18C1007.63 693.98 1014.95 674.43 1023.56 665.91C1023.67 665.8 1023.86 665.8 1023.97 665.91C1024.08 666.02 1024.08 666.2 1023.97 666.32C1015.45 674.76 1008.18 694.19 1008.11 694.39C1008.06 694.49 1007.95 694.57 1007.83 694.57Z" fill="#FFBA57"/>
<path d="M984.03 687.96C984.01 687.96 983.98 687.96 983.96 687.95C983.79 687.91 967.13 683.77 949.37 682.7C949.21 682.69 949.09 682.55 949.1 682.4C949.11 682.24 949.26 682.12 949.4 682.13C967.22 683.2 983.93 687.35 984.1 687.39C984.25 687.43 984.35 687.58 984.31 687.74C984.28 687.87 984.16 687.96 984.03 687.96Z" fill="#FFBA57"/>
<path d="M975.86 650.39C975.72 650.39 975.59 650.28 975.57 650.14C975.19 646.94 977.66 637.37 977.77 636.97C977.81 636.82 977.97 636.72 978.12 636.76C978.27 636.8 978.37 636.96 978.33 637.11C978.3 637.21 975.78 646.98 976.15 650.07C976.17 650.23 976.06 650.37 975.9 650.39C975.88 650.39 975.87 650.39 975.86 650.39Z" fill="#5D2866"/>
<path d="M959.9 683.3C959.24 683.25 953.57 682.81 952.62 680.96C952.47 680.66 952.36 680.18 952.73 679.57C952.86 679.36 953.07 679.22 953.34 679.18C955.05 678.89 959.57 682.39 960.08 682.79C960.18 682.87 960.22 683 960.17 683.12C960.13 683.23 960.02 683.3 959.9 683.3ZM953.59 679.73C953.53 679.73 953.48 679.73 953.43 679.74C953.29 679.76 953.24 679.82 953.21 679.87C952.96 680.28 953.04 680.53 953.12 680.69C953.69 681.8 956.91 682.39 958.91 682.62C957.34 681.47 954.73 679.73 953.59 679.73Z" fill="#FFBA57"/>
<path d="M988.69 612.93C988.65 612.93 988.61 612.92 988.57 612.9L987.82 612.56C987.68 612.49 987.61 612.32 987.68 612.18C987.75 612.03 987.92 611.97 988.06 612.04L988.81 612.38C988.95 612.45 989.02 612.62 988.95 612.76C988.91 612.87 988.8 612.93 988.69 612.93Z" fill="black"/>
<path d="M963.76 668.83H993.29C994.34 668.83 995.18 667.98 995.18 666.94V646.96C995.18 645.91 994.33 645.07 993.29 645.07H963.76C962.71 645.07 961.87 645.92 961.87 646.96V666.94C961.86 667.98 962.71 668.83 963.76 668.83Z" fill="#1F5E68"/>
<path d="M965.95 668.83H995.35C996.39 668.83 997.24 667.98 997.24 666.94V646.95C997.24 645.91 996.39 645.06 995.35 645.06H965.95C964.91 645.06 964.06 645.91 964.06 646.95V666.94C964.06 667.99 964.91 668.83 965.95 668.83Z" fill="black"/>
<path d="M979.36 659.75C980.906 659.75 982.16 658.496 982.16 656.95C982.16 655.404 980.906 654.15 979.36 654.15C977.814 654.15 976.56 655.404 976.56 656.95C976.56 658.496 977.814 659.75 979.36 659.75Z" fill="white"/>
<path d="M993.27 613.28C993.22 613.28 993.17 613.27 993.12 613.24L992.39 612.81C992.25 612.73 992.21 612.55 992.29 612.41C992.37 612.27 992.55 612.23 992.69 612.31L993.42 612.74C993.56 612.82 993.6 613 993.52 613.14C993.46 613.23 993.36 613.28 993.27 613.28Z" fill="black"/>
<path d="M1003.88 655.89C1003.88 655.89 998.02 653.98 997.24 653.73C997.24 653.73 997.16 655.84 997.41 656.21C997.67 656.58 986.12 658.36 986.15 659.48C986.18 660.6 987.25 660.84 987.25 660.84C987.25 660.84 984.94 661.34 985.56 662.45C986.18 663.57 987.25 663.61 987.25 663.61C987.25 663.61 984.98 664.71 987.25 666.12C989.52 667.53 1000.68 668.4 1004.25 664.83C1006.9 662.21 1003.88 655.89 1003.88 655.89Z" fill="#F48462"/>
<path d="M998.63 613.92C998.63 613.92 994.8 613.19 993.19 610.7C991.72 608.42 991.22 605.82 991.22 605.82C991.22 605.82 990.4 606.23 989.16 607.57C987.92 608.92 987.87 609.98 987.87 609.98C987.87 609.98 986.51 605.04 991.46 603.37C996.42 601.7 1000.46 605.1 1001.6 608.2C1002.75 611.3 998.63 613.92 998.63 613.92Z" fill="black"/>
<path d="M1000.41 652.46L1000.71 667.29C1000.71 667.29 1002.69 668.95 1010.17 663.58C1019.83 656.65 1014.09 650.24 1014.09 650.24L1010.58 647.73L1000.41 652.46Z" fill="#FCDC73"/>
<path d="M987.26 661.13C987.12 661.13 986.99 661.02 986.97 660.88C986.95 660.72 987.06 660.58 987.22 660.56L993.82 659.8C993.99 659.77 994.12 659.9 994.14 660.05C994.16 660.21 994.05 660.35 993.89 660.37L987.29 661.13C987.29 661.13 987.28 661.13 987.26 661.13Z" fill="black"/>
<path d="M993.86 663.9H987.26C987.1 663.9 986.97 663.77 986.97 663.61C986.97 663.45 987.1 663.32 987.26 663.32H993.86C994.02 663.32 994.15 663.45 994.15 663.61C994.15 663.77 994.02 663.9 993.86 663.9Z" fill="black"/>
<path d="M980.94 627.01C980.94 627.01 983.55 628.95 986.46 630.37C989.37 631.8 991.23 632.29 991.23 632.29C991.23 632.29 998.36 631.09 1001.49 630.14C1004.62 629.19 1006.68 628.36 1006.68 628.36L1000.56 623.16L992.98 626.61L987.71 624.46C987.71 624.47 982.15 625.69 980.94 627.01Z" fill="#1F5E68"/>
<path d="M996.16 637.54C996.04 637.54 995.92 637.46 995.88 637.34L994.37 632.38C994.32 632.23 994.41 632.07 994.56 632.02C994.72 631.97 994.87 632.06 994.92 632.21L996.43 637.17C996.48 637.32 996.39 637.48 996.24 637.53C996.22 637.54 996.19 637.54 996.16 637.54Z" fill="#5D2866"/>
<path d="M986.79 637.54C986.76 637.54 986.74 637.54 986.71 637.53C986.56 637.49 986.47 637.33 986.51 637.17L987.91 632.21C987.95 632.06 988.11 631.96 988.27 632.01C988.42 632.05 988.51 632.21 988.47 632.37L987.07 637.33C987.03 637.46 986.92 637.54 986.79 637.54Z" fill="#5D2866"/>
<path d="M998.34 652.28C998.23 652.28 998.13 652.22 998.08 652.12C998.01 651.98 998.07 651.8 998.21 651.73C998.59 651.54 1007.51 647.08 1012.14 646.75C1012.29 646.73 1012.44 646.86 1012.45 647.02C1012.46 647.18 1012.34 647.32 1012.18 647.33C1007.67 647.65 998.56 652.21 998.47 652.25C998.43 652.27 998.38 652.28 998.34 652.28Z" fill="#5D2866"/>
<path d="M1004.2 649.65C1004.14 649.65 1004.08 649.63 1004.03 649.59C1003.92 649.51 1003.88 649.37 1003.93 649.25C1004.15 648.68 1006.18 643.7 1008.54 643.76C1009.02 643.78 1009.19 644 1009.25 644.18C1009.61 645.27 1005.96 648.31 1004.37 649.57C1004.32 649.63 1004.26 649.65 1004.2 649.65ZM1008.48 644.34C1007.16 644.34 1005.74 646.7 1004.94 648.38C1007.16 646.52 1008.81 644.78 1008.7 644.37C1008.7 644.38 1008.66 644.35 1008.52 644.34C1008.5 644.34 1008.49 644.34 1008.48 644.34Z" fill="#5D2866"/>
<path d="M1033.59 710.82H1028C1027.84 710.82 1027.71 710.69 1027.71 710.53C1027.71 710.37 1027.84 710.24 1028 710.24H1033.58C1033.74 710.24 1033.87 710.37 1033.87 710.53C1033.88 710.7 1033.75 710.82 1033.59 710.82Z" fill="#5D2866"/>
<path d="M1037.27 714.77H1029.42C1029.26 714.77 1029.13 714.64 1029.13 714.48C1029.13 714.32 1029.26 714.19 1029.42 714.19H1037.27C1037.43 714.19 1037.56 714.32 1037.56 714.48C1037.56 714.64 1037.43 714.77 1037.27 714.77Z" fill="#5D2866"/>
<path d="M989.12 708.43C989.1 708.43 989.07 708.43 989.05 708.42C988.9 708.38 988.8 708.23 988.84 708.07L989.83 704.01C989.87 703.86 990.02 703.76 990.18 703.8C990.33 703.84 990.43 703.99 990.39 704.15L989.4 708.21C989.36 708.34 989.25 708.43 989.12 708.43Z" fill="#5D2866"/>
<path d="M991.84 712.75C991.82 712.75 991.8 712.75 991.78 712.74C991.62 712.7 991.53 712.55 991.56 712.4L992.89 706.44C992.93 706.28 993.08 706.19 993.23 706.22C993.39 706.26 993.48 706.41 993.45 706.56L992.12 712.52C992.09 712.66 991.97 712.75 991.84 712.75Z" fill="#5D2866"/>
<path d="M967.4 657.48C967.13 656.96 966.71 656.55 966.23 656.21C964.61 655.09 959.51 652.74 957.99 654.18C956.54 655.56 959.33 656.95 959.33 656.95C959.33 656.95 956.86 656.28 956.98 658.12C957.08 659.66 958.66 660.17 958.66 660.17C958.66 660.17 956.02 659.72 956.98 661.92C957.94 664.12 963.4 666.09 965.41 666.02C967.42 665.96 966 663.32 966 663.32C966 663.32 968.16 662.97 968.16 661.77C968.16 660.5 966.46 660.02 966.46 660.02C966.46 660.02 968.38 659.34 967.4 657.48Z" fill="#F48462"/>
<path d="M965.82 660.17C965.78 660.17 965.74 660.16 965.7 660.14L959.21 657.21C959.06 657.14 959 656.97 959.07 656.83C959.14 656.68 959.31 656.62 959.45 656.69L965.94 659.62C966.08 659.69 966.15 659.86 966.08 660C966.04 660.1 965.93 660.17 965.82 660.17Z" fill="black"/>
<path d="M965.21 663.31C965.17 663.31 965.13 663.3 965.09 663.29L958.55 660.43C958.4 660.37 958.34 660.2 958.4 660.05C958.46 659.9 958.64 659.84 958.78 659.9L965.32 662.76C965.47 662.82 965.53 662.99 965.47 663.14C965.42 663.25 965.32 663.31 965.21 663.31Z" fill="black"/>
<path d="M891.8 597.4H817.47C814.59 597.4 812.26 595.07 812.26 592.19V570.77C812.26 567.89 814.59 565.56 817.47 565.56H891.8C894.68 565.56 897.01 567.89 897.01 570.77V592.19C897.01 595.07 894.67 597.4 891.8 597.4Z" fill="#E59A9A"/>
<path d="M738.28 533.25H693.63C691.63 533.25 690 531.63 690 529.62V508.34C690 506.34 691.62 504.71 693.63 504.71H738.28C740.28 504.71 741.91 506.33 741.91 508.34V529.62C741.91 531.62 740.28 533.25 738.28 533.25Z" fill="#9BCCC7"/>
<path d="M718.89 529.72L724.13 543.48L707.77 531.18L718.89 529.72Z" fill="#9BCCC7"/>
<path d="M1167.95 608.81C1167.95 608.81 1164.43 609.07 1165.55 614.04C1166.67 619.01 1169.88 612.83 1169.88 612.83L1167.95 608.81Z" fill="#FFA98F"/>
<path d="M1133.23 704.67C1133.91 705.06 1173.57 703.01 1174.46 702.19C1174.78 701.9 1174.76 700.01 1174.51 697.33C1174.05 692.44 1171.29 684.1 1169.76 678.95C1169.76 678.95 1155.88 679.88 1154.65 680.67C1153.4 681.47 1140.04 692.75 1140.04 692.75C1140.04 692.75 1134.94 694.69 1133.11 697.71C1132.58 698.6 1132.3 699.54 1132.21 700.42C1131.97 702.54 1132.75 704.4 1133.23 704.67Z" fill="#286C7C"/>
<path d="M1133.23 704.67C1133.91 705.06 1173.57 703.01 1174.46 702.19C1174.78 701.9 1174.76 700.01 1174.51 697.33L1132.2 700.42C1131.97 702.54 1132.75 704.4 1133.23 704.67Z" fill="white"/>
<path d="M1144.61 689.25C1144.46 689.25 1144.33 689.14 1144.32 688.99C1144.31 688.83 1144.43 688.69 1144.58 688.68L1155.32 687.82L1150.34 684.56C1150.21 684.47 1150.17 684.29 1150.26 684.16C1150.35 684.03 1150.53 683.99 1150.66 684.08L1156.35 687.8C1156.45 687.87 1156.5 687.99 1156.47 688.11C1156.44 688.23 1156.34 688.32 1156.21 688.33L1144.63 689.26C1144.62 689.25 1144.61 689.25 1144.61 689.25Z" fill="white"/>
<path d="M1149.56 682.34C1148.61 680.74 1129.93 648.96 1135.14 636.36C1136.16 633.89 1138.06 632.29 1140.77 631.61C1143.17 631.01 1145.74 630.7 1148.43 630.7C1164.98 630.7 1181.52 642.26 1181.68 642.38L1192.88 648.63L1207.33 669.11L1174.26 669.17L1176.95 682.41L1149.56 682.34Z" fill="#BD4B4B"/>
<path d="M1148.43 630.82C1164.94 630.82 1181.45 642.36 1181.63 642.49L1192.77 648.7L1207.09 668.98L1174.42 669.04H1174.11L1174.17 669.34L1176.8 682.28L1149.63 682.22C1148.33 680.01 1130.12 648.82 1135.25 636.41C1136.25 633.98 1138.12 632.4 1140.8 631.73C1143.19 631.13 1145.75 630.82 1148.43 630.82ZM1148.43 630.57C1145.85 630.57 1143.27 630.85 1140.74 631.48C1121.74 636.26 1149.49 682.46 1149.49 682.46L1177.11 682.52L1174.42 669.28L1207.58 669.22L1192.95 648.5L1181.76 642.26C1181.75 642.27 1165.21 630.57 1148.43 630.57Z" fill="black"/>
<path d="M1156.29 645.04C1156.19 645.04 1156.1 644.99 1156.05 644.91C1156.03 644.87 1153.59 641.05 1150.33 638.27C1150.21 638.17 1150.19 637.98 1150.3 637.86C1150.4 637.74 1150.59 637.73 1150.71 637.83C1154.04 640.67 1156.52 644.56 1156.54 644.6C1156.62 644.73 1156.58 644.91 1156.45 645C1156.39 645.03 1156.34 645.04 1156.29 645.04Z" fill="#431949"/>
<path d="M1190.25 606.72L1166 626.01C1166 626.01 1165.81 638.79 1177.81 642.28C1189.81 645.77 1191.21 631.22 1191.21 631.22L1190.25 606.72Z" fill="#FCDC73"/>
<path d="M1174.69 622.72C1174.69 622.72 1175.28 629.9 1169.56 629.22C1163.84 628.54 1164.19 620.32 1164.19 620.32L1174.69 622.72Z" fill="#FFA98F"/>
<path d="M1219.32 659.26C1219.32 659.26 1230.34 619.49 1221.06 608.55C1211.78 597.61 1190.25 606.72 1190.25 606.72L1179.95 643.22L1219.32 659.26Z" fill="#FCDC73"/>
<path d="M1203.5 632.24C1203.5 632.24 1197.93 623.42 1195.23 622.42C1192.53 621.42 1185.99 622.74 1185.99 623.52C1185.99 624.3 1192.04 625.25 1192.04 625.25C1192.04 625.25 1188.64 631.19 1188.58 632.53C1188.53 633.87 1191.59 637.76 1192.27 638.15C1192.94 638.54 1194.64 636.37 1194.64 636.37C1194.64 636.37 1196.51 638.63 1199.14 639.33C1201.77 640.03 1204.8 636.03 1204.8 636.03L1203.5 632.24Z" fill="#FFA98F"/>
<path d="M1194.64 636.65C1194.59 636.65 1192.37 636.27 1192.37 636.27C1192.21 636.24 1192.11 636.1 1192.13 635.94C1192.16 635.78 1192.3 635.67 1192.46 635.7L1193.8 635.93L1192.68 634.79C1192.57 634.68 1192.57 634.49 1192.68 634.38C1192.79 634.27 1192.98 634.27 1193.09 634.38L1194.84 636.15C1194.93 636.24 1194.95 636.37 1194.89 636.48C1194.84 636.6 1194.74 636.65 1194.64 636.65Z" fill="black"/>
<path d="M1195.67 626.15C1195.62 626.15 1191.99 625.54 1191.99 625.54C1191.83 625.51 1191.73 625.37 1191.75 625.21C1191.78 625.05 1191.92 624.95 1192.08 624.97L1195.71 625.58C1195.87 625.61 1195.97 625.75 1195.95 625.91C1195.93 626.05 1195.81 626.15 1195.67 626.15Z" fill="black"/>
<path d="M1213.05 597.36L1212.88 604.45C1212.88 604.45 1211.55 606.46 1207.39 606.69C1204.29 606.87 1203.22 606.14 1203.22 606.14L1203.74 602.56L1204.25 599.07L1211.78 597.6L1213.05 597.36Z" fill="#FFA98F"/>
<path d="M1211.66 598.21C1211.64 598.4 1211.56 598.61 1211.44 598.86C1209.77 602.22 1205.46 602.86 1203.69 602.98L1204.2 599.63L1211.66 598.21Z" fill="black"/>
<path d="M1203.31 584.07C1203.31 584.07 1199.53 592.51 1200.82 597.28C1202.11 602.05 1206.45 601.34 1209.06 600.44C1211.66 599.54 1212.88 597.96 1212.88 597.96C1212.88 597.96 1215.3 598.8 1216.94 596.56C1218.58 594.32 1217.61 591.72 1216.23 591.12C1214.85 590.51 1213.2 591.5 1213.2 591.5L1214.51 589.05C1214.5 589.06 1209.19 576.5 1203.31 584.07Z" fill="#FFA98F"/>
<path d="M1203.6 594.86C1203.48 594.86 1203.36 594.78 1203.32 594.66C1202.76 592.84 1204.05 590.99 1204.1 590.91C1204.19 590.78 1204.37 590.75 1204.5 590.84C1204.63 590.93 1204.66 591.11 1204.57 591.24C1204.56 591.26 1203.39 592.94 1203.87 594.48C1203.92 594.63 1203.83 594.79 1203.68 594.84C1203.66 594.86 1203.63 594.86 1203.6 594.86Z" fill="black"/>
<path d="M1213.54 595.51C1213.47 595.51 1213.4 595.48 1213.34 595.43C1213.22 595.32 1213.22 595.14 1213.33 595.02L1215.64 592.59C1215.75 592.47 1215.93 592.47 1216.05 592.58C1216.17 592.69 1216.17 592.87 1216.06 592.99L1213.75 595.42C1213.69 595.48 1213.62 595.51 1213.54 595.51Z" fill="black"/>
<path d="M1215.98 594.86C1215.94 594.86 1214.35 594.61 1214.35 594.61C1214.19 594.59 1214.09 594.44 1214.11 594.28C1214.13 594.12 1214.28 594.02 1214.44 594.04L1216.03 594.28C1216.19 594.3 1216.29 594.45 1216.27 594.61C1216.24 594.76 1216.12 594.86 1215.98 594.86Z" fill="black"/>
<path d="M1172.57 626.95L1180.08 626.33C1180.93 626.26 1181.57 625.51 1181.5 624.65L1180.05 607.12C1179.98 606.27 1179.23 605.63 1178.37 605.7L1170.86 606.32C1170.01 606.39 1169.37 607.14 1169.44 608L1170.89 625.53C1170.96 626.39 1171.71 627.02 1172.57 626.95Z" fill="white"/>
<path d="M1171.03 627.08L1178.54 626.46C1179.39 626.39 1180.03 625.64 1179.96 624.78L1178.51 607.25C1178.44 606.4 1177.69 605.76 1176.83 605.83L1169.32 606.45C1168.47 606.52 1167.83 607.27 1167.9 608.13L1169.35 625.66C1169.43 626.51 1170.18 627.15 1171.03 627.08Z" fill="black"/>
<path d="M1213.19 591.51C1213.19 591.51 1212.31 592.08 1211.68 591.09C1211.05 590.09 1212.44 587.16 1212.44 587.16C1212.44 587.16 1209.82 587.75 1208.2 586.88C1206.58 586.01 1205.79 583.62 1205.79 583.62C1205.79 583.62 1204.59 586.1 1201.01 585C1197.43 583.9 1196.76 579.02 1200.59 578.04C1204.41 577.05 1206.5 578.75 1206.5 578.75C1206.5 578.75 1206.99 575.21 1211.71 576.97C1216.01 578.57 1216.73 583.97 1216.73 583.97C1216.73 583.97 1219.32 584.1 1219.81 586.91C1220.3 589.72 1217.01 591.75 1217.01 591.75C1217.01 591.75 1215.14 590.64 1213.19 591.51Z" fill="black"/>
<path d="M1207.45 591.71C1207.25 591.69 1207.14 591.54 1207.16 591.38L1207.37 589.8C1207.39 589.64 1207.52 589.53 1207.69 589.55C1207.85 589.57 1207.96 589.71 1207.94 589.87L1207.73 591.45C1207.71 591.6 1207.59 591.71 1207.45 591.71Z" fill="black"/>
<path d="M1202.76 591.32C1202.56 591.29 1202.45 591.15 1202.47 590.99L1202.71 589.42C1202.73 589.26 1202.88 589.16 1203.04 589.18C1203.2 589.2 1203.31 589.35 1203.28 589.51L1203.04 591.08C1203.02 591.22 1202.9 591.32 1202.76 591.32Z" fill="black"/>
<path d="M1208.92 588.69C1208.82 588.69 1208.71 588.63 1208.66 588.53C1208.28 587.79 1207.27 587.99 1207.23 588.01C1207.08 588.04 1206.92 587.94 1206.89 587.79C1206.86 587.63 1206.96 587.48 1207.11 587.45C1207.17 587.44 1208.6 587.15 1209.18 588.28C1209.25 588.42 1209.2 588.59 1209.06 588.67C1209.01 588.68 1208.97 588.69 1208.92 588.69Z" fill="black"/>
<path d="M1204.35 587.7C1204.26 587.7 1204.17 587.66 1204.11 587.57C1203.97 587.36 1203.8 587.25 1203.61 587.22C1203.22 587.17 1202.74 587.49 1202.59 587.62C1202.47 587.72 1202.29 587.71 1202.18 587.59C1202.08 587.47 1202.09 587.29 1202.21 587.18C1202.24 587.16 1202.95 586.56 1203.68 586.64C1204.05 586.69 1204.35 586.89 1204.59 587.24C1204.68 587.37 1204.65 587.55 1204.51 587.64C1204.46 587.69 1204.41 587.7 1204.35 587.7Z" fill="black"/>
<path d="M1165.89 618.16C1165.89 618.16 1160.87 617.58 1162.41 615.27C1163.95 612.96 1173.04 611.86 1174.01 614.57C1174.98 617.28 1165.89 618.16 1165.89 618.16Z" fill="#FFA98F"/>
<path d="M1166.44 622.31C1166.44 622.31 1161.42 621.73 1162.96 619.42C1164.5 617.11 1173.59 616.01 1174.56 618.72C1175.53 621.43 1166.44 622.31 1166.44 622.31Z" fill="#FFA98F"/>
<path d="M1169.34 625.78C1168.26 626.14 1167.11 626.25 1166 626.01C1165.01 625.79 1164.14 625.29 1164.64 624.17C1165.64 621.92 1173.39 619.59 1174.65 621.81C1175.58 623.46 1171.48 625.07 1169.34 625.78Z" fill="#FFA98F"/>
<path d="M1165.3 617.61C1165.15 617.61 1165.02 617.49 1165.01 617.34C1165 617.18 1165.12 617.04 1165.28 617.03L1171.11 616.59C1171.29 616.57 1171.41 616.7 1171.42 616.86C1171.43 617.02 1171.31 617.16 1171.15 617.17L1165.32 617.61C1165.31 617.61 1165.31 617.61 1165.3 617.61Z" fill="black"/>
<path d="M1166.25 622.2C1166.1 622.2 1165.97 622.08 1165.96 621.93C1165.95 621.77 1166.07 621.63 1166.23 621.62L1172.06 621.18C1172.21 621.16 1172.36 621.29 1172.37 621.45C1172.38 621.61 1172.26 621.75 1172.1 621.76L1166.27 622.2C1166.26 622.2 1166.25 622.2 1166.25 622.2Z" fill="black"/>
<path d="M1210.61 660.06C1210.58 660.06 1210.56 660.06 1210.53 660.05C1210.37 660.01 1210.27 659.84 1210.31 659.68L1211.29 655.99C1211.33 655.83 1211.5 655.73 1211.66 655.77C1211.82 655.81 1211.92 655.98 1211.88 656.14L1210.9 659.83C1210.87 659.97 1210.75 660.06 1210.61 660.06Z" fill="#534579"/>
<path d="M1181.65 650.79C1181.47 650.79 1181.34 650.65 1181.35 650.48L1181.45 646.55C1181.45 646.38 1181.57 646.25 1181.76 646.25C1181.93 646.25 1182.06 646.39 1182.06 646.56L1181.96 650.49C1181.95 650.65 1181.81 650.79 1181.65 650.79Z" fill="#534579"/>
<path d="M1184.9 653.23C1184.73 653.23 1184.59 653.09 1184.6 652.92L1184.61 648.75C1184.61 648.58 1184.75 648.45 1184.91 648.45C1185.08 648.45 1185.22 648.59 1185.21 648.76L1185.2 652.93C1185.2 653.1 1185.06 653.23 1184.9 653.23Z" fill="#534579"/>
<path d="M1205.61 597.25C1205.43 597.25 1205.24 597.23 1205.04 597.17C1204.89 597.13 1204.79 596.97 1204.83 596.82C1204.87 596.66 1205.03 596.57 1205.18 596.61C1206.42 596.93 1207.15 595.76 1207.18 595.71C1207.26 595.57 1207.44 595.53 1207.58 595.61C1207.72 595.69 1207.76 595.87 1207.68 596C1207.4 596.49 1206.65 597.25 1205.61 597.25Z" fill="black"/>
<path d="M1097.31 689.51C1097.63 690.23 1130.79 712.06 1132 711.93C1132.43 711.88 1133.53 710.35 1134.92 708.04C1137.44 703.83 1140.16 695.47 1141.98 690.42C1141.98 690.42 1130.25 682.95 1128.78 682.85C1127.3 682.75 1109.85 683.93 1109.85 683.93C1109.85 683.93 1104.59 682.47 1101.33 683.82C1100.38 684.22 1099.6 684.81 1099 685.47C1097.55 687.05 1097.08 689.01 1097.31 689.51Z" fill="#286C7C"/>
<path d="M1097.31 689.51C1097.63 690.23 1130.79 712.06 1132 711.93C1132.43 711.88 1133.53 710.35 1134.92 708.04L1099 685.47C1097.55 687.05 1097.08 689.01 1097.31 689.51Z" fill="white"/>
<path d="M1124.56 690.06C1124.51 690.06 1124.46 690.05 1124.41 690.02L1114.53 683.91C1114.39 683.83 1114.35 683.65 1114.44 683.51C1114.52 683.37 1114.7 683.33 1114.84 683.42L1124.01 689.09L1121.92 683.52C1121.86 683.37 1121.94 683.21 1122.09 683.15C1122.24 683.09 1122.4 683.17 1122.46 683.32L1124.84 689.68C1124.88 689.8 1124.85 689.93 1124.75 690C1124.69 690.04 1124.63 690.06 1124.56 690.06Z" fill="white"/>
<path d="M1122.92 680.32C1124.27 678.31 1148.21 643.03 1161.43 638.69C1162.1 638.47 1162.94 638.36 1163.95 638.36C1177.47 638.36 1217.02 658.25 1219.18 659.34C1218.84 660.72 1214.75 676.39 1206.86 678.92C1205.92 679.22 1204.72 679.38 1203.31 679.38C1196.53 679.38 1185.68 675.84 1178.5 673.49C1174.89 672.31 1172.04 671.38 1170.82 671.24C1166.95 671.24 1146.3 698.94 1144.58 701.27L1122.92 680.32Z" fill="#BD4B4B"/>
<path d="M1163.94 638.48C1177.27 638.48 1216.05 657.9 1219.02 659.4C1218.54 661.28 1214.48 676.33 1206.81 678.8C1205.88 679.1 1204.7 679.25 1203.3 679.25C1196.54 679.25 1185.7 675.71 1178.53 673.37C1174.91 672.19 1172.06 671.26 1170.82 671.12C1170.79 671.12 1170.75 671.11 1170.72 671.11C1166.94 671.11 1146.77 698.08 1144.55 701.08L1123.09 680.31C1124.96 677.55 1148.45 643.09 1161.47 638.81C1162.12 638.59 1162.95 638.48 1163.94 638.48ZM1163.94 638.23C1162.94 638.23 1162.08 638.34 1161.39 638.57C1147.65 643.09 1122.76 680.34 1122.76 680.34L1144.58 701.46C1144.58 701.46 1166.88 671.36 1170.72 671.36C1170.75 671.36 1170.77 671.36 1170.79 671.36C1174.47 671.77 1193.17 679.5 1203.3 679.5C1204.67 679.5 1205.89 679.36 1206.89 679.04C1215.27 676.35 1219.32 659.27 1219.32 659.27C1219.32 659.27 1177.96 638.23 1163.94 638.23Z" fill="black"/>
<path d="M1170.03 671.64C1169.95 671.64 1169.88 671.61 1169.82 671.55C1169.33 671.04 1165.01 666.52 1165.7 664.7C1165.82 664.39 1166.13 664.01 1166.93 663.95C1167.67 663.89 1168.29 664.12 1168.8 664.63C1170.61 666.42 1170.32 671.17 1170.31 671.37C1170.3 671.48 1170.23 671.58 1170.12 671.62C1170.09 671.64 1170.06 671.64 1170.03 671.64ZM1167.15 664.53C1167.09 664.53 1167.04 664.53 1166.98 664.54C1166.37 664.59 1166.27 664.84 1166.24 664.92C1165.86 665.93 1168.03 668.78 1169.76 670.66C1169.77 669.3 1169.65 666.29 1168.4 665.06C1168.05 664.7 1167.64 664.53 1167.15 664.53Z" fill="#431949"/>
<path d="M1216.3 604.94C1216.3 604.94 1249.08 619.12 1243.38 643.59C1237.96 666.91 1200.55 646.54 1200.55 646.54L1202.4 628.24L1219.86 630.1L1216.3 604.94Z" fill="#FCDC73"/>
<path d="M1225.72 629.55C1225.7 629.55 1225.68 629.55 1225.66 629.54C1216.09 627.56 1205.25 628.22 1205.14 628.23C1204.96 628.23 1204.84 628.12 1204.83 627.96C1204.82 627.8 1204.94 627.66 1205.1 627.65C1205.21 627.64 1216.13 626.98 1225.78 628.98C1225.94 629.01 1226.04 629.16 1226 629.32C1225.97 629.45 1225.85 629.55 1225.72 629.55Z" fill="white"/>
<path d="M1216.89 628.11C1216.64 628.11 1216.47 628.08 1216.41 627.91C1216.37 627.79 1216.41 627.66 1216.51 627.59C1216.67 627.47 1220.49 624.58 1222.75 624.9C1223.27 624.97 1223.68 625.2 1223.97 625.59C1224.31 626.04 1224.24 626.4 1224.13 626.63C1223.43 628.01 1218.36 628.11 1216.89 628.11ZM1222.37 625.46C1220.89 625.46 1218.73 626.77 1217.61 627.53C1220.14 627.47 1223.24 627.11 1223.62 626.37C1223.64 626.32 1223.71 626.2 1223.51 625.94C1223.32 625.68 1223.04 625.53 1222.67 625.48C1222.57 625.46 1222.47 625.46 1222.37 625.46Z" fill="white"/>
<path d="M1206.4 606.91C1205.39 606.91 1204.3 606.77 1203.14 606.42C1202.99 606.37 1202.9 606.21 1202.95 606.06C1203 605.91 1203.15 605.82 1203.31 605.87C1208.76 607.52 1212.65 604.27 1212.69 604.23C1212.81 604.13 1212.99 604.14 1213.1 604.26C1213.2 604.38 1213.19 604.56 1213.07 604.67C1213.03 604.7 1210.39 606.91 1206.4 606.91Z" fill="white"/>
<path d="M1217.79 653.22C1217.76 653.22 1217.72 653.21 1217.69 653.2C1217.57 653.16 1206.08 648.73 1200.39 645C1200.26 644.91 1200.22 644.73 1200.31 644.6C1200.4 644.47 1200.58 644.43 1200.71 644.52C1206.35 648.22 1217.78 652.62 1217.9 652.67C1218.05 652.73 1218.12 652.89 1218.07 653.04C1218.02 653.15 1217.91 653.22 1217.79 653.22Z" fill="white"/>
<path d="M1180.12 642.03C1179.93 642.01 1179.82 641.87 1179.83 641.71C1180.35 636.46 1182.87 629.2 1182.89 629.13C1182.94 628.98 1183.11 628.9 1183.26 628.95C1183.41 629 1183.49 629.17 1183.44 629.32C1183.41 629.39 1180.92 636.58 1180.4 641.77C1180.4 641.91 1180.27 642.03 1180.12 642.03Z" fill="white"/>
<path d="M1071.8 520.45L1072.49 528.09H1087.16V519.44L1071.8 520.45Z" fill="#FFA98F"/>
<path d="M1097.98 523.98L1099.46 531.65L1115.61 527.81L1112.79 519.44L1097.98 523.98Z" fill="#FFA98F"/>
<path d="M1115.95 419.41C1115.95 419.41 1119.8 415.88 1125.29 418.76C1130.78 421.65 1130.09 429.86 1130.09 429.86C1130.09 429.86 1135.86 431.9 1136.33 438.96C1136.8 446.02 1128.71 448.76 1128.71 448.76L1114.92 446.59C1114.92 446.59 1112.17 442.49 1112.19 442.34C1112.21 442.19 1111.64 425.19 1111.64 425.19L1115.95 419.41Z" fill="black"/>
<path d="M1086.15 477.37C1086.15 477.37 1089.03 450.04 1099.75 445.34C1110.47 440.64 1127.8 445.47 1127.8 445.47L1127.02 482.02L1086.15 477.37Z" fill="#3F9E97"/>
<path d="M1071.61 527.41C1071.61 527.41 1069.3 534.92 1068.44 535.91C1067.58 536.9 1057.89 545.56 1056.63 548.62C1055.37 551.68 1057.01 555.92 1057.79 556.05C1058.58 556.18 1095.64 539.83 1095.64 539.83L1088.34 521.71L1071.61 527.41Z" fill="#1F5E68"/>
<path d="M1070.46 522.7C1069.99 520.68 1062.57 488.29 1068.15 479.7C1070.4 476.23 1075.22 474.47 1082.46 474.47C1088.44 474.47 1094.11 475.73 1094.95 475.92L1089.79 522.69H1070.46V522.7Z" fill="#BD4B4B"/>
<path d="M1082.46 474.61C1088.22 474.61 1093.68 475.78 1094.81 476.03L1089.68 522.58H1070.56C1069.92 519.81 1062.78 488.21 1068.25 479.78C1070.48 476.35 1075.26 474.61 1082.46 474.61ZM1082.46 474.36C1076.78 474.36 1070.75 475.48 1068.04 479.64C1062.22 488.61 1070.36 522.83 1070.36 522.83H1089.9L1095.08 475.84C1095.09 475.84 1089.01 474.36 1082.46 474.36Z" fill="black"/>
<path d="M1069.47 532.81C1069.47 532.81 1077.21 536.54 1076.23 537.53C1075.25 538.52 1064.57 541.28 1064.36 540.1C1064.16 538.91 1068.23 533.24 1069.47 532.81Z" fill="#FFBA57"/>
<path d="M1091.13 529.2C1089.98 527.09 1069.57 489.08 1082.49 478.86C1085.6 476.4 1089.79 475.15 1094.93 475.15C1108.32 475.15 1124 483.64 1124.15 483.72L1143.02 483.74C1143.33 485.28 1146.98 504.22 1138.64 507.34C1136.3 508.21 1132.92 508.66 1128.59 508.66C1119.63 508.66 1109.54 506.74 1109.44 506.72L1109.17 506.67L1117.51 521.38L1091.13 529.2Z" fill="#BD4B4B"/>
<path d="M1094.93 475.27C1108.29 475.27 1123.94 483.74 1124.09 483.83L1124.15 483.86H1124.21H1142.92C1143.34 485.97 1146.7 504.19 1138.6 507.21C1136.27 508.08 1132.9 508.52 1128.59 508.52C1119.64 508.52 1109.56 506.6 1109.46 506.58L1108.93 506.48L1109.2 506.95L1117.33 521.29L1091.19 529.03C1089.62 526.13 1069.87 488.97 1082.57 478.94C1085.66 476.51 1089.82 475.27 1094.93 475.27ZM1094.93 475.02C1090.27 475.02 1085.85 476.03 1082.41 478.75C1068.95 489.4 1091.07 529.34 1091.07 529.34L1117.71 521.45L1109.43 506.83C1109.43 506.83 1119.53 508.77 1128.6 508.77C1132.43 508.77 1136.07 508.43 1138.7 507.44C1147.56 504.13 1143.14 483.6 1143.14 483.6H1124.22C1124.22 483.61 1108.51 475.02 1094.93 475.02Z" fill="black"/>
<path d="M1097.93 531.31C1097.93 531.31 1096.81 539.53 1095.25 540.56C1093.69 541.59 1087.1 546.89 1083.7 551.4C1080.85 555.18 1084.32 556.75 1084.32 556.75L1106.73 554.13L1124.35 537.73L1115.75 523.81L1097.93 531.31Z" fill="#286C7C"/>
<path d="M1096.4 536.38C1096.4 536.38 1104.13 540.14 1103.14 541.13C1102.16 542.12 1091.46 544.84 1091.26 543.65C1091.06 542.46 1095.16 536.8 1096.4 536.38Z" fill="#FFBA57"/>
<path d="M1114.29 437.08L1115.19 442.83C1115.19 442.83 1114.28 444.7 1110.51 445.66C1107.71 446.38 1106.62 445.99 1106.62 445.99L1106.56 443L1106.51 440.09L1113.17 437.5L1114.29 437.08Z" fill="#FFA98F"/>
<path d="M1113.17 437.53C1113.18 437.71 1113.15 437.93 1113.09 438.19C1112.18 441.7 1108.31 443.08 1106.69 443.51L1106.53 440.22L1113.17 437.53Z" fill="black"/>
<path d="M1102.55 425.59C1102.55 425.59 1100.52 434.35 1102.64 438.67C1104.76 442.99 1108.78 441.5 1111.1 440.16C1113.42 438.82 1114.29 437.08 1114.29 437.08C1114.29 437.08 1116.76 437.44 1117.91 434.99C1119.06 432.55 1117.64 430.25 1116.22 429.93C1114.79 429.61 1113.39 430.86 1113.39 430.86L1114.19 428.27C1114.18 428.27 1106.76 417.26 1102.55 425.59Z" fill="#FFA98F"/>
<path d="M1104.79 435.81C1104.7 435.81 1104.62 435.76 1104.57 435.68C1103.7 434.06 1104.58 432.07 1104.62 431.99C1104.68 431.87 1104.82 431.81 1104.95 431.87C1105.07 431.93 1105.13 432.07 1105.07 432.2C1105.06 432.22 1104.26 434.05 1105.01 435.46C1105.07 435.58 1105.03 435.73 1104.91 435.79C1104.87 435.8 1104.83 435.81 1104.79 435.81Z" fill="black"/>
<path d="M1114.41 434.57C1114.36 434.57 1114.32 434.56 1114.28 434.53C1114.16 434.46 1114.13 434.3 1114.2 434.19L1115.95 431.44C1116.03 431.32 1116.18 431.29 1116.29 431.36C1116.41 431.43 1116.44 431.59 1116.37 431.7L1114.62 434.45C1114.57 434.53 1114.49 434.57 1114.41 434.57Z" fill="black"/>
<path d="M1115.05 433.56C1114.92 433.56 1114.81 433.46 1114.8 433.32C1114.8 433.18 1114.9 433.07 1115.04 433.06L1116.61 433C1116.75 433 1116.86 433.1 1116.87 433.24C1116.87 433.38 1116.77 433.49 1116.63 433.5L1115.05 433.56C1115.05 433.56 1115.06 433.56 1115.05 433.56Z" fill="black"/>
<path d="M1102.89 472.72C1102.8 472.72 1102.72 472.68 1102.66 472.61C1102.64 472.59 1100.76 470.07 1099.27 466.37C1096.96 460.65 1099.16 452.41 1099.26 452.06C1099.3 451.91 1099.46 451.81 1099.61 451.86C1099.76 451.9 1099.85 452.06 1099.81 452.21C1099.79 452.29 1097.57 460.61 1099.8 466.15C1101.26 469.78 1103.1 472.24 1103.12 472.26C1103.22 472.39 1103.19 472.57 1103.06 472.66C1103.01 472.7 1102.95 472.72 1102.89 472.72Z" fill="white"/>
<path d="M1107.57 437.83C1106.87 437.83 1106.26 437.42 1106.23 437.39C1106.16 437.34 1106.12 437.26 1106.12 437.18C1106.12 437.1 1106.17 437.02 1106.25 436.98L1109.21 435.32C1109.29 435.28 1109.39 435.28 1109.47 435.33C1109.55 435.38 1109.59 435.47 1109.58 435.56C1109.58 435.61 1109.45 436.81 1108.52 437.53C1108.21 437.75 1107.88 437.83 1107.57 437.83ZM1106.88 437.18C1107.24 437.33 1107.78 437.45 1108.21 437.12C1108.62 436.8 1108.84 436.36 1108.96 436.01L1106.88 437.18Z" fill="black"/>
<path d="M1108.73 428.92C1108.66 428.92 1108.58 428.89 1108.54 428.83C1108.03 428.18 1107.07 428.57 1107.03 428.59C1106.9 428.64 1106.76 428.58 1106.71 428.46C1106.66 428.33 1106.71 428.19 1106.84 428.14C1106.89 428.12 1108.18 427.58 1108.93 428.53C1109.01 428.64 1109 428.79 1108.89 428.88C1108.83 428.9 1108.78 428.92 1108.73 428.92Z" fill="black"/>
<path d="M1102.31 429.19C1102.26 429.19 1102.2 429.17 1102.16 429.14C1102.05 429.06 1102.03 428.9 1102.12 428.79C1102.14 428.76 1102.69 428.06 1103.4 428.02C1103.74 428 1104.07 428.13 1104.35 428.41C1104.45 428.51 1104.45 428.66 1104.35 428.76C1104.25 428.86 1104.1 428.86 1104 428.76C1103.82 428.58 1103.63 428.5 1103.43 428.51C1102.94 428.54 1102.51 429.09 1102.51 429.09C1102.46 429.16 1102.38 429.19 1102.31 429.19Z" fill="black"/>
<path d="M1103.33 432.59C1103.2 432.59 1103.09 432.49 1103.08 432.35L1103.02 430.91L1102.39 430.38C1102.29 430.29 1102.27 430.14 1102.36 430.03C1102.45 429.92 1102.6 429.91 1102.71 430L1103.42 430.6C1103.47 430.64 1103.5 430.71 1103.51 430.78L1103.58 432.33C1103.59 432.47 1103.48 432.58 1103.34 432.59C1103.34 432.59 1103.33 432.59 1103.33 432.59Z" fill="black"/>
<path d="M1107.88 432.08C1107.75 432.08 1107.64 431.98 1107.63 431.85L1107.54 430.43L1106.64 429.83C1106.53 429.75 1106.5 429.6 1106.57 429.49C1106.65 429.38 1106.8 429.34 1106.91 429.42L1107.91 430.09C1107.97 430.13 1108.01 430.2 1108.02 430.28L1108.12 431.83C1108.13 431.97 1108.03 432.08 1107.89 432.09C1107.89 432.08 1107.88 432.08 1107.88 432.08Z" fill="black"/>
<path d="M1113.07 430.79C1113.07 430.79 1108.99 430.24 1107.24 427.52C1105.5 424.79 1105.59 423.5 1105.59 423.5C1105.59 423.5 1103.57 424.67 1102.86 426.2C1102.15 427.72 1102.02 428.54 1102.02 428.54C1102.02 428.54 1101.34 425.26 1101.69 424.26C1102.04 423.26 1103.94 417.64 1111.78 418.32C1123.68 419.35 1118.85 429 1113.07 430.79Z" fill="black"/>
<path d="M1114.5 467.8C1114.5 467.8 1114.14 467.64 1112.6 467.09C1111.15 466.57 1105.9 466.97 1105.9 466.97C1105.9 466.97 1101.34 467.64 1097.54 469.14C1093.74 470.64 1094.26 472.35 1094.26 472.35C1094.26 472.35 1091.81 473.64 1092.72 474.72C1093.63 475.8 1097.52 475.14 1097.52 475.14C1097.52 475.14 1092.56 476.54 1094.45 477.79C1096.34 479.04 1102.66 477.01 1102.66 477.01C1102.66 477.01 1112.03 481.34 1115.46 478.31C1118.89 475.28 1114.5 467.8 1114.5 467.8Z" fill="#FFA98F"/>
<path d="M1112.06 466.47L1107.88 481.76C1107.88 481.76 1135.12 501.34 1146.49 485.99C1157.87 470.64 1136.7 447.64 1127.8 445.48C1118.9 443.32 1123.4 468.04 1123.4 468.04L1112.06 466.47Z" fill="#3F9E97"/>
<path d="M1109.43 507.12C1109.38 507.12 1109.33 507.11 1109.28 507.08C1108.65 506.7 1103.15 503.35 1103.18 501.07C1103.18 500.7 1103.34 500.18 1104.03 499.79C1104.62 499.46 1105.21 499.42 1105.8 499.68C1108.2 500.72 1109.65 506.52 1109.71 506.77C1109.74 506.88 1109.69 507 1109.6 507.07C1109.55 507.11 1109.49 507.12 1109.43 507.12ZM1105.03 500.09C1104.79 500.09 1104.56 500.16 1104.32 500.29C1103.95 500.5 1103.77 500.76 1103.76 501.08C1103.74 502.55 1107.08 505 1108.96 506.2C1108.5 504.63 1107.26 500.93 1105.58 500.2C1105.39 500.13 1105.21 500.09 1105.03 500.09Z" fill="#5D2866"/>
<path d="M1131.19 468.89C1131.16 468.89 1131.12 468.88 1131.09 468.87C1125.81 466.83 1115.17 467.16 1115.06 467.17C1114.89 467.16 1114.77 467.05 1114.76 466.89C1114.75 466.73 1114.88 466.6 1115.04 466.59C1115.48 466.58 1125.9 466.25 1131.29 468.33C1131.44 468.39 1131.51 468.55 1131.46 468.7C1131.41 468.82 1131.3 468.89 1131.19 468.89Z" fill="white"/>
<path d="M1123.12 467.38C1123 467.38 1122.89 467.31 1122.85 467.19C1122.8 467.06 1122.85 466.92 1122.96 466.85C1123.54 466.47 1128.74 463.14 1130.61 464.48C1130.98 464.75 1130.98 465.03 1130.94 465.18C1130.65 466.33 1125.4 467.1 1123.16 467.38C1123.14 467.38 1123.13 467.38 1123.12 467.38ZM1129.44 464.74C1128.1 464.74 1125.96 465.77 1124.46 466.63C1127.65 466.15 1130.24 465.48 1130.38 465.05C1130.38 465.05 1130.35 465.01 1130.28 464.96C1130.06 464.8 1129.78 464.74 1129.44 464.74Z" fill="white"/>
<path d="M1106.82 446.29C1106.71 446.29 1106.64 446.29 1106.61 446.29C1106.45 446.29 1106.33 446.15 1106.33 445.99C1106.33 445.83 1106.45 445.72 1106.63 445.71C1106.68 445.71 1112.57 445.84 1114.96 442.66C1115.06 442.53 1115.24 442.51 1115.36 442.6C1115.49 442.7 1115.51 442.88 1115.42 443C1113.08 446.12 1107.93 446.29 1106.82 446.29Z" fill="white"/>
<path d="M1094.42 477.51H1062.65L1053.58 456.98H1084.1C1084.86 456.98 1085.55 457.43 1085.86 458.13L1094.42 477.51Z" fill="white"/>
<path d="M1091.66 477.51H1059.89L1051.79 459.19C1051.33 458.15 1052.09 456.98 1053.23 456.98H1082.59L1091.66 477.51Z" fill="#FC8A5E"/>
<path d="M1105.07 480.1H1060.21C1059.49 480.1 1058.91 479.52 1058.91 478.8C1058.91 478.08 1059.49 477.5 1060.21 477.5H1105.07C1105.79 477.5 1106.37 478.08 1106.37 478.8C1106.36 479.52 1105.78 480.1 1105.07 480.1Z" fill="black"/>
<path d="M1094.26 472.61C1094.18 472.61 1094.09 472.57 1094.05 472.49C1093.98 472.37 1094.02 472.22 1094.14 472.15C1094.17 472.13 1097.45 470.25 1101.61 469.07C1101.74 469.03 1101.88 469.11 1101.91 469.24C1101.95 469.37 1101.87 469.51 1101.74 469.55C1097.64 470.72 1094.41 472.57 1094.38 472.58C1094.34 472.6 1094.3 472.61 1094.26 472.61Z" fill="black"/>
<path d="M1097.05 475.27C1096.97 475.27 1096.89 475.23 1096.85 475.16C1096.77 475.05 1096.8 474.89 1096.92 474.82C1097.03 474.74 1099.75 472.95 1102.3 472.73C1102.45 472.72 1102.56 472.82 1102.57 472.96C1102.58 473.1 1102.48 473.22 1102.35 473.23C1099.93 473.44 1097.23 475.22 1097.2 475.24C1097.14 475.26 1097.09 475.27 1097.05 475.27Z" fill="black"/>
<path d="M1064.17 437.8L1069.12 450.8L1053.67 439.18L1064.17 437.8Z" fill="white"/>
<path d="M734.83 516.35H697.08C696.33 516.35 695.71 515.74 695.71 514.98C695.71 514.22 696.32 513.61 697.08 513.61H734.83C735.58 513.61 736.2 514.22 736.2 514.98C736.2 515.74 735.58 516.35 734.83 516.35Z" fill="#FFEEEB"/>
<path d="M734.83 524.34H697.08C696.33 524.34 695.71 523.73 695.71 522.97C695.71 522.22 696.32 521.6 697.08 521.6H734.83C735.58 521.6 736.2 522.21 736.2 522.97C736.19 523.73 735.58 524.34 734.83 524.34Z" fill="#FFEEEB"/>
<path d="M1236.38 444.8C1236.38 444.8 1237.6 434.75 1240.7 434.8C1243.81 434.85 1242.65 445.15 1242.65 445.15L1236.38 444.8Z" fill="#FCDC73"/>
<path d="M1231.71 440.59C1231.71 440.59 1222.79 438.25 1220.49 440.04C1218.97 441.23 1221.5 443.64 1221.5 443.64C1221.5 443.64 1217.75 443.43 1218.01 445.36C1218.27 447.29 1219.64 447.87 1219.64 447.87C1219.64 447.87 1216.51 448.39 1218.39 451.26C1220.11 453.88 1233.31 458.72 1236.94 459.11C1240.57 459.5 1242.82 445.56 1242.61 444.38C1242.4 443.19 1231.71 440.59 1231.71 440.59Z" fill="#FCDC73"/>
<path d="M1236.56 461.31L1224.99 458.55C1224.05 458.33 1223.48 457.39 1223.7 456.45C1223.92 455.51 1224.86 454.94 1225.8 455.16L1237.37 457.92C1238.31 458.14 1238.88 459.08 1238.66 460.02C1238.44 460.96 1237.5 461.53 1236.56 461.31Z" fill="#FCDC73"/>
<path d="M1225.83 445.1C1225.8 445.1 1225.78 445.1 1225.75 445.09L1221.43 443.91C1221.28 443.87 1221.19 443.71 1221.23 443.56C1221.27 443.41 1221.43 443.32 1221.58 443.36L1225.9 444.54C1226.05 444.58 1226.14 444.74 1226.1 444.89C1226.07 445.02 1225.96 445.1 1225.83 445.1Z" fill="#FCDC73"/>
<path d="M1225.05 449.63C1225.02 449.63 1225 449.63 1224.97 449.62L1219.56 448.14C1219.41 448.1 1219.32 447.94 1219.36 447.79C1219.4 447.64 1219.56 447.54 1219.71 447.59L1225.12 449.07C1225.27 449.11 1225.36 449.27 1225.32 449.42C1225.29 449.55 1225.18 449.63 1225.05 449.63Z" fill="#FCDC73"/>
<path d="M1238.68 442.96C1238.65 442.96 1238.62 442.96 1238.59 442.95L1236.13 442.17C1235.98 442.12 1235.89 441.96 1235.94 441.81C1235.99 441.66 1236.15 441.57 1236.3 441.62L1238.76 442.4C1238.91 442.45 1239 442.61 1238.95 442.76C1238.92 442.88 1238.81 442.96 1238.68 442.96Z" fill="#FCDC73"/>
<path d="M981.35 396.86C981.35 396.86 978.5 387.15 975.44 387.71C972.38 388.27 975.22 398.24 975.22 398.24L981.35 396.86Z" fill="#FCDC73"/>
<path d="M985.26 391.93C985.26 391.93 993.68 388.15 996.24 389.54C997.93 390.46 995.83 393.26 995.83 393.26C995.83 393.26 999.5 392.44 999.56 394.38C999.62 396.32 998.36 397.12 998.36 397.12C998.36 397.12 1001.54 397.12 1000.15 400.26C998.89 403.13 986.66 410.07 983.15 411.06C979.63 412.04 975.12 398.66 975.13 397.46C975.15 396.26 985.26 391.93 985.26 391.93Z" fill="#FCDC73"/>
<path d="M983.89 413.17L994.85 408.54C995.74 408.17 996.15 407.14 995.78 406.26C995.41 405.37 994.38 404.96 993.5 405.33L982.54 409.96C981.65 410.33 981.24 411.36 981.61 412.24C981.98 413.13 983 413.54 983.89 413.17Z" fill="#FCDC73"/>
<path d="M991.76 395.42C991.65 395.42 991.55 395.36 991.5 395.25C991.43 395.1 991.5 394.93 991.64 394.87L995.71 393C995.86 392.93 996.03 393 996.09 393.14C996.16 393.29 996.09 393.46 995.95 393.52L991.88 395.39C991.84 395.41 991.8 395.42 991.76 395.42Z" fill="#FCDC73"/>
<path d="M994.21 399.33C994.1 399.33 994 399.27 993.95 399.16C993.88 399.02 993.95 398.84 994.09 398.78L998.24 396.86C998.38 396.79 998.56 396.86 998.62 397C998.69 397.14 998.62 397.32 998.48 397.38L994.33 399.3C994.29 399.32 994.25 399.33 994.21 399.33Z" fill="#FCDC73"/>
<path d="M978.73 395.42C978.62 395.42 978.52 395.36 978.47 395.26C978.4 395.12 978.45 394.94 978.6 394.87L980.9 393.7C981.04 393.63 981.22 393.68 981.29 393.83C981.36 393.97 981.31 394.15 981.16 394.22L978.86 395.39C978.82 395.41 978.77 395.42 978.73 395.42Z" fill="#FCDC73"/>
<path d="M1101.89 378.89C1100.33 386.87 1105.53 394.6 1113.51 396.16C1121.49 397.72 1129.22 392.52 1130.78 384.54C1132.34 376.56 1127.14 368.83 1119.16 367.27C1111.18 365.71 1103.45 370.92 1101.89 378.89Z" fill="#FCDC73"/>
<path d="M1121.91 381.65C1121.85 381.65 1121.8 381.64 1121.74 381.62C1121.47 381.53 1121.33 381.23 1121.42 380.96L1122.35 378.33C1122.44 378.06 1122.74 377.92 1123.01 378.02C1123.28 378.11 1123.42 378.41 1123.33 378.68L1122.4 381.31C1122.32 381.52 1122.12 381.65 1121.91 381.65Z" fill="black"/>
<path d="M1111.84 378.15C1111.78 378.15 1111.73 378.14 1111.67 378.12C1111.4 378.03 1111.26 377.73 1111.35 377.46L1112.28 374.83C1112.37 374.56 1112.67 374.42 1112.94 374.52C1113.21 374.61 1113.35 374.91 1113.26 375.18L1112.33 377.81C1112.26 378.01 1112.06 378.15 1111.84 378.15Z" fill="black"/>
<path d="M1115.56 388.13C1114.92 388.13 1114.26 388.04 1113.6 387.8C1110.52 386.71 1109.48 382.89 1109.44 382.73C1109.39 382.54 1109.45 382.34 1109.6 382.21C1109.75 382.08 1109.95 382.04 1110.13 382.12L1119.8 385.94C1119.98 386.01 1120.1 386.18 1120.12 386.37C1120.14 386.56 1120.05 386.75 1119.88 386.85C1119.78 386.92 1117.85 388.13 1115.56 388.13ZM1110.81 383.51C1111.29 384.6 1112.27 386.25 1113.93 386.84C1115.57 387.42 1117.29 386.93 1118.34 386.49L1110.81 383.51Z" fill="black"/>
<path d="M739.249 465.493C747.364 465.004 753.546 458.029 753.056 449.914C752.567 441.799 745.592 435.617 737.477 436.106C729.362 436.596 723.18 443.571 723.669 451.686C724.159 459.801 731.134 465.983 739.249 465.493Z" fill="#FCDC73"/>
<path d="M732.84 450.34C732.61 450.34 732.41 450.19 732.34 449.96L731.6 447.27C731.52 447 731.69 446.71 731.96 446.64C732.23 446.56 732.52 446.73 732.59 447L733.33 449.69C733.41 449.96 733.24 450.25 732.97 450.32C732.93 450.33 732.88 450.34 732.84 450.34Z" fill="black"/>
<path d="M743.12 447.54C742.89 447.54 742.69 447.39 742.62 447.16L741.88 444.47C741.8 444.2 741.97 443.91 742.24 443.84C742.52 443.76 742.8 443.92 742.87 444.2L743.61 446.89C743.69 447.16 743.52 447.45 743.25 447.52C743.22 447.54 743.17 447.54 743.12 447.54Z" fill="black"/>
<path d="M739.13 457.26C736.63 457.26 734.57 455.75 734.46 455.67C734.3 455.55 734.23 455.36 734.26 455.17C734.29 454.98 734.43 454.82 734.61 454.76L744.52 451.63C744.71 451.57 744.91 451.62 745.04 451.76C745.18 451.9 745.22 452.1 745.16 452.29C745.11 452.45 743.81 456.18 740.66 457.05C740.15 457.2 739.63 457.26 739.13 457.26ZM736.02 455.4C737.03 455.91 738.71 456.53 740.39 456.06C742.1 455.59 743.18 454.02 743.74 452.96L736.02 455.4Z" fill="black"/>
<path d="M945.422 583.742C946.677 575.71 941.183 568.181 933.151 566.926C925.119 565.671 917.59 571.164 916.335 579.196C915.08 587.229 920.574 594.757 928.606 596.013C936.638 597.268 944.167 591.774 945.422 583.742Z" fill="#FCDC73"/>
<path d="M933.6 589.61C933.49 589.61 933.38 589.58 933.29 589.51C933.06 589.34 933.02 589.01 933.19 588.79C933.34 588.59 933.51 588.3 933.43 588.09C933.3 587.75 932.64 587.51 932.35 587.44C932.15 587.4 931.99 587.24 931.95 587.04C931.91 586.84 931.99 586.63 932.15 586.51C932.78 586.06 933.62 585.17 933.45 584.69C933.06 583.6 931.07 584.25 931.05 584.25C930.78 584.34 930.49 584.19 930.4 583.92C930.31 583.65 930.45 583.36 930.72 583.27C931.82 582.9 933.83 582.71 934.42 584.33C934.75 585.24 934.05 586.16 933.46 586.75C933.84 586.95 934.23 587.26 934.4 587.72C934.54 588.08 934.58 588.67 934.02 589.41C933.91 589.54 933.76 589.61 933.6 589.61Z" fill="black"/>
<path d="M934.33 577.77C934.27 577.77 934.22 577.76 934.16 577.74C933.89 577.65 933.75 577.35 933.84 577.09C933.86 577.03 934.39 575.56 935.62 575.22C936.37 575.02 937.17 575.27 938 575.98C938.22 576.17 938.24 576.49 938.06 576.71C937.87 576.92 937.55 576.95 937.33 576.77C936.78 576.3 936.3 576.11 935.89 576.22C935.31 576.38 934.92 577.15 934.82 577.43C934.74 577.64 934.54 577.77 934.33 577.77Z" fill="black"/>
<path d="M923.56 581.04C923.5 581.04 923.44 581.03 923.39 581.01C923.12 580.92 922.98 580.62 923.08 580.35C923.53 579.07 924.21 578.3 925.08 578.05C926.34 577.69 927.48 578.59 927.52 578.63C927.74 578.81 927.78 579.13 927.6 579.35C927.42 579.57 927.1 579.61 926.88 579.43C926.86 579.42 926.1 578.83 925.36 579.04C924.82 579.19 924.38 579.75 924.05 580.69C923.97 580.91 923.77 581.04 923.56 581.04Z" fill="black"/>
</g>
<defs>
<clipPath id="clip0_56_39">
<rect width="582.49" height="362.49" fill="white" transform="translate(690 367)"/>
</clipPath>
</defs>
</svg>
